{"glyphs":{"0":{"ha":1008,"x_min":206,"x_max":1231,"o":"m 547 838 q 500 769 547 838 q 391 540 454 700 q 328 271 328 381 q 367 96 328 161 q 478 31 407 31 q 690 122 574 31 q 901 347 806 214 q 1060 640 996 481 q 1125 925 1125 799 q 1113 1035 1125 985 q 1060 1126 1100 1085 q 958 1167 1021 1167 q 753 1071 867 1167 q 547 838 639 975 m 622 1009 q 678 1061 622 1009 q 848 1172 733 1113 q 1056 1231 963 1231 q 1190 1157 1149 1231 q 1231 965 1231 1083 q 1154 669 1231 846 q 960 337 1078 492 q 684 74 842 182 q 381 -33 526 -33 q 206 211 206 -33 q 264 501 206 350 q 417 778 322 651 q 622 1009 511 906 z "},"1":{"ha":750,"x_min":143,"x_max":1133,"o":"m 856 936 q 206 453 490 617 q 158 433 174 433 q 143 435 143 433 q 167 453 143 439 q 647 797 394 589 q 714 854 658 807 q 892 1008 857 974 q 937 1092 901 1019 q 1006 1183 972 1164 q 1114 1231 1094 1231 q 1133 1206 1133 1231 q 1100 1135 1133 1182 q 1011 1042 1067 1089 q 508 72 686 464 q 492 33 501 56 q 478 0 483 10 q 456 -19 469 -17 q 328 -56 369 -29 q 308 -64 314 -64 q 294 -53 294 -64 q 314 -18 294 -49 q 444 203 389 104 q 642 556 499 303 q 856 936 785 808 z "},"2":{"ha":903,"x_min":-92,"x_max":1101,"o":"m 867 1231 q 1034 1175 971 1231 q 1097 1033 1097 1119 q 1077 932 1097 983 q 999 815 1057 881 q 894 703 940 749 q 733 564 847 656 q 417 321 603 460 q 178 142 231 182 q 214 147 197 147 q 353 119 281 147 q 481 56 425 92 q 747 -78 644 -50 q 902 -94 807 -94 q 1081 -56 997 -94 q 1101 -49 1101 -44 q 1031 -94 1101 -58 q 756 -161 883 -161 q 635 -145 689 -161 q 506 -89 581 -129 q 378 -12 432 -49 q 253 52 324 24 q 117 81 182 81 q 89 75 111 81 q -41 -26 -19 -11 q -77 -42 -62 -42 q -92 -34 -92 -42 q -44 14 -92 -26 q 87 122 3 54 q 223 235 171 190 q 404 388 275 281 q 613 564 533 494 q 783 722 692 633 q 964 1017 964 900 q 918 1133 964 1083 q 806 1183 872 1183 q 694 1162 761 1183 q 572 1086 626 1140 q 542 1058 544 1058 q 533 1067 533 1058 q 564 1106 533 1075 q 867 1231 685 1231 z "},"3":{"ha":861,"x_min":14,"x_max":1097,"o":"m 139 217 q 111 172 111 186 q 122 142 111 157 q 158 107 133 126 q 217 71 183 88 q 403 31 296 31 q 697 156 568 31 q 825 433 825 282 q 758 594 825 533 q 583 656 690 656 q 532 647 556 656 q 499 639 508 639 q 489 649 489 639 q 526 679 489 658 q 592 707 563 700 q 711 751 622 714 q 847 817 800 788 q 986 1025 986 896 q 808 1178 986 1178 q 678 1125 726 1178 q 631 1092 661 1108 q 588 1075 600 1075 q 575 1081 575 1075 q 620 1127 575 1089 q 747 1205 665 1165 q 895 1244 828 1244 q 1003 1229 963 1244 q 1064 1189 1044 1214 q 1097 1086 1097 1142 q 861 792 1097 929 q 717 719 789 753 q 874 642 815 711 q 933 483 933 574 q 869 293 933 393 q 708 122 804 193 q 504 8 613 51 q 293 -36 396 -36 q 102 10 190 -36 q 14 108 14 56 q 25 136 14 125 q 72 175 46 153 q 131 225 129 225 q 139 217 139 225 z "},"4":{"ha":939,"x_min":244,"x_max":1269,"o":"m 1181 717 q 1186 714 1181 717 q 1156 689 1186 708 q 1114 664 1126 669 q 906 603 992 619 q 614 19 672 169 q 597 -12 604 -7 q 583 -19 590 -18 q 463 -56 499 -29 q 447 -64 451 -64 q 433 -53 433 -64 q 453 -19 433 -50 q 569 175 543 125 l 800 583 q 447 556 626 556 q 365 560 404 556 q 285 585 326 564 q 244 642 244 606 q 269 717 244 678 q 343 800 293 756 q 440 881 393 844 q 563 974 488 918 q 683 1067 638 1031 q 800 1186 763 1136 q 853 1217 807 1194 q 911 1239 899 1239 l 914 1236 q 706 1042 914 1215 q 601 960 675 1017 q 483 866 528 903 q 400 783 439 829 q 361 703 361 736 q 435 634 361 654 q 605 614 508 614 q 828 633 701 614 l 1078 1072 q 1091 1095 1082 1079 q 1103 1115 1100 1111 q 1112 1129 1106 1119 q 1122 1142 1118 1139 q 1153 1165 1140 1157 q 1192 1192 1167 1172 q 1256 1231 1243 1231 q 1269 1225 1269 1231 q 1260 1207 1269 1217 l 1236 1183 q 1211 1153 1222 1169 q 931 653 1147 1053 q 1092 692 1007 668 q 1181 717 1176 717 z "},"5":{"ha":861,"x_min":-3,"x_max":1283,"o":"m 89 -39 q -3 69 -3 -3 q 25 145 -3 111 q 107 220 53 179 q 174 274 161 261 q 192 286 186 286 l 197 283 q 183 264 197 276 q 151 238 168 251 q 120 195 135 224 q 106 125 106 167 q 155 43 106 83 q 311 3 204 3 q 676 126 519 3 q 833 431 833 250 q 765 603 833 538 q 583 669 697 669 q 394 617 489 669 q 364 606 375 606 q 353 617 353 606 q 398 681 353 618 q 517 878 443 744 q 647 1161 590 1011 q 662 1185 654 1179 q 686 1192 669 1192 q 715 1186 703 1192 q 744 1174 728 1181 q 963 1156 788 1156 q 1256 1203 1138 1156 q 1268 1214 1264 1206 q 1275 1222 1272 1222 q 1283 1214 1283 1222 q 1270 1192 1283 1210 q 1225 1151 1257 1175 q 1153 1114 1193 1126 q 828 1067 1003 1067 q 672 1081 797 1067 q 461 681 590 876 q 676 736 593 736 q 812 711 758 736 q 892 644 865 686 q 942 471 942 567 q 872 273 942 375 q 696 99 803 171 q 460 -15 589 28 q 235 -58 332 -58 q 89 -39 138 -58 z "},"6":{"ha":872,"x_min":94,"x_max":1361,"o":"m 836 400 q 644 553 836 553 q 219 278 453 553 q 206 163 206 229 q 251 53 206 97 q 364 8 297 8 q 687 138 538 8 q 836 400 836 267 m 376 477 q 408 500 376 477 q 546 572 440 524 q 744 619 651 619 q 892 585 836 619 q 947 467 947 550 q 888 292 947 383 q 733 123 828 200 q 511 -6 639 46 q 261 -58 383 -58 q 146 -11 197 -58 q 94 106 94 36 q 210 429 94 251 q 506 764 326 607 q 909 1053 686 921 q 1342 1250 1132 1185 q 1354 1253 1347 1253 q 1361 1250 1361 1253 q 1324 1206 1361 1240 q 1264 1164 1288 1172 q 667 840 958 1063 q 261 383 375 618 q 376 477 311 431 z "},"7":{"ha":861,"x_min":133,"x_max":1347,"o":"m 619 522 l 386 503 q 369 509 369 503 q 387 538 369 515 q 419 561 404 561 l 656 561 l 1189 1100 q 815 1058 1022 1058 q 539 1077 608 1058 q 469 1117 469 1096 q 484 1148 469 1126 q 517 1204 499 1169 q 542 1239 536 1239 q 547 1233 547 1239 q 665 1169 547 1189 q 872 1150 782 1150 q 1112 1165 961 1150 q 1297 1207 1263 1181 q 1336 1233 1332 1233 q 1347 1218 1347 1233 q 1219 1081 1347 1203 q 717 561 906 779 l 964 561 q 975 553 975 561 q 686 528 975 528 q 289 -6 492 299 q 257 -24 279 -18 q 222 -34 235 -29 q 182 -60 208 -39 q 147 -81 156 -81 q 133 -70 133 -81 q 150 -36 133 -60 q 619 522 422 314 z "},"8":{"ha":917,"x_min":78,"x_max":1217,"o":"m 672 669 q 200 211 200 436 q 255 92 200 144 q 444 39 310 39 q 758 142 635 39 q 881 356 881 244 q 858 453 881 406 q 811 529 836 501 q 740 601 786 557 q 672 669 693 646 m 942 894 l 969 889 q 1050 953 1006 889 q 1094 1068 1094 1017 q 1065 1153 1094 1119 q 967 1186 1036 1186 q 766 1101 863 1186 q 669 925 669 1015 q 692 833 669 872 q 758 753 714 794 q 910 812 803 765 q 1024 858 1018 858 q 1031 856 1031 858 q 778 733 1031 844 q 821 691 785 726 q 875 635 857 656 q 919 579 894 614 q 969 439 969 511 q 888 232 969 342 q 665 44 806 122 q 384 -33 525 -33 q 160 28 243 -33 q 78 183 78 89 q 136 360 78 272 q 286 499 175 418 q 428 585 350 546 q 569 654 506 624 q 653 694 633 685 q 637 714 650 699 q 618 738 624 729 q 602 763 613 746 q 586 793 592 779 q 572 867 572 828 q 625 1005 572 936 q 753 1122 678 1074 q 910 1201 829 1171 q 1057 1231 990 1231 q 1170 1199 1124 1231 q 1217 1114 1217 1167 q 1122 947 1217 1025 q 944 869 1028 869 q 925 883 925 869 q 942 894 925 894 z "},"9":{"ha":881,"x_min":103,"x_max":1183,"o":"m 353 369 l 328 372 q 249 312 283 372 q 214 178 214 251 q 267 58 214 106 q 408 11 319 11 q 505 28 460 11 q 596 93 550 44 q 674 181 642 142 q 756 317 706 219 q 878 563 815 429 q 950 714 942 697 q 717 653 828 653 q 540 694 607 653 q 472 828 472 736 q 513 964 472 893 q 622 1094 554 1035 q 790 1192 690 1153 q 997 1231 890 1231 q 1125 1188 1067 1231 q 1183 1061 1183 1144 q 1078 772 1183 969 q 1004 631 1049 717 q 884 416 960 544 q 744 207 808 288 q 628 76 679 126 q 523 3 576 26 q 432 -26 469 -19 q 342 -33 394 -33 q 171 23 239 -33 q 103 167 103 79 q 236 358 103 338 q 295 376 260 363 q 346 389 331 389 q 361 379 361 389 q 353 369 361 369 m 894 1183 q 674 1086 774 1183 q 575 861 575 989 q 631 739 575 781 q 753 697 688 697 q 969 764 892 697 q 1040 946 1025 890 q 1056 1044 1056 1001 q 1012 1135 1056 1086 q 894 1183 968 1183 z "}," ":{"ha":583,"x_min":0,"x_max":0,"o":""},"!":{"ha":603,"x_min":214,"x_max":961,"o":"m 214 39 q 251 126 214 85 q 336 167 289 167 q 383 117 383 167 q 342 32 383 75 q 269 -11 301 -11 q 214 39 214 -11 m 956 1086 q 939 1089 946 1089 q 839 1035 900 1089 q 714 892 778 981 q 533 619 607 742 q 392 294 429 439 q 361 275 383 275 q 339 294 339 275 q 392 439 339 308 q 486 644 444 569 q 631 893 542 756 q 789 1106 719 1031 q 878 1131 814 1131 q 931 1122 900 1131 q 961 1097 961 1114 q 956 1086 961 1086 z "},"\"":{"ha":667,"x_min":406,"x_max":928,"o":"m 422 756 q 406 772 406 756 q 439 839 406 775 l 642 1222 q 685 1245 644 1228 q 732 1267 725 1263 q 753 1275 750 1275 q 761 1267 761 1275 q 738 1233 761 1264 q 642 1095 714 1203 q 520 905 569 988 q 464 810 471 822 q 453 792 457 799 q 444 778 449 786 q 438 767 440 771 q 432 761 435 764 q 422 756 426 756 m 589 756 q 572 772 572 756 q 606 839 572 775 l 808 1222 q 851 1245 811 1228 q 899 1267 892 1263 q 919 1275 917 1275 q 928 1267 928 1275 q 904 1233 928 1264 q 808 1095 881 1203 q 687 905 736 988 q 631 810 638 822 q 619 792 624 799 q 611 778 615 786 q 604 767 607 771 q 599 761 601 764 q 589 756 593 756 z "},"#":{"ha":808,"x_min":128,"x_max":1103,"o":"m 422 450 l 625 464 l 783 761 q 578 756 722 761 l 422 450 m 717 364 l 617 361 q 491 112 521 179 q 446 14 461 44 q 410 -37 422 -36 q 385 -33 397 -39 q 372 -17 372 -26 q 567 361 372 19 q 369 347 488 361 q 183 -28 221 57 q 163 -38 182 -32 q 139 -44 144 -44 q 128 -31 128 -44 q 145 15 128 -18 q 218 149 163 49 q 322 342 274 250 q 175 331 228 331 q 167 338 167 331 q 176 365 167 346 q 208 408 186 385 q 269 439 231 431 q 381 447 308 447 l 536 753 q 406 739 433 744 q 392 747 392 739 q 581 839 392 821 q 814 1247 792 1244 q 838 1241 824 1247 q 853 1228 853 1235 q 848 1216 853 1222 q 828 1189 843 1210 q 789 1133 811 1169 q 622 842 721 1028 q 735 851 660 844 q 833 858 810 857 q 960 1099 869 931 q 1064 1267 1051 1267 q 1087 1263 1071 1267 q 1103 1255 1103 1260 q 1097 1239 1103 1250 q 872 861 985 1078 q 1039 869 972 869 q 1058 858 1058 869 q 1045 841 1058 853 q 1028 823 1032 829 q 1017 806 1025 817 q 1004 788 1008 794 q 994 775 1000 782 q 975 761 983 761 l 819 761 l 664 467 q 804 472 775 472 q 833 461 833 472 q 826 445 833 457 q 817 428 819 433 q 717 364 796 364 z "},"$":{"ha":1056,"x_min":106,"x_max":1250,"o":"m 742 589 l 447 17 q 506 11 492 11 q 766 113 665 11 q 867 317 867 214 q 834 448 867 385 q 742 589 801 511 m 775 744 l 994 1167 q 947 1169 981 1169 q 750 1101 822 1169 q 678 949 678 1032 q 775 744 678 867 m 1142 1436 q 1169 1433 1164 1433 q 1175 1428 1175 1433 q 1072 1228 1175 1422 q 1225 1144 1169 1217 q 1250 1102 1250 1113 q 1240 1083 1250 1092 q 1194 1049 1225 1071 q 1158 1028 1163 1028 q 1153 1036 1153 1028 q 1119 1106 1153 1072 q 1033 1156 1086 1139 l 803 711 q 944 524 908 588 q 981 397 981 461 q 890 183 981 288 q 669 16 800 78 q 417 -47 539 -46 l 272 -314 q 231 -353 264 -331 q 188 -375 197 -375 q 178 -369 178 -375 l 364 -44 q 169 40 233 -31 q 106 189 106 111 q 132 224 106 197 q 178 274 158 250 q 209 312 199 299 q 222 325 219 325 q 231 319 231 325 l 218 300 q 206 264 206 281 q 261 108 206 165 q 400 25 317 50 l 711 625 q 646 713 668 682 q 602 794 624 744 q 581 886 581 843 q 654 1058 581 976 q 831 1184 728 1139 q 1028 1231 933 1229 q 1142 1436 1135 1436 z "},"%":{"ha":1231,"x_min":318,"x_max":1340,"o":"m 722 1181 q 560 1101 621 1181 q 500 946 500 1022 q 551 822 500 869 q 675 775 601 775 q 835 853 776 775 q 894 1009 894 932 q 844 1133 894 1086 q 722 1181 794 1181 m 422 903 q 543 1129 422 1028 q 786 1231 664 1231 q 919 1181 867 1231 q 972 1053 972 1131 q 851 826 972 928 q 608 725 731 725 q 475 775 528 725 q 422 903 422 825 m 375 314 q 327 293 336 293 q 318 297 318 293 q 353 336 318 315 l 1283 908 q 1327 928 1314 928 q 1340 922 1340 928 q 1306 886 1340 907 l 375 314 m 950 422 q 788 343 849 422 q 728 188 728 264 q 778 64 728 111 q 903 17 829 17 q 1063 95 1004 17 q 1122 251 1122 174 q 1072 375 1122 328 q 950 422 1022 422 m 650 144 q 771 371 650 269 q 1014 472 892 472 q 1147 422 1094 472 q 1200 294 1200 372 q 1079 68 1200 169 q 836 -33 958 -33 q 703 17 756 -33 q 650 144 650 67 z "},"&":{"ha":1411,"x_min":211,"x_max":1550,"o":"m 697 786 q 817 703 761 703 q 856 739 856 703 q 697 786 856 786 m 798 842 q 823 842 798 842 q 886 820 847 842 q 925 760 925 799 q 887 699 925 722 q 799 675 849 675 q 705 706 750 675 q 636 781 660 736 q 483 724 549 767 q 381 624 417 682 q 311 389 311 508 q 432 123 311 226 q 715 19 553 19 q 983 132 878 19 q 1114 397 1088 244 q 1032 455 1088 414 q 939 515 976 496 q 869 533 901 533 q 817 510 838 533 q 797 458 797 488 q 829 401 797 429 q 861 369 861 372 q 822 361 861 361 l 811 361 q 719 447 719 361 q 768 518 719 489 q 885 547 817 547 q 1035 513 953 547 q 1179 438 1118 479 q 1312 362 1240 396 q 1429 328 1383 328 q 1528 383 1481 328 q 1540 397 1536 392 q 1547 403 1543 403 q 1550 396 1550 403 q 1522 361 1550 389 q 1408 289 1458 289 q 1189 356 1313 289 q 1118 232 1169 299 q 993 103 1067 165 q 818 -1 919 40 q 614 -42 717 -42 q 333 63 456 -42 q 211 337 211 168 q 332 632 211 506 q 622 814 453 758 q 611 894 611 843 q 670 1075 611 996 q 808 1191 729 1154 q 967 1228 886 1228 q 1126 1190 1049 1228 q 1203 1097 1203 1153 q 1192 1072 1203 1088 q 1166 1030 1181 1057 q 1147 1003 1151 1003 q 1142 1008 1142 1003 q 1066 1124 1142 1075 q 917 1172 990 1172 q 721 1103 794 1172 q 647 925 647 1033 q 669 828 647 876 q 798 842 749 842 z "},"'":{"ha":500,"x_min":406,"x_max":761,"o":"m 422 756 q 406 772 406 756 q 439 839 406 775 l 642 1222 q 685 1245 644 1228 q 732 1267 725 1263 q 753 1275 750 1275 q 761 1267 761 1275 q 738 1233 761 1264 q 642 1095 714 1203 q 520 905 569 988 q 464 810 471 822 q 453 792 457 799 q 444 778 449 786 q 438 767 440 771 q 432 761 435 764 q 422 756 426 756 z "},"(":{"ha":669,"x_min":253,"x_max":1247,"o":"m 453 -192 q 253 139 253 -111 q 379 579 253 326 q 551 853 449 718 q 817 1131 653 989 q 1181 1383 981 1272 q 1239 1408 1231 1408 q 1247 1401 1247 1408 q 1228 1383 1247 1393 q 878 1122 1035 1269 q 626 833 722 974 q 467 546 531 692 q 350 89 350 283 q 408 -125 350 -61 q 436 -150 431 -147 q 467 -169 464 -165 q 483 -188 483 -179 q 474 -197 483 -197 q 453 -192 464 -197 z "},")":{"ha":672,"x_min":-100,"x_max":894,"o":"m 694 1403 q 894 1072 894 1322 q 768 632 894 885 q 597 358 699 493 q 331 81 494 222 q -33 -172 167 -61 q -92 -197 -83 -197 q -100 -190 -100 -197 q -81 -172 -100 -182 q 269 90 113 -58 q 521 378 425 238 q 681 665 617 519 q 797 1122 797 928 q 739 1336 797 1272 q 711 1361 717 1358 q 681 1381 683 1376 q 664 1399 664 1390 q 674 1408 664 1408 q 694 1403 683 1408 z "},"*":{"ha":597,"x_min":300,"x_max":958,"o":"m 442 814 l 444 897 q 382 900 394 900 q 369 892 369 900 q 442 814 369 868 m 458 806 q 517 764 488 782 q 606 894 567 831 l 458 897 l 458 806 m 625 867 q 553 739 583 800 q 656 678 604 703 q 719 653 707 653 q 728 669 728 653 q 710 719 728 685 q 664 801 693 754 q 625 867 635 847 m 592 944 q 560 999 578 968 q 531 1048 542 1031 q 510 1083 521 1065 q 480 1117 489 1117 q 464 953 471 1117 l 592 944 m 300 918 q 300 926 300 918 q 320 949 300 933 q 369 964 340 964 q 447 956 397 964 q 451 1042 450 996 q 456 1114 453 1088 q 461 1156 458 1140 q 472 1188 467 1172 q 511 1217 485 1217 q 542 1186 525 1217 q 572 1133 560 1158 q 656 981 614 1053 q 717 1094 686 1032 q 763 1179 749 1156 q 787 1203 776 1203 q 808 1182 797 1203 q 819 1153 819 1161 q 817 1142 819 1144 q 683 944 768 1078 l 942 944 q 958 933 958 944 q 945 907 958 922 q 919 892 932 892 l 864 894 l 700 894 q 831 681 794 733 q 833 665 833 675 q 819 643 833 656 q 792 625 806 631 l 778 619 q 544 722 715 619 q 525 686 536 711 q 489 633 499 632 q 469 639 479 633 q 447 669 458 644 q 436 733 436 693 l 439 792 q 342 865 383 828 q 300 918 300 903 m 506 750 q 482 765 500 754 q 458 781 464 776 q 469 714 458 714 q 506 750 483 714 z "},"+":{"ha":933,"x_min":156,"x_max":1003,"o":"m 558 414 q 292 342 408 403 q 175 197 175 282 q 197 144 175 167 q 253 122 218 122 q 417 216 332 122 q 558 414 503 310 m 1003 492 q 962 452 1003 479 q 911 425 921 425 q 650 419 767 425 q 542 256 601 324 q 428 158 483 189 q 256 106 288 104 q 253 106 254 106 q 182 131 208 106 q 156 189 156 157 q 263 367 156 282 q 586 472 369 451 q 658 689 658 629 q 638 738 658 717 q 571 758 617 758 q 477 740 525 758 q 402 702 429 721 q 371 683 375 683 q 367 689 367 683 q 405 725 367 699 q 517 778 443 751 q 664 806 590 806 q 725 784 694 806 q 756 725 756 763 q 681 478 756 628 q 1000 494 868 490 q 1003 492 1003 494 z "},",":{"ha":444,"x_min":-39,"x_max":278,"o":"m 222 117 q 278 -6 278 117 q 231 -137 276 -67 q 129 -256 186 -207 q 26 -339 72 -306 q -30 -372 -21 -372 q -39 -369 -39 -372 l -39 -364 q -35 -358 -39 -362 q -28 -353 -31 -354 q -21 -348 -25 -351 q -12 -341 -17 -344 q 0 -333 -7 -337 q 14 -322 7 -328 q 175 -78 175 -201 q 160 16 175 -33 q 144 69 144 65 q 177 100 144 83 q 222 117 210 117 z "},"-":{"ha":744,"x_min":233,"x_max":800,"o":"m 278 492 l 667 486 l 794 489 q 800 487 800 489 q 792 465 800 485 q 781 435 783 446 q 769 414 775 414 q 642 419 764 414 q 442 425 521 425 l 239 419 q 233 422 233 419 q 237 430 233 425 q 247 442 240 435 q 256 456 253 450 q 264 472 260 461 q 278 492 271 492 z "},".":{"ha":444,"x_min":156,"x_max":325,"o":"m 156 39 q 193 126 156 85 q 278 167 231 167 q 325 117 325 167 q 284 32 325 75 q 211 -11 243 -11 q 156 39 156 -11 z "},"/":{"ha":725,"x_min":128,"x_max":1039,"o":"m 961 1467 q 996 1492 967 1476 q 1036 1508 1025 1508 l 1039 1506 q 314 149 575 632 q 203 -56 314 149 q 168 -81 199 -64 q 131 -97 138 -97 l 128 -94 q 136 -78 128 -90 l 961 1467 z "},":":{"ha":561,"x_min":156,"x_max":567,"o":"m 156 39 q 193 126 156 85 q 278 167 231 167 q 325 117 325 167 q 284 32 325 75 q 211 -11 243 -11 q 156 39 156 -11 m 397 500 q 435 587 397 546 q 519 628 472 628 q 567 578 567 628 q 526 493 567 536 q 453 450 485 450 q 397 500 397 450 z "},";":{"ha":631,"x_min":-39,"x_max":458,"o":"m 222 117 q 278 -6 278 117 q 231 -137 276 -67 q 129 -256 186 -207 q 26 -339 72 -306 q -30 -372 -21 -372 q -39 -369 -39 -372 l -39 -364 q -35 -358 -39 -362 q -28 -353 -31 -354 q -21 -348 -25 -351 q -12 -341 -17 -344 q 0 -333 -7 -337 q 14 -322 7 -328 q 175 -78 175 -201 q 160 16 175 -33 q 144 69 144 65 q 177 100 144 83 q 222 117 210 117 m 289 433 q 326 520 289 479 q 411 561 364 561 q 458 511 458 561 q 417 426 458 469 q 344 383 376 383 q 289 433 289 383 z "},"<":{"ha":681,"x_min":244,"x_max":775,"o":"m 775 851 q 775 847 775 851 q 767 835 775 843 q 570 678 760 828 q 354 503 381 528 q 328 458 328 478 q 421 290 328 439 q 514 133 514 142 q 507 122 514 125 q 489 115 500 118 q 458 101 478 111 q 429 92 439 92 q 332 241 419 92 q 244 423 244 390 q 286 489 244 456 q 558 697 357 536 q 767 858 760 858 q 775 851 775 858 z "},"=":{"ha":1119,"x_min":256,"x_max":1133,"o":"m 375 628 l 878 617 l 1128 622 q 1133 619 1133 622 q 1132 614 1133 617 q 1126 604 1131 611 q 1119 589 1122 597 q 1114 572 1117 583 q 1103 553 1108 553 l 581 564 l 336 558 q 331 561 331 558 q 334 568 331 564 q 344 579 338 572 q 353 592 350 586 q 361 608 357 597 q 375 628 368 628 m 300 464 l 803 453 l 1053 458 q 1058 456 1058 458 q 1057 450 1058 453 q 1051 440 1056 447 q 1044 425 1047 433 q 1039 408 1042 419 q 1028 389 1033 389 l 506 400 l 261 394 q 256 397 256 394 q 259 404 256 400 q 269 415 263 408 q 278 428 275 422 q 286 444 282 433 q 300 464 293 464 z "},">":{"ha":681,"x_min":144,"x_max":675,"o":"m 144 99 q 144 103 144 99 q 152 115 144 107 q 349 272 160 122 q 565 447 539 422 q 592 492 592 472 q 499 660 592 511 q 406 817 406 808 q 413 828 406 825 q 431 835 419 832 q 461 849 442 839 q 490 858 481 858 q 588 709 500 858 q 675 527 675 560 q 633 461 675 494 q 361 253 563 414 q 152 92 160 92 q 144 99 144 92 z "},"?":{"ha":719,"x_min":172,"x_max":1019,"o":"m 172 39 q 210 126 172 85 q 294 167 247 167 q 342 117 342 167 q 301 32 342 75 q 228 -11 260 -11 q 172 39 172 -11 m 911 1019 q 864 1122 911 1081 q 756 1164 817 1164 q 636 1135 694 1164 q 540 1076 578 1106 q 492 1047 500 1047 q 483 1053 483 1047 q 492 1067 483 1058 q 664 1186 581 1142 q 836 1231 747 1231 q 972 1186 925 1231 q 1019 1064 1019 1142 q 900 882 1019 964 q 781 813 850 847 q 506 643 568 706 q 442 519 442 582 q 519 381 442 475 q 544 344 544 350 q 535 333 544 339 q 506 322 525 328 l 481 317 q 433 306 447 306 q 381 371 419 306 q 344 478 344 435 q 375 568 344 522 q 458 656 403 614 q 728 817 572 742 q 897 950 867 886 q 911 1019 911 981 z "},"@":{"ha":1286,"x_min":206,"x_max":1419,"o":"m 833 400 q 1008 708 882 560 q 911 775 986 775 q 714 651 811 775 q 617 417 617 526 q 631 358 617 386 q 675 331 646 331 q 833 400 726 331 m 989 319 q 1111 350 1054 319 q 1207 428 1168 381 q 1274 533 1246 476 q 1328 736 1328 644 q 1215 963 1328 878 q 954 1047 1101 1047 q 677 989 807 1047 q 466 834 547 931 q 341 619 385 738 q 297 378 297 501 q 401 117 297 221 q 644 14 506 14 q 1183 194 988 14 q 1224 220 1199 207 q 1258 233 1249 233 q 1267 231 1267 233 q 1163 142 1236 196 q 1019 53 1090 89 q 833 -12 947 17 q 597 -42 718 -42 q 321 67 436 -42 q 206 320 206 176 q 255 588 206 464 q 388 803 304 711 q 581 964 472 894 q 1044 1103 799 1103 q 1217 1068 1133 1103 q 1360 958 1300 1033 q 1419 774 1419 883 q 1350 544 1419 665 q 1164 343 1281 422 q 922 264 1047 264 q 851 288 879 264 q 822 347 822 311 q 824 357 822 350 q 825 367 825 364 q 625 289 713 289 q 546 322 578 289 q 514 406 514 356 q 639 664 514 542 q 887 786 764 786 q 1031 728 1010 786 q 1075 756 1050 747 q 1131 769 1103 769 q 1139 764 1139 769 q 1119 739 1139 758 q 990 565 1056 675 q 925 375 925 456 q 944 335 925 351 q 989 319 963 319 z "},"A":{"ha":1361,"x_min":-69,"x_max":1611,"o":"m 561 475 l 608 475 q 771 458 664 475 q 918 442 878 442 q 981 444 958 442 q 1032 744 1000 603 q 1081 957 1064 886 q 1108 1070 1097 1028 q 1119 1117 1119 1113 q 1117 1122 1119 1122 q 1078 1083 1106 1122 l 561 475 m 517 425 q 142 31 250 121 q 22 -8 101 0 q -9 -14 18 -8 q -53 -19 -36 -19 q -69 -8 -69 -19 q -47 11 -69 6 q 42 61 6 29 q 479 474 251 244 q 1036 1089 707 704 q 1073 1131 1058 1114 q 1103 1163 1088 1149 q 1125 1183 1118 1176 q 1147 1197 1132 1189 q 1165 1208 1161 1206 q 1202 1223 1183 1217 q 1245 1241 1221 1229 q 1279 1253 1269 1253 q 1289 1242 1289 1253 l 1289 1239 q 1274 1190 1289 1224 q 1258 1153 1258 1156 q 1172 844 1219 1047 q 1100 461 1124 642 q 1272 547 1194 485 q 1303 567 1297 567 q 1308 559 1308 567 q 1278 527 1308 551 q 1195 475 1247 503 q 1097 436 1143 447 q 1083 247 1083 315 q 1172 36 1083 36 q 1305 85 1224 36 q 1469 207 1386 135 q 1594 344 1551 279 q 1606 353 1600 353 q 1611 349 1611 353 q 1608 339 1611 344 q 1459 174 1533 239 q 1283 49 1385 108 q 1096 -11 1181 -11 q 986 41 1011 -11 q 961 203 961 93 q 975 411 961 314 q 801 397 850 397 q 660 413 751 397 q 547 428 568 428 q 517 425 525 428 z "},"B":{"ha":1250,"x_min":50,"x_max":1286,"o":"m 475 219 l 467 203 q 535 63 467 125 q 697 0 603 0 q 830 37 757 0 q 969 138 903 74 q 1081 301 1036 201 q 1125 514 1125 401 q 1085 619 1122 578 q 985 661 1049 661 q 867 638 922 661 q 801 614 811 614 q 784 624 790 614 q 772 640 778 635 q 767 651 767 644 q 783 663 767 658 q 823 669 799 667 q 856 675 847 672 q 1060 828 963 711 q 1158 1058 1158 944 q 1121 1140 1158 1110 q 1030 1169 1083 1169 q 919 1133 976 1169 q 786 1008 863 1094 q 394 358 629 831 q 175 -153 253 71 q 145 -174 169 -168 q 92 -192 121 -181 q 61 -203 63 -203 q 50 -191 50 -203 q 170 52 50 -179 q 331 361 290 283 q 744 1006 547 782 q 1128 1231 940 1231 q 1239 1201 1192 1231 q 1286 1106 1286 1171 q 1166 842 1286 968 q 917 675 1046 715 q 1022 683 1000 683 q 1186 635 1122 683 q 1250 472 1250 586 q 1031 119 1250 306 q 622 -33 850 -33 q 444 31 518 -33 q 369 172 369 94 q 394 187 369 179 q 429 201 418 194 q 450 213 440 207 q 463 222 460 219 q 471 225 467 225 q 475 219 475 225 z "},"C":{"ha":1194,"x_min":222,"x_max":1378,"o":"m 1378 1122 q 1378 1115 1378 1122 q 1349 1079 1378 1108 q 1313 1036 1321 1050 q 1297 1022 1304 1022 q 1289 1033 1289 1022 q 1225 1125 1289 1081 q 1089 1169 1161 1169 q 822 1094 950 1169 q 491 758 626 967 q 356 317 356 549 q 435 100 356 189 q 633 11 514 11 q 945 92 833 11 q 1097 300 1057 174 q 1114 333 1107 333 q 1143 309 1128 333 q 1158 268 1158 285 q 1136 217 1158 251 q 1065 139 1114 182 q 952 58 1017 96 q 790 -7 888 19 q 586 -33 693 -33 q 326 69 429 -33 q 222 325 222 171 q 391 765 222 542 q 803 1125 560 988 q 1178 1231 986 1231 q 1349 1167 1288 1231 q 1378 1122 1378 1136 z "},"D":{"ha":1658,"x_min":181,"x_max":1744,"o":"m 667 258 q 561 386 593 361 q 500 411 529 411 q 338 309 418 411 q 258 125 258 207 q 369 36 258 36 q 509 91 428 36 q 667 258 590 146 m 775 333 q 814 254 789 308 q 858 165 839 200 q 908 89 878 129 q 1085 8 971 8 q 1304 74 1200 8 q 1477 242 1408 139 q 1585 471 1546 346 q 1625 717 1625 596 q 1256 1186 1625 1111 q 999 703 1140 957 q 775 333 858 450 m 544 853 q 553 814 544 836 q 543 808 553 808 q 517 825 533 808 q 489 850 500 842 q 467 883 467 867 q 562 1061 467 979 q 793 1187 657 1143 q 1064 1231 929 1231 q 1153 1228 1125 1231 q 1167 1289 1167 1260 q 1134 1372 1167 1347 q 1044 1397 1101 1397 q 942 1379 986 1397 q 872 1343 899 1361 q 842 1325 844 1325 q 833 1333 833 1325 q 864 1361 833 1339 q 954 1407 894 1383 q 1067 1431 1014 1431 q 1163 1420 1121 1431 q 1241 1376 1204 1410 q 1278 1286 1278 1342 q 1264 1214 1278 1256 q 1744 650 1744 1135 q 1692 394 1744 519 q 1550 177 1639 269 q 1338 28 1461 85 q 1083 -28 1215 -28 q 900 11 986 -28 q 831 62 869 25 q 773 122 793 99 q 726 181 753 146 q 692 225 699 217 q 560 92 618 142 q 431 10 501 43 q 310 -22 361 -22 q 219 3 258 -22 q 181 81 181 28 q 224 206 181 133 q 328 341 267 279 q 463 446 389 403 q 594 489 538 489 q 742 383 667 489 q 976 833 867 604 q 1142 1203 1086 1061 q 1056 1206 1114 1206 q 822 1155 942 1206 q 624 1021 703 1104 q 544 853 544 938 z "},"E":{"ha":1158,"x_min":219,"x_max":1381,"o":"m 1081 347 l 1075 383 q 1081 392 1075 392 l 1114 369 q 1120 365 1117 368 q 1126 360 1124 361 q 1131 356 1128 358 q 1133 353 1132 356 q 1136 339 1136 349 q 1099 237 1136 297 q 998 115 1063 176 q 826 10 933 53 q 589 -33 719 -33 q 339 50 458 -33 q 219 264 219 133 q 260 439 219 358 q 363 569 301 519 q 496 658 424 618 q 629 717 568 697 q 772 769 772 764 q 756 792 772 781 q 672 948 672 849 q 784 1139 672 1047 q 1086 1231 896 1231 q 1231 1214 1154 1231 q 1381 1119 1381 1179 q 1365 1078 1381 1103 q 1340 1034 1350 1054 q 1325 1014 1331 1014 q 1314 1031 1319 1014 q 1228 1142 1297 1088 q 1063 1197 1160 1197 q 906 1178 967 1197 q 815 1131 843 1161 q 767 1024 767 1078 q 797 915 767 971 q 872 833 826 860 q 928 800 928 807 q 917 763 928 776 q 869 744 906 749 q 654 694 747 731 q 506 613 561 658 q 417 510 451 568 q 358 283 358 411 q 388 161 358 214 q 464 81 417 108 q 658 25 594 29 q 966 124 851 25 q 1081 347 1081 222 z "},"F":{"ha":1067,"x_min":197,"x_max":1586,"o":"m 1008 1153 q 753 617 942 971 q 1017 628 753 617 q 1022 625 1022 628 q 1000 600 1022 618 q 967 578 976 583 q 722 561 935 561 q 524 205 621 372 q 397 -3 426 38 q 353 -31 375 -31 q 217 -39 286 -39 l 206 -39 q 197 -31 197 -39 q 207 -25 197 -28 q 267 22 244 -11 q 603 558 424 240 q 360 531 422 558 q 343 525 347 525 q 339 528 339 525 q 436 592 339 550 q 502 606 450 597 q 633 614 554 614 q 889 1150 824 965 q 758 1145 850 1150 q 595 1129 665 1140 q 492 1106 525 1118 q 441 1083 460 1094 q 415 1065 422 1072 q 406 1058 408 1058 q 397 1067 397 1058 q 428 1106 397 1075 q 592 1184 486 1164 q 908 1208 697 1204 q 928 1317 928 1271 q 792 1481 928 1481 q 730 1472 753 1481 q 696 1460 707 1464 q 673 1447 685 1456 q 656 1433 661 1438 q 642 1421 653 1431 l 631 1411 q 608 1392 611 1392 q 600 1397 600 1392 q 622 1425 600 1403 q 814 1508 711 1508 q 1044 1303 1044 1508 q 1031 1211 1044 1256 q 1494 1242 1274 1215 q 1558 1247 1533 1247 l 1569 1247 q 1586 1242 1586 1247 q 1578 1233 1586 1238 q 1376 1173 1510 1188 q 1008 1153 1243 1158 z "},"G":{"ha":1542,"x_min":19,"x_max":1792,"o":"m 1019 -122 q 537 -237 676 -182 q 300 -393 397 -293 q 164 -601 203 -493 q 125 -828 125 -708 q 311 -1097 125 -1097 q 653 -861 518 -1097 q 1019 -122 807 -596 m 1450 1006 l 1453 1053 q 1413 1156 1453 1108 q 1300 1203 1372 1203 q 989 1094 1179 1203 q 650 836 799 985 q 439 546 529 718 q 347 236 349 374 q 399 66 347 129 q 544 3 451 3 q 783 78 636 3 q 1256 417 1025 203 q 1415 657 1304 465 q 1603 1022 1525 849 q 1637 1069 1622 1069 q 1695 1044 1651 1069 q 1739 997 1739 1019 q 1688 858 1739 951 q 1567 686 1636 765 q 1476 558 1510 619 q 1410 432 1443 496 q 1369 353 1378 368 l 1150 -69 q 1639 197 1417 7 q 1775 344 1732 279 q 1786 353 1781 353 q 1792 349 1792 353 q 1789 339 1792 344 q 1640 174 1714 239 q 1467 50 1565 108 q 1133 -97 1289 -53 q 1021 -334 1115 -133 q 850 -667 926 -535 q 688 -903 733 -853 q 597 -996 642 -954 q 511 -1062 553 -1037 q 308 -1122 410 -1122 q 99 -1028 178 -1122 q 19 -789 19 -933 q 71 -583 21 -682 q 203 -411 119 -485 q 575 -194 371 -261 q 1031 -94 700 -153 q 1267 364 1125 103 q 1057 203 1168 282 q 790 47 946 124 q 521 -31 633 -31 q 318 42 408 -31 q 228 250 228 115 q 275 476 228 356 q 826 1068 408 815 q 1333 1228 1092 1228 q 1459 1202 1388 1228 q 1531 1131 1531 1176 q 1517 1099 1531 1121 q 1497 1065 1503 1076 q 1486 1033 1492 1053 q 1467 997 1474 997 q 1450 1006 1450 997 z "},"H":{"ha":1450,"x_min":114,"x_max":1700,"o":"m 1367 50 q 1089 -33 1222 -33 q 974 6 1006 -33 q 942 100 942 46 q 1131 564 942 203 q 633 511 858 511 q 528 519 574 511 q 267 14 324 139 q 217 -7 257 -3 q 162 -15 178 -11 q 137 -23 146 -18 q 121 -28 128 -28 q 114 -21 114 -28 q 206 147 114 -14 l 447 569 q 436 611 436 592 q 456 643 436 631 q 494 656 476 656 q 689 1086 689 1001 q 663 1160 689 1128 q 576 1192 636 1192 q 465 1169 517 1192 q 353 1086 413 1146 q 339 1071 346 1079 q 322 1056 326 1056 q 314 1065 314 1056 q 344 1106 314 1075 q 631 1231 465 1231 q 756 1192 714 1231 q 797 1092 797 1153 q 779 1008 797 1053 q 747 934 761 964 q 722 883 733 904 q 691 823 711 861 q 657 760 671 785 q 578 614 608 672 q 826 561 683 561 q 1150 600 969 561 q 1464 1169 1253 792 q 1489 1190 1475 1186 q 1523 1199 1503 1194 q 1554 1206 1543 1203 q 1592 1219 1565 1208 q 1630 1231 1618 1231 q 1642 1222 1642 1231 q 1593 1146 1642 1206 l 1569 1117 q 1281 631 1461 954 q 1376 656 1358 649 q 1397 664 1393 664 q 1406 655 1406 664 q 1398 638 1406 646 q 1373 624 1390 631 q 1342 614 1356 618 q 1302 603 1329 610 q 1264 594 1275 597 q 1081 142 1081 235 q 1189 33 1081 33 q 1394 92 1300 33 q 1429 114 1411 103 q 1544 197 1474 142 q 1683 344 1600 244 q 1694 353 1689 353 q 1700 349 1700 353 q 1697 339 1700 344 q 1553 180 1624 240 q 1367 50 1482 119 z "},"I":{"ha":958,"x_min":106,"x_max":1314,"o":"m 783 1106 q 836 1226 836 1182 q 806 1294 836 1269 q 718 1319 775 1319 q 606 1287 661 1319 q 550 1186 550 1254 q 567 1143 550 1154 q 594 1126 583 1132 q 626 1116 606 1119 q 660 1110 646 1113 q 700 1107 675 1108 q 742 1106 728 1106 l 783 1106 m 231 319 q 203 217 203 286 q 262 78 203 149 q 394 8 321 8 q 527 78 467 8 q 653 289 588 149 q 1139 1125 876 758 q 977 1096 1093 1111 q 800 1078 861 1081 q 675 945 764 1032 q 514 797 586 858 q 483 775 492 775 q 475 781 475 775 q 507 816 475 790 q 629 934 539 842 q 761 1078 719 1026 q 472 1172 472 1078 q 533 1269 472 1225 q 663 1333 593 1313 q 783 1353 733 1353 q 900 1275 900 1353 q 822 1108 900 1229 q 1128 1161 1011 1118 q 1213 1180 1153 1171 q 1294 1189 1274 1189 q 1314 1181 1314 1189 q 1297 1166 1314 1178 q 1275 1147 1279 1154 q 1023 755 1125 932 q 789 311 921 578 q 336 -17 628 -17 q 176 40 247 -17 q 106 189 106 96 q 132 224 106 197 q 178 274 158 250 q 209 312 199 299 q 222 325 219 325 q 231 319 231 325 z "},"J":{"ha":978,"x_min":-464,"x_max":1306,"o":"m 489 -81 q 169 -186 278 -132 q -232 -488 -110 -331 q -356 -892 -354 -646 q -317 -1073 -356 -1007 q -204 -1139 -279 -1139 q -66 -1087 -129 -1139 q 64 -939 -3 -1036 q 233 -650 153 -806 q 356 -403 317 -494 q 489 -81 447 -189 m 1119 1161 q 1205 1180 1144 1171 q 1285 1189 1265 1189 q 1306 1181 1306 1189 q 1300 1172 1306 1176 l 1283 1161 q 1125 958 1250 1139 q 1063 857 1099 919 q 1010 767 1026 794 q 955 659 994 739 q 905 557 915 579 q 847 435 894 535 q 789 311 800 335 l 636 -14 q 892 72 808 28 q 1075 197 976 115 q 1211 344 1168 279 q 1222 353 1217 353 q 1228 349 1228 353 q 1225 339 1228 344 q 1074 170 1147 236 q 899 50 1000 104 q 617 -50 799 -4 q 128 -928 329 -646 q -253 -1178 -51 -1178 q -408 -1104 -353 -1178 q -464 -883 -464 -1031 q -317 -496 -464 -690 q -119 -307 -243 -399 q 153 -149 4 -215 q 506 -42 301 -83 q 653 289 578 139 q 1003 931 840 686 l 1131 1125 q 969 1096 1085 1111 q 792 1078 853 1081 q 667 945 756 1032 q 506 797 578 858 q 475 775 483 775 q 467 781 467 775 q 499 816 467 790 q 621 934 531 842 q 753 1078 711 1026 q 464 1172 464 1078 q 524 1269 464 1225 q 655 1333 585 1313 q 775 1353 725 1353 q 892 1275 892 1353 q 814 1108 892 1229 q 1119 1161 1003 1118 m 775 1106 q 828 1226 828 1182 q 797 1294 828 1269 q 710 1319 767 1319 q 597 1287 653 1319 q 542 1186 542 1254 q 558 1143 542 1154 q 586 1126 575 1132 q 617 1116 597 1119 q 652 1110 638 1113 q 692 1107 667 1108 q 733 1106 719 1106 l 775 1106 z "},"K":{"ha":1131,"x_min":39,"x_max":1544,"o":"m 514 622 l 550 686 q 486 664 507 675 q 514 622 496 646 m 344 625 l 317 619 q 306 631 306 619 q 575 733 306 643 q 694 1053 694 951 q 581 1192 694 1192 q 465 1169 517 1192 q 353 1086 413 1146 q 339 1071 346 1079 q 322 1056 326 1056 q 314 1065 314 1056 q 344 1106 314 1075 q 631 1231 465 1231 q 761 1191 714 1231 q 808 1092 808 1151 q 703 786 808 992 q 1116 984 894 872 q 1411 1150 1338 1096 q 1481 1193 1438 1169 q 1535 1217 1525 1217 q 1544 1211 1544 1217 q 1496 1159 1544 1201 q 1358 1058 1447 1117 q 1178 964 1268 1000 l 681 742 l 567 533 q 631 425 589 496 q 694 314 669 356 q 859 53 765 196 q 1007 -146 953 -90 q 1237 -256 1113 -256 q 1492 -156 1361 -256 q 1501 -150 1497 -150 q 1506 -153 1506 -150 q 1405 -240 1506 -193 q 1203 -286 1304 -286 q 953 -226 1046 -286 q 756 -6 861 -165 q 503 417 618 206 q 239 -3 346 138 q 219 -19 228 -14 q 58 -39 192 -39 q 39 -31 39 -39 q 47 -24 39 -28 q 111 22 86 -6 q 450 511 272 207 q 394 587 428 549 q 344 625 361 625 z "},"L":{"ha":1067,"x_min":131,"x_max":1747,"o":"m 669 1086 q 656 1071 663 1079 q 639 1056 643 1056 q 631 1065 631 1056 q 661 1106 631 1075 q 914 1231 781 1231 q 1010 1202 968 1231 q 1053 1106 1053 1174 q 898 712 1053 996 q 628 269 743 428 q 948 -162 708 28 q 1425 -353 1188 -353 q 1692 -253 1588 -353 q 1713 -227 1703 -242 q 1730 -205 1724 -212 q 1742 -197 1736 -197 q 1747 -206 1747 -197 q 1708 -275 1747 -229 q 1347 -422 1583 -422 q 1006 -342 1175 -422 q 831 -228 911 -297 q 679 -51 750 -160 q 567 192 608 57 q 397 32 489 97 q 217 -33 304 -33 q 131 22 131 -33 q 199 185 131 86 q 360 357 268 283 q 511 431 451 431 q 606 331 564 431 q 857 796 769 589 q 944 1078 944 1003 q 872 1178 944 1178 q 669 1086 761 1178 m 550 247 q 514 324 538 293 q 464 356 490 356 q 300 259 386 356 q 214 78 214 163 q 228 40 214 56 q 267 25 242 25 q 410 83 344 25 q 550 247 475 142 z "},"M":{"ha":1625,"x_min":39,"x_max":2028,"o":"m 744 981 q 849 1083 808 1046 q 956 1160 889 1121 q 1078 1200 1022 1200 q 1239 1000 1239 1200 q 1496 1188 1376 1126 q 1683 1250 1615 1250 q 1798 1217 1751 1250 q 1844 1126 1844 1185 q 1798 983 1844 1068 q 1685 802 1751 899 q 1553 595 1619 706 q 1441 340 1488 485 q 1394 68 1394 194 q 1421 -139 1394 -58 q 1492 -264 1447 -219 q 1703 -353 1581 -353 q 1986 -200 1863 -353 q 2001 -181 1994 -190 q 2010 -167 2007 -171 q 2014 -161 2011 -164 q 2022 -156 2017 -157 q 2028 -169 2028 -156 q 1999 -224 2028 -182 q 1923 -310 1969 -265 q 1803 -387 1876 -354 q 1656 -419 1731 -419 q 1386 -314 1492 -419 q 1281 -17 1281 -208 q 1326 260 1281 121 q 1435 510 1371 400 q 1564 718 1500 619 q 1719 1072 1719 954 q 1681 1156 1719 1129 q 1597 1183 1643 1183 l 1589 1183 q 1442 1125 1524 1181 q 1222 931 1361 1069 q 1178 840 1194 864 q 1113 790 1161 817 q 1049 764 1064 764 q 1033 769 1033 764 q 1117 878 1033 794 q 1128 959 1128 907 q 1115 1049 1128 1011 q 1081 1104 1103 1088 q 998 1133 1043 1133 q 854 1040 953 1133 q 683 844 756 947 q 419 358 571 661 q 215 -22 238 -6 q 58 -39 192 -39 q 39 -31 39 -39 q 49 -25 39 -28 q 107 15 88 -11 q 143 67 126 42 q 172 112 160 92 q 205 168 185 132 q 235 222 225 204 q 268 284 244 239 q 315 373 292 329 q 410 545 339 417 q 511 728 481 674 q 578 861 539 783 q 644 1061 644 997 q 618 1153 644 1125 q 550 1181 592 1181 q 353 1086 447 1181 q 322 1058 325 1058 q 314 1067 314 1058 q 344 1106 314 1075 q 479 1200 406 1169 q 603 1231 553 1231 q 724 1192 685 1231 q 764 1094 764 1153 q 744 981 764 1035 z "},"N":{"ha":1264,"x_min":119,"x_max":1708,"o":"m 986 50 q 938 -13 969 7 q 881 -33 907 -33 q 825 100 825 -33 l 831 1056 q 829 1113 831 1103 q 822 1122 828 1122 q 781 1072 806 1122 l 242 50 q 189 0 225 17 q 147 -30 158 -15 q 128 -44 136 -44 q 119 -39 119 -44 q 128 -14 119 -33 q 236 317 236 226 q 214 408 236 408 q 195 401 207 408 q 178 394 183 394 q 172 403 172 394 l 217 431 q 233 442 224 435 q 264 456 253 456 q 294 442 275 456 q 333 344 333 414 l 761 1131 q 813 1188 778 1165 q 900 1211 849 1211 q 947 1128 947 1211 l 939 103 q 1200 635 985 217 q 1478 1114 1415 1054 q 1600 1206 1553 1189 q 1644 1214 1621 1214 q 1688 1203 1667 1214 q 1708 1182 1708 1193 q 1688 1153 1708 1171 q 1646 1114 1667 1133 q 1599 1075 1600 1074 q 1592 1083 1592 1075 q 1582 1100 1592 1092 q 1558 1108 1572 1108 q 1486 1061 1518 1108 q 1210 551 1376 901 q 986 50 1044 200 z "},"O":{"ha":1333,"x_min":214,"x_max":1486,"o":"m 1381 1233 q 1453 1110 1421 1233 q 1486 859 1486 986 q 1429 591 1486 732 q 1279 340 1372 450 q 1073 144 1186 229 q 840 13 960 58 q 617 -33 721 -33 q 423 9 514 -33 q 273 140 332 51 q 214 353 214 228 q 281 636 214 478 q 731 1144 431 988 q 1067 1231 894 1231 q 1221 1183 1142 1231 q 1300 1081 1300 1135 q 1288 1053 1300 1072 q 1269 1024 1275 1033 q 1258 997 1267 1014 q 1236 967 1243 967 q 1222 981 1222 967 q 1200 1080 1222 1038 q 1143 1143 1178 1122 q 1008 1183 1076 1183 q 494 881 697 1183 q 328 425 328 633 q 418 154 328 258 q 656 50 508 50 q 1006 160 833 50 q 1290 451 1179 269 q 1400 825 1400 632 q 1387 945 1400 896 q 1364 1025 1374 994 q 1344 1079 1354 1056 q 1326 1120 1335 1103 q 1308 1158 1318 1138 q 1337 1200 1308 1167 q 1381 1233 1365 1233 z "},"P":{"ha":1167,"x_min":92,"x_max":1408,"o":"m 506 506 q 876 621 708 558 q 1167 791 1043 683 q 1292 1000 1292 899 q 1251 1107 1292 1061 q 1139 1153 1211 1153 q 506 506 857 1153 m 525 882 l 489 881 q 475 891 475 881 q 558 919 475 901 q 659 936 640 936 q 678 924 678 936 q 581 717 678 911 q 703 903 635 815 q 956 1135 815 1040 q 1217 1231 1097 1231 q 1355 1185 1301 1231 q 1408 1066 1408 1140 q 1372 929 1408 992 q 1283 818 1336 867 q 1158 724 1231 769 q 898 592 1032 644 q 494 461 764 540 q 278 6 322 117 q 254 -10 272 -8 q 203 -14 236 -12 q 151 -23 171 -15 q 121 -37 131 -31 q 101 -44 111 -44 q 92 -38 92 -44 q 100 -17 92 -32 q 122 19 108 -3 q 315 344 265 253 q 397 497 365 436 q 451 600 429 557 q 503 703 474 643 q 564 861 564 828 q 525 882 564 882 z "},"Q":{"ha":1333,"x_min":214,"x_max":1842,"o":"m 1325 -517 q 1032 -390 1164 -517 q 811 3 900 -262 q 608 -33 703 -33 q 423 9 514 -33 q 273 140 332 51 q 214 353 214 228 q 281 636 214 478 q 731 1144 431 988 q 1067 1231 894 1231 q 1221 1183 1142 1231 q 1300 1081 1300 1135 q 1288 1053 1300 1072 q 1269 1024 1275 1033 q 1258 997 1267 1014 q 1236 967 1243 967 q 1222 981 1222 967 q 1200 1080 1222 1038 q 1143 1143 1178 1122 q 1008 1183 1076 1183 q 494 881 697 1183 q 328 425 328 633 q 418 154 328 258 q 656 50 508 50 q 792 67 725 50 q 731 517 731 303 q 771 549 731 525 q 824 572 811 572 q 836 567 836 572 q 828 356 828 479 q 858 89 828 233 q 1241 380 1082 171 q 1400 825 1400 589 q 1387 945 1400 896 q 1364 1025 1374 994 q 1344 1079 1354 1056 q 1326 1120 1335 1103 q 1308 1158 1318 1138 q 1337 1200 1308 1167 q 1381 1233 1365 1233 q 1453 1110 1421 1233 q 1486 861 1486 986 q 1433 600 1486 736 q 1293 356 1381 464 q 875 28 1111 131 q 1065 -309 926 -174 q 1392 -444 1203 -444 q 1668 -354 1550 -444 q 1803 -186 1786 -264 q 1822 -161 1808 -161 q 1842 -178 1842 -161 q 1824 -222 1842 -187 q 1764 -306 1806 -256 q 1665 -403 1722 -357 q 1518 -483 1608 -450 q 1325 -517 1428 -517 z "},"R":{"ha":1083,"x_min":114,"x_max":1467,"o":"m 439 575 l 453 603 q 425 597 453 603 q 439 575 431 589 m 597 664 q 965 772 836 717 q 1099 840 1033 803 q 1203 926 1165 878 q 1242 1028 1242 974 q 1199 1129 1242 1083 q 1081 1175 1157 1175 q 897 1106 978 1175 q 821 1030 856 1069 q 744 924 786 990 q 597 664 683 826 m 173 -23 q 163 -27 173 -23 q 143 -37 153 -31 q 124 -44 133 -44 q 114 -36 114 -44 q 140 8 114 -31 q 169 53 165 46 q 321 342 263 224 q 414 525 379 460 q 375 617 375 603 q 472 639 375 621 q 628 908 567 818 q 881 1143 721 1056 q 1178 1231 1040 1231 q 1299 1191 1253 1231 q 1344 1081 1344 1151 q 1164 826 1344 939 q 578 628 983 714 l 500 478 l 808 -31 q 978 -265 897 -190 q 1169 -339 1060 -339 q 1403 -219 1318 -339 q 1444 -200 1422 -200 q 1467 -211 1467 -200 l 1467 -219 q 1117 -369 1307 -369 q 825 -219 926 -369 q 633 120 764 -128 q 469 422 501 368 q 365 173 419 318 q 302 10 310 28 q 276 -10 294 -8 q 226 -14 258 -12 q 173 -23 193 -15 z "},"S":{"ha":1044,"x_min":106,"x_max":1250,"o":"m 106 189 q 132 224 106 197 q 178 274 158 250 q 209 312 199 299 q 222 325 219 325 q 231 319 231 325 l 218 300 q 206 264 206 281 q 227 160 206 206 q 281 87 249 114 q 356 42 314 60 q 506 11 426 11 q 766 113 665 11 q 867 317 867 214 q 767 557 867 428 q 681 664 725 611 q 581 883 581 789 q 656 1060 581 978 q 837 1186 732 1142 q 1036 1231 942 1231 q 1219 1150 1150 1231 q 1250 1103 1250 1114 q 1240 1083 1250 1092 q 1194 1049 1225 1071 q 1158 1028 1163 1028 q 1153 1036 1153 1028 q 1094 1128 1153 1086 q 947 1169 1035 1169 q 750 1101 822 1169 q 678 944 678 1032 q 785 732 678 856 q 874 628 829 681 q 981 394 981 501 q 889 181 981 286 q 665 14 797 75 q 411 -47 533 -47 q 268 -25 331 -47 q 172 36 206 0 q 106 189 106 108 z "},"T":{"ha":1011,"x_min":197,"x_max":1531,"o":"m 397 -3 q 378 -19 386 -14 q 217 -39 351 -37 q 197 -31 197 -39 q 207 -25 197 -28 q 267 22 244 -11 q 608 564 413 215 q 883 1150 804 913 q 408 1106 531 1150 q 338 1072 351 1085 q 322 1058 325 1058 q 314 1067 314 1058 q 344 1106 314 1075 q 508 1183 403 1164 q 903 1208 614 1203 q 925 1334 925 1293 q 919 1399 925 1375 q 900 1451 914 1422 q 764 1511 869 1511 q 614 1475 690 1511 q 583 1453 611 1474 q 543 1433 556 1433 q 531 1442 531 1433 q 600 1492 531 1461 q 778 1533 688 1533 q 976 1469 908 1533 q 1044 1294 1044 1406 q 1028 1211 1044 1265 q 1471 1242 1315 1219 q 1492 1244 1485 1244 q 1503 1246 1499 1244 q 1511 1247 1508 1247 l 1514 1247 q 1531 1243 1531 1247 q 1522 1233 1531 1239 q 1322 1173 1454 1188 q 1008 1153 1189 1158 q 699 519 924 932 q 397 -3 474 107 z "},"U":{"ha":1411,"x_min":281,"x_max":1661,"o":"m 631 1231 q 762 1192 715 1231 q 808 1099 808 1153 q 767 958 808 1046 q 668 769 726 869 q 551 569 610 669 q 411 219 411 328 q 456 88 411 132 q 571 44 501 44 q 718 81 640 44 q 869 178 797 117 q 1108 419 999 286 q 1325 856 1250 724 q 1497 1111 1400 989 q 1611 1192 1563 1192 q 1628 1181 1628 1192 q 1353 697 1628 1114 q 1317 644 1319 647 q 1180 371 1254 550 q 1106 100 1106 192 q 1124 56 1106 71 q 1194 42 1142 42 q 1334 89 1246 42 q 1485 188 1422 136 q 1591 283 1549 239 q 1644 344 1633 326 q 1656 353 1650 353 q 1661 349 1661 353 q 1658 339 1661 344 q 1497 173 1576 239 q 1308 48 1418 107 q 1100 -11 1197 -11 q 1024 17 1049 -11 q 1000 89 1000 44 q 1064 306 1000 161 q 936 188 983 229 q 808 89 886 146 q 508 -22 656 -22 q 344 36 407 -22 q 281 194 281 94 q 344 408 281 268 q 486 678 408 550 q 692 1083 692 1017 q 581 1192 692 1192 q 465 1169 517 1192 q 369 1102 413 1146 q 319 1058 325 1058 q 314 1067 314 1058 q 344 1106 314 1075 q 631 1231 465 1231 z "},"V":{"ha":1164,"x_min":256,"x_max":1658,"o":"m 503 225 q 1178 939 778 603 q 1608 1231 1436 1157 q 1647 1242 1636 1242 q 1658 1233 1658 1242 q 1603 1202 1658 1231 q 1518 1156 1549 1174 q 1392 1068 1488 1139 q 1189 903 1296 997 q 492 129 769 529 q 474 103 479 111 q 462 87 468 96 q 453 74 456 78 q 449 67 451 71 q 444 60 446 63 q 440 53 443 57 q 428 31 435 44 q 412 11 421 18 q 394 -1 403 4 q 372 -12 386 -6 l 353 -22 q 275 -47 294 -47 q 256 -28 256 -47 q 278 40 256 -8 q 339 151 301 88 q 386 236 376 215 q 642 1044 642 769 q 617 1147 642 1113 q 550 1181 592 1181 q 353 1086 447 1181 q 322 1058 325 1058 q 314 1067 314 1058 q 344 1106 314 1075 q 479 1200 406 1169 q 603 1231 553 1231 q 724 1174 683 1231 q 764 1042 764 1118 q 503 225 764 806 z "},"W":{"ha":1669,"x_min":97,"x_max":1736,"o":"m 614 1233 q 789 1078 789 1233 q 755 942 789 1017 q 695 817 721 867 q 617 676 669 768 q 521 513 564 585 q 250 56 394 301 q 658 369 439 240 q 881 450 796 450 q 945 439 928 450 q 968 424 963 428 q 980 410 974 419 q 989 397 986 401 q 996 382 992 393 q 1001 368 1000 371 q 1012 330 1001 365 q 1036 234 1022 294 q 1058 138 1050 174 q 1079 61 1065 101 q 1110 0 1093 22 q 1232 -50 1147 -50 q 1393 3 1317 -50 q 1514 134 1469 57 q 1589 303 1558 211 q 1639 583 1639 460 q 1586 890 1639 736 q 1510 1049 1556 979 q 1388 1167 1465 1119 q 1213 1214 1311 1214 q 1053 1175 1114 1214 q 1015 1164 1035 1164 q 994 1178 994 1164 q 1019 1206 990 1190 q 1222 1242 1104 1242 q 1432 1202 1339 1242 q 1581 1101 1525 1163 q 1672 956 1636 1039 q 1736 633 1736 813 q 1653 249 1736 425 q 1547 83 1608 156 q 1394 -33 1486 11 q 1211 -78 1303 -78 q 1204 -78 1208 -78 q 1067 -56 1117 -78 q 985 -11 1014 -33 q 931 73 956 11 q 898 167 906 135 q 881 249 890 199 q 867 322 872 300 q 809 375 856 375 q 662 317 763 375 q 476 194 561 260 q 303 59 390 129 q 211 -14 215 -11 q 114 -33 181 -33 q 97 -11 97 -33 q 124 50 97 -3 q 288 341 151 103 q 471 658 425 579 q 556 808 517 738 q 629 961 594 879 q 664 1083 664 1043 q 635 1151 664 1122 q 550 1181 606 1181 q 353 1086 447 1181 q 322 1058 325 1058 q 314 1067 314 1058 q 344 1106 314 1075 q 481 1202 407 1171 q 614 1233 556 1233 z "},"X":{"ha":1236,"x_min":-28,"x_max":1681,"o":"m 38 87 q 44 93 38 87 q 58 107 50 100 q 71 114 67 114 q 81 106 75 114 q 94 86 86 97 q 191 58 115 58 q 306 89 267 58 q 517 268 393 140 q 797 572 638 394 q 751 972 769 889 q 636 1156 717 1139 q 611 1158 625 1158 q 475 1086 547 1158 q 444 1058 447 1058 q 436 1067 436 1058 q 467 1106 436 1075 q 683 1231 583 1231 q 794 1178 747 1231 q 856 1032 828 1142 q 903 689 879 943 q 1181 978 1074 876 q 1372 1142 1288 1081 q 1594 1231 1514 1231 q 1647 1219 1625 1231 q 1681 1183 1681 1204 q 1677 1171 1681 1175 q 1662 1158 1674 1167 q 1642 1142 1650 1149 q 1617 1117 1635 1135 q 1588 1089 1600 1100 q 1569 1078 1575 1078 q 1564 1082 1564 1078 q 1569 1094 1564 1086 q 1575 1117 1575 1101 q 1553 1148 1575 1132 q 1501 1164 1532 1164 q 1448 1153 1469 1164 q 1386 1108 1426 1143 q 908 622 1236 986 q 992 75 947 188 q 1206 -81 1051 -81 q 1342 -36 1297 -81 q 1367 -17 1361 -17 q 1378 -29 1378 -17 q 1343 -69 1378 -42 q 1243 -122 1308 -97 q 1111 -147 1178 -147 q 869 58 929 -147 q 803 503 833 185 q 317 61 515 176 q 81 -11 185 -11 q -12 14 31 -11 q -28 28 -28 22 q -1 53 -28 33 q 38 87 26 74 z "},"Y":{"ha":1411,"x_min":-311,"x_max":1661,"o":"m 808 -233 q 278 -537 461 -407 q -40 -825 67 -689 q -137 -988 -99 -900 q -175 -1151 -175 -1076 q -47 -1300 -175 -1300 q 483 -842 235 -1300 q 808 -233 714 -429 m 1311 644 q 1117 249 1235 519 q 939 -133 999 -22 q 1497 197 1264 19 q 1591 283 1549 239 q 1644 344 1633 326 q 1656 353 1650 353 q 1661 349 1661 353 q 1658 339 1661 344 q 1492 167 1575 235 q 1249 2 1410 99 q 914 -181 1088 -94 q 550 -831 799 -411 q 294 -1156 444 -1006 q 111 -1290 211 -1239 q -94 -1342 11 -1342 q -255 -1291 -199 -1342 q -311 -1153 -311 -1240 q -265 -976 -311 -1067 q -149 -807 -219 -885 q 26 -647 -79 -729 q 228 -503 132 -564 q 449 -374 325 -442 q 833 -181 615 -282 l 1064 306 q 843 107 904 156 q 525 -22 674 -22 q 360 33 422 -22 q 297 189 297 89 q 359 406 297 264 q 496 676 421 547 q 694 1083 694 1018 q 666 1162 694 1132 q 577 1192 638 1192 q 465 1169 517 1192 q 353 1086 413 1146 q 339 1071 346 1079 q 322 1056 326 1056 q 314 1065 314 1056 q 344 1106 314 1075 q 631 1231 465 1231 q 760 1191 714 1231 q 806 1092 806 1151 q 617 694 806 1024 q 487 432 546 571 q 428 210 428 293 q 472 86 428 128 q 589 44 517 44 q 1108 419 797 44 q 1183 580 1136 479 q 1247 719 1229 681 q 1298 825 1265 757 q 1347 923 1331 893 q 1389 997 1364 953 q 1467 1115 1431 1071 q 1511 1167 1503 1158 q 1560 1192 1536 1192 q 1583 1181 1583 1192 q 1474 929 1583 1131 q 1311 644 1365 728 z "},"Z":{"ha":1158,"x_min":72,"x_max":1619,"o":"m 747 1197 q 910 1167 781 1197 q 1108 1136 1039 1136 q 1229 1142 1178 1136 q 1300 1157 1281 1149 q 1372 1178 1347 1178 q 1413 1167 1396 1178 q 1431 1150 1431 1157 q 1430 1141 1431 1143 q 1426 1135 1429 1139 q 1419 1129 1424 1132 q 1406 1120 1415 1126 q 1386 1106 1397 1114 q 1317 1047 1351 1079 l 306 117 q 440 125 376 125 q 594 94 503 125 q 768 17 686 63 q 933 -72 850 -28 q 1292 -181 1132 -181 q 1494 -131 1411 -181 q 1578 -42 1578 -81 q 1586 -28 1578 -28 q 1606 -56 1592 -28 q 1619 -92 1619 -83 q 1542 -193 1597 -146 q 1476 -231 1517 -214 q 1386 -247 1435 -247 q 1140 -202 1276 -247 q 895 -103 1003 -157 q 663 -3 788 -49 q 454 42 539 42 q 310 30 369 42 q 219 6 251 18 q 172 -6 188 -6 q 128 8 156 -6 q 90 24 101 21 q 75 27 78 26 q 72 33 72 28 q 97 64 72 39 l 1250 1106 q 1063 1086 1157 1086 q 865 1113 968 1086 q 667 1139 761 1139 q 517 1086 574 1139 q 486 1058 489 1058 q 478 1067 478 1058 q 508 1106 478 1075 q 747 1197 597 1197 z "},"[":{"ha":750,"x_min":61,"x_max":1297,"o":"m 506 -175 q 533 -186 533 -175 q 506 -197 533 -197 l 75 -197 q 61 -186 61 -197 q 92 -120 61 -181 q 128 -53 124 -60 l 858 1336 q 914 1408 892 1408 l 1283 1408 q 1297 1400 1297 1408 q 1269 1386 1297 1386 q 1081 1371 1179 1386 q 969 1331 983 1356 l 233 -64 q 208 -125 208 -114 q 249 -147 208 -136 q 506 -175 342 -175 z "},"\\":{"ha":494,"x_min":67,"x_max":656,"o":"m 67 1478 q 85 1494 67 1482 q 114 1506 103 1506 l 117 1506 l 656 -161 q 636 -178 656 -165 q 611 -192 617 -192 l 608 -189 l 67 1478 z "},"]":{"ha":750,"x_min":-150,"x_max":1086,"o":"m 642 1386 q 614 1397 614 1386 q 642 1408 614 1408 l 1072 1408 q 1086 1397 1086 1408 q 1055 1331 1086 1392 q 1019 1264 1024 1271 l 289 -125 q 233 -197 256 -197 l -136 -197 q -150 -189 -150 -197 q -122 -175 -150 -175 q 66 -160 -32 -175 q 178 -119 164 -144 l 914 1275 q 939 1336 939 1325 q 899 1358 939 1347 q 642 1386 806 1386 z "},"^":{"ha":703,"x_min":303,"x_max":933,"o":"m 606 1189 q 642 1218 614 1203 q 678 1233 671 1233 q 686 1217 679 1233 q 799 997 736 1099 q 897 849 861 896 q 933 800 933 801 q 901 772 933 789 q 856 756 868 756 q 625 1150 714 953 q 378 806 488 976 q 344 781 374 797 q 308 764 314 764 q 303 767 303 764 q 306 771 303 769 q 606 1189 374 839 z "},"_":{"ha":881,"x_min":-56,"x_max":903,"o":"m 836 -139 l -44 -139 q -56 -135 -56 -139 q -54 -129 -56 -131 q -51 -127 -53 -128 q -45 -123 -49 -126 q -35 -107 -42 -119 q 14 -83 -22 -83 l 894 -83 q 903 -98 903 -83 q 881 -126 903 -112 q 836 -139 860 -139 z "},"`":{"ha":350,"x_min":392,"x_max":572,"o":"m 563 781 q 565 777 563 781 q 569 768 567 774 q 572 760 572 763 q 564 758 572 758 q 550 769 556 758 q 394 1025 550 769 q 392 1044 392 1028 q 400 1077 392 1060 q 420 1094 408 1094 q 439 1081 432 1094 l 558 792 q 563 781 560 789 z "},"a":{"ha":850,"x_min":86,"x_max":1100,"o":"m 603 233 q 744 422 744 375 q 733 433 744 433 q 603 233 706 433 m 575 608 q 397 531 488 608 q 250 344 306 453 q 194 142 194 236 q 272 47 194 47 q 464 125 358 47 q 583 350 493 228 q 722 489 667 468 q 575 608 675 608 m 569 642 q 744 494 703 642 q 781 464 781 494 q 768 402 781 426 q 749 366 756 378 q 728 336 743 354 q 706 311 711 318 q 586 192 649 247 q 564 94 564 119 q 657 36 564 36 q 888 147 750 36 q 1083 344 1026 258 q 1094 353 1089 353 q 1100 349 1100 353 q 1097 339 1100 344 q 948 174 1022 239 q 766 46 874 108 q 569 -17 658 -17 q 458 72 458 -17 q 460 85 458 76 q 461 97 461 93 q 203 0 304 0 q 86 142 86 0 q 159 362 86 244 q 347 560 232 479 q 569 642 461 642 z "},"b":{"ha":919,"x_min":167,"x_max":1411,"o":"m 392 486 q 292 200 292 318 q 338 78 292 129 q 454 28 383 28 q 620 101 525 28 q 781 291 715 175 q 847 517 847 407 q 808 609 847 582 q 722 636 768 636 q 392 486 600 636 m 456 747 q 171 544 172 543 q 167 550 167 544 q 175 561 167 556 q 475 783 426 743 l 717 1242 q 781 1363 733 1272 q 850 1492 829 1454 q 917 1606 871 1531 q 997 1724 961 1681 q 1192 1911 1097 1846 q 1364 1983 1288 1983 q 1400 1963 1389 1983 q 1411 1922 1411 1942 q 1204 1435 1411 1692 q 1072 1282 1135 1349 q 917 1131 1011 1215 q 592 856 800 1025 l 414 528 q 811 692 649 692 q 903 658 865 692 q 942 567 942 624 q 886 376 942 482 q 748 181 831 269 q 564 33 665 93 q 378 -28 463 -28 q 242 26 294 -28 q 189 167 189 79 q 233 351 189 256 q 456 747 278 446 m 614 900 q 813 1072 728 994 q 995 1253 899 1149 q 1154 1449 1092 1357 q 1258 1651 1217 1542 q 1300 1861 1300 1760 q 1290 1901 1300 1885 q 1264 1917 1281 1917 q 1078 1738 1201 1917 q 817 1294 954 1560 l 614 900 z "},"c":{"ha":650,"x_min":94,"x_max":900,"o":"m 360 518 q 326 480 360 518 q 246 340 292 442 q 200 163 200 238 q 233 46 200 89 q 353 3 265 3 q 549 61 440 3 q 749 199 658 119 q 883 344 840 279 q 894 353 889 353 q 900 349 900 353 q 897 339 900 344 q 758 189 838 260 q 300 -31 514 -31 q 153 8 211 -31 q 94 131 94 47 q 149 317 94 217 q 276 487 201 415 q 430 604 350 558 q 555 650 510 650 q 619 628 600 650 q 639 574 639 606 q 631 531 639 543 q 590 503 622 519 q 550 486 558 486 q 542 489 542 486 q 543 494 542 492 q 547 531 547 506 q 526 575 547 556 q 483 594 506 594 q 360 518 428 594 z "},"d":{"ha":947,"x_min":86,"x_max":1636,"o":"m 736 453 l 661 297 q 1003 710 803 453 q 1294 1118 1204 967 q 1480 1478 1385 1269 q 1575 1769 1575 1686 q 1550 1808 1575 1808 q 1431 1732 1501 1808 q 1288 1536 1360 1656 q 1072 1142 1161 1325 l 750 478 q 753 456 753 467 q 744 444 753 444 q 736 453 740 444 m 697 539 q 570 608 653 608 q 397 531 488 608 q 250 344 306 453 q 194 142 194 236 q 272 47 194 47 q 536 181 376 47 q 697 539 560 265 m 711 569 l 975 1100 q 1140 1415 1097 1350 q 1227 1547 1182 1481 q 1311 1654 1272 1613 q 1508 1819 1418 1767 q 1586 1847 1556 1847 q 1636 1778 1636 1847 q 1554 1445 1636 1619 q 1333 1072 1472 1271 q 1002 653 1239 935 q 644 250 765 371 q 617 125 617 179 q 715 36 617 36 q 955 147 814 36 q 1153 344 1096 257 q 1164 353 1158 353 q 1169 349 1169 353 q 1167 339 1169 344 q 1017 174 1092 239 q 841 49 943 108 q 667 -11 739 -11 q 560 22 596 -11 q 525 108 525 54 q 531 156 525 133 q 203 0 343 0 q 86 142 86 0 q 159 362 86 244 q 347 560 232 479 q 561 642 461 642 q 711 569 661 642 z "},"e":{"ha":603,"x_min":36,"x_max":853,"o":"m 94 178 l 39 133 q 36 139 36 133 q 46 154 36 144 q 100 197 56 164 q 196 386 132 297 q 326 530 260 475 q 453 616 393 585 q 547 647 513 647 q 619 592 619 647 q 604 549 619 571 q 548 496 589 528 q 470 438 507 464 q 353 358 433 413 q 217 264 274 304 q 192 133 192 193 q 224 43 192 72 q 334 14 257 14 q 512 68 411 14 q 703 201 613 122 q 836 344 793 279 q 847 353 842 353 q 853 349 853 353 q 850 339 853 344 q 478 28 696 139 q 272 -22 372 -22 q 83 108 83 -22 q 94 178 83 128 m 228 289 q 461 472 392 407 q 531 572 531 536 q 500 608 531 608 q 354 510 432 608 q 228 289 276 413 z "},"f":{"ha":556,"x_min":-1228,"x_max":1600,"o":"m 106 92 q -900 -778 -611 -436 q -1037 -956 -993 -889 q -1107 -1090 -1082 -1024 q -1135 -1183 -1132 -1156 q -1139 -1245 -1139 -1210 q -1132 -1332 -1139 -1281 q -1110 -1445 -1125 -1383 q -1064 -1549 -1096 -1507 q -989 -1592 -1032 -1592 q -815 -1505 -929 -1592 q -647 -1333 -700 -1418 q -272 -635 -532 -1154 q 106 92 -11 -115 m 731 561 q 747 569 743 569 q 750 564 750 569 q 742 553 750 558 q 272 219 650 496 q -625 -1381 -525 -1261 q -862 -1581 -725 -1501 q -1051 -1661 -999 -1661 q -1139 -1617 -1103 -1661 q -1194 -1506 -1176 -1575 q -1228 -1239 -1228 -1379 q -1094 -906 -1228 -1086 q -953 -733 -1028 -817 q -772 -553 -879 -649 q -577 -383 -664 -457 q -370 -219 -490 -310 q -178 -76 -250 -128 q -1 52 -107 -24 q 136 150 106 128 q 544 942 249 385 q 983 1714 840 1500 q 1238 2011 1126 1928 q 1478 2094 1349 2094 q 1553 2064 1522 2094 q 1600 1953 1600 2014 q 1586 1853 1600 1892 q 1539 1761 1572 1815 q 1485 1719 1528 1739 q 1453 1710 1461 1710 q 1449 1713 1449 1710 q 1450 1717 1449 1714 q 1494 1805 1482 1768 q 1506 1897 1506 1842 q 1472 1996 1506 1953 q 1394 2039 1439 2039 q 1308 2021 1349 2039 q 1217 1951 1267 2003 q 1122 1833 1168 1899 q 1006 1643 1075 1767 q 689 1047 874 1411 l 294 264 l 731 561 z "},"g":{"ha":806,"x_min":-1142,"x_max":842,"o":"m 756 447 q 663 561 718 514 q 541 608 607 608 q 394 535 475 608 q 252 347 313 463 q 192 128 192 232 q 215 72 192 96 q 272 47 239 47 q 658 292 422 47 q 756 447 690 324 m -221 -1275 q -451 -1425 -322 -1369 q -701 -1481 -581 -1481 q -917 -1437 -822 -1481 q -1076 -1303 -1011 -1393 q -1142 -1093 -1142 -1212 q -1093 -863 -1142 -974 q -962 -667 -1044 -753 q -770 -505 -879 -581 q -542 -372 -661 -429 q -300 -265 -422 -314 q 136 -117 -117 -193 q 162 -111 143 -111 q 181 -125 181 -111 q 151 -149 181 -139 q 27 -188 122 -160 q -138 -240 -68 -217 q -340 -312 -208 -262 q -554 -406 -472 -362 q -740 -519 -636 -449 q -903 -661 -844 -589 q -1005 -832 -962 -733 q -1047 -1039 -1047 -931 q -928 -1315 -1047 -1203 q -650 -1428 -810 -1428 q -319 -1275 -490 -1428 q -14 -881 -149 -1122 q 639 247 303 -315 q 421 72 543 144 q 197 0 299 0 q 86 144 86 0 q 157 358 86 240 q 336 560 228 476 q 539 644 444 644 q 764 461 681 644 l 772 478 q 811 511 788 506 q 828 518 822 514 q 839 522 833 522 q 842 514 842 522 q 836 500 842 506 q 783 414 831 494 q 792 388 792 397 q 786 378 792 378 l 775 400 l 92 -869 q -221 -1275 -35 -1101 z "},"h":{"ha":931,"x_min":72,"x_max":1411,"o":"m 614 900 q 813 1072 728 994 q 995 1253 899 1149 q 1154 1449 1092 1357 q 1258 1651 1217 1542 q 1300 1861 1300 1760 q 1290 1901 1300 1885 q 1264 1917 1281 1917 q 1078 1738 1201 1917 q 817 1294 954 1560 l 614 900 m 456 747 q 171 544 172 543 q 167 550 167 544 q 175 561 167 556 q 475 783 426 743 l 717 1242 q 771 1346 729 1265 q 830 1457 813 1426 q 885 1556 847 1488 q 951 1660 924 1624 q 1019 1749 979 1697 q 1192 1911 1092 1840 q 1364 1983 1288 1983 q 1400 1963 1389 1983 q 1411 1922 1411 1942 q 1204 1435 1411 1692 q 1072 1282 1135 1349 q 917 1131 1011 1215 q 592 856 800 1025 l 394 458 q 524 571 453 517 q 635 649 596 625 q 797 706 729 706 q 869 674 842 706 q 897 587 897 642 q 850 441 897 532 q 756 253 803 350 q 708 83 708 156 q 750 36 708 36 q 880 87 796 36 q 1045 208 964 138 q 1169 344 1126 279 q 1181 353 1175 353 q 1186 349 1186 353 q 1183 339 1186 344 q 1034 174 1108 239 q 858 49 960 108 q 689 -11 756 -11 q 594 92 594 -11 q 646 261 594 158 q 749 456 697 364 q 800 579 800 547 q 783 631 800 611 q 739 650 767 650 q 539 540 665 650 q 364 356 413 429 q 186 8 210 126 q 158 -3 183 -3 q 117 -7 133 -3 q 97 -11 100 -11 q 72 8 72 -11 q 132 140 72 22 q 239 344 192 258 q 456 747 407 665 z "},"i":{"ha":519,"x_min":122,"x_max":769,"o":"m 186 553 q 170 544 174 544 q 167 550 167 544 q 175 561 167 556 q 328 622 264 622 q 422 536 422 622 q 375 423 422 506 q 281 250 328 340 q 233 108 233 160 q 331 36 233 36 q 455 81 378 36 q 590 174 532 125 q 693 271 649 222 q 748 336 738 319 q 764 353 758 353 q 769 349 769 353 q 767 339 769 344 q 617 175 699 247 q 422 40 528 90 q 254 -11 317 -11 q 157 17 192 -11 q 122 100 122 44 q 174 250 122 156 q 276 426 225 344 q 328 534 328 507 q 316 576 328 561 q 286 592 304 592 q 186 553 244 592 m 497 925 q 525 989 497 956 q 575 1022 550 1022 q 613 1008 600 1022 q 625 967 625 993 q 600 908 625 940 q 542 875 575 875 q 497 925 497 875 z "},"j":{"ha":483,"x_min":-1425,"x_max":733,"o":"m 28 -58 q -136 -86 -19 -67 q -488 -165 -369 -125 q -720 -259 -607 -204 q -943 -392 -833 -314 q -1133 -559 -1053 -469 q -1264 -762 -1214 -649 q -1314 -1009 -1314 -876 q -1224 -1246 -1314 -1142 q -986 -1350 -1135 -1350 q -844 -1316 -918 -1350 q -710 -1228 -771 -1282 q -589 -1106 -650 -1175 q -406 -842 -482 -981 l 28 -58 m 414 619 q 447 592 447 619 q 335 338 447 558 q 147 -11 224 118 q 365 66 242 11 q 582 201 489 121 q 717 344 675 282 q 728 353 722 353 q 733 349 733 353 q 731 339 733 344 q 592 186 661 249 q 133 -39 417 32 l -333 -831 q -626 -1203 -454 -1039 q -830 -1339 -718 -1289 q -1058 -1389 -942 -1389 q -1318 -1288 -1211 -1389 q -1425 -1033 -1425 -1187 q -1308 -650 -1425 -819 q -850 -274 -1156 -426 q -318 -92 -590 -144 q -117 -59 -226 -75 q 42 -33 -8 -43 q 322 564 322 494 q 277 583 322 583 q 186 553 232 583 q 170 544 174 544 q 167 550 167 544 q 175 561 167 556 q 414 619 263 619 m 497 925 q 525 989 497 956 q 575 1022 550 1022 q 613 1008 600 1022 q 625 967 625 993 q 600 908 625 940 q 542 875 575 875 q 497 925 497 875 z "},"k":{"ha":797,"x_min":47,"x_max":1411,"o":"m 614 900 q 813 1072 728 994 q 995 1253 899 1149 q 1154 1449 1092 1357 q 1258 1651 1217 1542 q 1300 1861 1300 1760 q 1290 1901 1300 1885 q 1264 1917 1281 1917 q 1078 1738 1201 1917 q 817 1294 954 1560 l 614 900 m 772 564 q 733 569 753 569 q 572 522 661 569 q 415 392 482 474 q 347 228 347 310 q 375 103 347 164 q 433 44 392 67 q 533 22 474 22 q 894 197 693 22 q 1031 344 988 279 q 1042 353 1036 353 q 1047 349 1047 353 q 1044 339 1047 344 q 911 192 981 253 q 478 -25 694 -25 q 309 29 365 -25 q 253 178 253 83 l 256 200 q 219 133 242 175 l 182 64 q 161 19 167 36 q 136 2 153 6 q 96 -8 119 -1 q 69 -14 72 -14 q 47 -4 47 -14 q 83 75 47 14 l 233 344 q 456 747 247 364 q 171 544 172 543 q 167 550 167 544 q 175 561 167 556 q 475 783 426 743 l 717 1242 q 771 1346 729 1265 q 830 1457 813 1426 q 885 1556 847 1488 q 951 1660 924 1624 q 1019 1749 979 1697 q 1192 1911 1092 1840 q 1364 1983 1288 1983 q 1400 1963 1389 1983 q 1411 1922 1411 1942 q 1204 1435 1411 1692 q 1072 1282 1135 1349 q 917 1131 1011 1215 q 592 856 800 1025 l 353 381 q 598 559 460 493 q 817 625 736 625 q 861 616 861 625 q 827 585 861 607 q 772 564 793 564 z "},"l":{"ha":606,"x_min":131,"x_max":1403,"o":"m 606 900 q 805 1072 719 994 q 987 1253 890 1149 q 1146 1449 1083 1357 q 1250 1651 1208 1542 q 1292 1861 1292 1760 q 1282 1901 1292 1885 q 1256 1917 1272 1917 q 1069 1738 1193 1917 q 808 1294 946 1560 l 606 900 m 447 747 q 256 606 307 646 q 172 544 178 544 q 167 550 167 544 q 175 561 167 556 q 467 783 344 683 l 708 1242 q 770 1363 724 1271 q 836 1493 817 1456 q 901 1606 856 1531 q 983 1724 947 1681 q 1183 1911 1081 1843 q 1356 1983 1279 1983 q 1392 1963 1381 1983 q 1403 1922 1403 1942 q 1196 1435 1403 1692 q 1064 1282 1126 1349 q 908 1131 1003 1215 q 583 856 792 1025 l 394 486 q 317 331 344 386 q 263 204 290 276 q 236 96 236 132 q 258 34 236 60 q 317 8 281 8 q 511 65 404 8 q 708 201 618 122 q 842 344 799 279 q 853 353 847 353 q 858 349 858 353 q 856 339 858 344 q 706 174 781 239 q 549 60 632 108 q 388 -10 465 11 q 254 -31 311 -31 q 164 -1 197 -31 q 131 74 131 29 q 145 160 131 118 q 174 232 160 203 q 233 344 189 261 l 447 747 z "},"m":{"ha":1022,"x_min":25,"x_max":1419,"o":"m 183 547 q 172 544 178 544 q 167 550 167 544 q 229 597 167 556 q 338 639 292 639 q 403 624 385 639 q 422 565 422 610 q 361 419 422 521 q 393 449 369 426 q 429 483 417 472 q 465 514 442 494 q 503 544 488 533 q 540 567 519 556 q 617 589 581 589 q 661 517 661 589 q 633 414 661 469 l 625 394 q 700 458 646 415 q 794 526 753 500 q 976 597 904 597 q 1047 533 1047 597 q 999 420 1047 500 q 894 253 951 340 q 790 41 838 167 q 742 -195 742 -85 q 797 -390 742 -306 q 955 -475 851 -475 q 1196 -377 1058 -475 q 1403 -178 1333 -279 q 1414 -169 1408 -169 q 1419 -174 1419 -169 q 1417 -183 1419 -178 q 1181 -410 1319 -315 q 924 -506 1043 -506 q 727 -424 804 -506 q 650 -219 650 -342 q 692 28 650 -96 q 785 235 735 153 q 877 391 835 317 q 919 495 919 465 q 886 525 919 525 q 749 464 833 525 q 610 336 665 403 q 494 269 554 269 q 486 281 486 269 q 490 298 486 292 q 503 308 494 304 q 514 314 511 311 q 569 474 569 433 q 547 514 569 514 q 353 367 490 514 q 238 190 318 329 q 151 42 157 50 q 135 28 144 33 q 112 16 126 22 q 71 -5 97 10 q 35 -19 44 -19 q 25 -8 25 -19 q 40 19 25 3 q 87 89 54 35 q 170 233 119 143 q 231 340 221 324 q 251 376 240 356 q 268 406 263 396 q 283 432 274 415 q 297 458 292 449 q 308 480 301 467 q 318 501 315 493 q 325 519 322 510 q 331 553 331 538 q 289 600 331 600 q 183 547 260 600 z "},"n":{"ha":872,"x_min":33,"x_max":1122,"o":"m 297 594 q 186 553 249 594 q 170 544 174 544 q 167 550 167 544 q 175 561 167 556 q 350 633 271 633 q 405 614 385 633 q 425 565 425 594 q 369 436 425 536 q 717 628 593 628 q 778 598 760 628 q 797 523 797 568 q 703 304 797 478 q 608 81 608 131 q 621 43 608 58 q 653 28 633 28 q 956 183 776 28 q 1047 272 1003 225 q 1101 336 1090 319 q 1117 353 1111 353 q 1122 349 1122 353 q 1119 339 1122 344 q 969 173 1069 272 q 760 23 868 74 q 581 -28 653 -28 q 508 36 508 -28 q 556 188 508 93 q 650 372 603 283 q 697 506 697 461 q 644 575 697 575 q 476 488 596 575 q 344 381 356 401 l 142 11 q 116 -3 135 0 q 77 -15 97 -7 q 50 -22 57 -22 q 33 -8 33 -22 q 114 133 33 -3 q 331 558 331 506 q 297 594 331 594 z "},"o":{"ha":744,"x_min":86,"x_max":939,"o":"m 625 556 l 617 558 q 640 503 617 529 q 694 469 663 478 q 697 515 697 488 q 697 531 697 522 q 674 613 697 569 q 636 656 650 656 q 617 600 617 656 q 633 589 625 597 q 642 574 642 581 q 635 561 642 567 q 625 556 628 556 m 689 444 q 590 488 633 447 q 542 583 546 528 q 376 507 460 583 q 240 321 292 431 q 189 114 189 211 q 212 44 189 76 q 278 11 235 11 q 530 150 403 11 q 689 444 657 289 m 935 569 q 937 569 935 569 q 939 564 939 569 q 930 553 939 558 q 895 528 921 547 q 853 499 869 510 q 813 475 838 489 q 717 444 764 449 q 540 121 682 267 q 242 -25 397 -25 q 86 117 86 -25 q 153 347 86 231 q 328 539 221 464 q 542 614 435 614 q 563 683 544 649 q 614 717 581 717 q 695 665 665 717 q 725 533 725 614 q 719 467 725 511 q 919 561 782 467 q 935 569 932 569 z "},"p":{"ha":728,"x_min":-883,"x_max":978,"o":"m 206 244 l 103 53 q 323 134 213 75 q 509 262 433 193 q 633 396 585 331 q 681 500 681 461 q 619 581 681 581 q 433 469 568 581 q 206 244 299 357 m 217 -69 q 53 -31 131 -69 q -278 -678 -90 -293 q -608 -1317 -465 -1062 q -665 -1389 -631 -1357 q -731 -1437 -700 -1421 q -794 -1464 -762 -1453 q -863 -1481 -843 -1481 q -883 -1473 -883 -1481 q -877 -1461 -883 -1465 q -851 -1446 -871 -1457 q -805 -1415 -831 -1435 q -735 -1334 -779 -1394 q -503 -945 -692 -1274 q 17 -6 -314 -617 q 8 8 8 3 q 21 23 8 13 q 39 33 33 33 q 203 431 203 335 q 175 536 203 526 q 164 545 164 540 q 167 553 164 550 q 178 560 171 556 q 192 569 185 564 q 208 583 199 575 q 219 594 217 590 q 244 603 226 603 q 281 562 267 603 q 294 471 294 521 q 261 350 294 421 q 528 574 410 497 q 717 650 646 650 q 789 563 789 650 q 699 369 789 475 q 454 167 608 263 q 136 28 300 71 q 303 -14 214 -14 q 472 4 392 -14 q 619 58 553 22 q 904 276 785 147 q 958 339 949 325 q 972 353 967 353 q 978 349 978 353 q 975 339 978 344 q 825 172 904 243 q 217 -69 556 -69 z "},"q":{"ha":878,"x_min":-339,"x_max":1128,"o":"m 1111 344 q 1122 353 1117 353 q 1128 349 1128 353 q 1114 324 1128 343 q 1040 242 1100 306 q 913 111 979 179 q 715 -93 847 43 q 510 -303 582 -229 q 358 -461 436 -378 q 172 -676 218 -608 q 14 -932 125 -743 q -189 -1273 -97 -1121 q -294 -1425 -281 -1425 q -323 -1405 -307 -1425 q -339 -1372 -339 -1385 q -256 -1187 -339 -1314 q -103 -978 -172 -1061 q 92 -707 38 -810 q 377 -208 147 -604 q 661 292 607 188 q 492 119 615 222 q 357 33 431 69 q 224 -3 283 -3 q 128 35 165 -3 q 92 136 92 74 q 165 360 92 240 q 347 563 239 481 q 550 644 456 644 q 642 611 611 644 q 672 530 672 578 q 656 436 672 482 q 633 419 650 419 q 617 433 617 419 q 633 482 617 442 q 650 549 650 522 q 624 595 650 576 q 564 614 597 614 q 412 540 499 614 q 260 350 325 467 q 194 128 194 233 q 218 72 194 96 q 278 47 242 47 q 484 144 367 47 q 667 378 601 242 q 687 430 676 397 q 700 464 697 463 q 756 475 722 475 q 810 467 790 475 q 831 447 831 458 q 800 396 831 435 q 658 197 689 251 l 250 -517 q 447 -310 374 -385 q 986 219 521 -236 l 1111 344 z "},"r":{"ha":611,"x_min":47,"x_max":806,"o":"m 325 622 q 387 600 365 622 q 408 554 408 578 q 397 503 408 531 q 374 451 386 475 q 347 402 361 428 q 331 372 332 376 q 536 556 414 468 q 764 672 624 617 q 785 678 781 678 q 789 674 789 678 q 787 667 789 669 q 782 664 785 665 q 766 656 779 663 q 708 610 753 649 q 664 543 664 572 q 689 514 664 514 q 786 561 721 514 q 802 569 799 569 q 806 564 806 569 q 797 553 806 558 q 708 496 740 511 q 643 481 675 481 q 592 492 611 481 q 572 524 572 503 q 589 567 572 546 q 439 448 525 531 q 267 250 353 365 q 122 -6 139 14 q 98 -25 106 -25 q 86 -22 90 -25 q 76 -7 82 -18 q 58 20 69 4 q 47 47 47 36 q 67 87 47 57 q 112 145 86 117 q 156 197 138 174 q 294 463 269 411 q 319 540 319 515 q 308 576 319 564 q 268 589 296 589 q 186 553 240 589 q 170 544 174 544 q 167 550 167 544 q 175 561 167 556 q 325 622 264 622 z "},"s":{"ha":700,"x_min":25,"x_max":742,"o":"m 114 153 l 111 117 q 141 23 111 63 q 235 -17 171 -17 q 397 59 300 -17 q 565 251 493 135 q 636 467 636 367 q 564 597 636 597 q 469 564 522 597 q 369 481 417 531 q 247 339 286 394 q 236 331 242 331 q 231 335 231 331 q 233 344 231 339 q 600 633 442 633 q 703 583 664 633 q 742 460 742 533 q 688 294 742 386 q 554 131 633 203 q 381 10 475 58 q 223 -39 288 -39 q 92 -17 158 -39 q 25 42 26 6 q 62 109 25 60 q 111 158 99 158 q 114 153 114 158 z "},"t":{"ha":639,"x_min":153,"x_max":889,"o":"m 170 544 q 168 544 170 544 q 167 550 167 544 q 174 561 167 556 q 216 590 194 575 q 389 631 238 606 l 614 1047 q 661 1110 631 1082 q 717 1139 689 1139 q 721 1139 718 1139 q 744 1128 744 1139 q 675 999 744 1117 q 483 644 606 881 l 744 686 q 753 683 753 686 q 733 663 753 675 q 701 650 713 650 q 467 614 690 650 l 333 336 q 258 119 258 169 q 288 38 258 69 q 361 6 317 6 q 540 44 469 6 q 687 151 610 83 q 812 273 764 219 q 869 340 860 326 q 883 353 878 353 q 889 349 889 353 q 886 339 889 344 q 747 183 819 251 q 622 74 675 114 q 488 4 568 33 q 327 -25 408 -25 q 199 11 246 -25 q 153 125 153 47 q 233 344 153 203 l 367 592 q 183 551 192 557 q 170 544 174 544 z "},"u":{"ha":892,"x_min":103,"x_max":1142,"o":"m 954 156 q 985 184 954 156 q 1057 258 1015 211 q 1115 329 1099 306 q 1136 353 1131 353 q 1142 349 1142 353 q 1139 339 1142 344 q 900 90 1057 207 q 606 -28 743 -28 q 533 36 533 -28 q 556 136 533 78 q 372 25 469 72 q 200 -22 274 -22 q 135 -1 167 -22 q 103 70 103 19 q 214 316 103 121 q 325 550 325 511 q 283 589 325 589 q 186 553 240 589 q 170 544 174 544 q 167 550 167 544 q 175 561 167 556 q 328 622 264 622 q 419 542 419 622 q 314 313 419 500 q 208 93 208 126 q 232 47 208 60 q 283 33 256 33 q 442 90 354 33 q 578 197 529 146 q 686 403 608 264 q 783 567 764 543 q 872 619 832 619 q 883 603 883 619 q 819 472 883 586 q 675 256 754 357 q 628 81 628 153 q 640 43 628 58 q 672 28 653 28 q 817 65 742 28 q 954 156 893 101 z "},"v":{"ha":592,"x_min":128,"x_max":953,"o":"m 339 628 q 390 605 374 628 q 406 547 406 582 q 376 436 406 511 q 303 265 347 361 q 242 125 258 169 q 290 187 249 133 q 342 255 331 240 q 395 320 354 269 q 454 391 436 371 q 513 456 472 411 q 578 525 553 501 q 642 587 603 549 q 714 650 682 625 q 862 753 794 714 q 947 792 929 792 q 953 783 953 792 q 936 771 953 781 q 875 736 911 757 q 628 533 756 661 q 418 295 500 404 q 267 89 336 186 q 185 -21 197 -8 q 147 -33 172 -33 q 133 -17 139 -33 q 128 14 128 0 q 233 344 128 103 q 308 560 308 528 q 278 592 308 592 q 186 553 244 592 q 170 544 174 544 q 167 550 167 544 q 175 561 167 556 q 339 628 264 628 z "},"w":{"ha":1053,"x_min":78,"x_max":1247,"o":"m 1243 569 q 1245 569 1243 569 q 1247 564 1247 569 q 1242 555 1247 558 q 1216 538 1238 551 q 1183 517 1194 524 q 1148 496 1172 510 q 1106 474 1124 482 q 1064 456 1088 464 q 982 439 1018 439 q 917 447 946 439 q 931 303 931 382 q 897 150 931 224 q 817 39 864 75 q 657 -33 685 -33 q 653 -33 654 -33 q 556 15 575 -33 q 539 125 539 57 q 503 308 539 308 q 376 226 478 308 q 241 115 274 144 q 192 67 208 85 q 164 39 175 50 q 139 17 153 28 q 100 -6 114 -6 q 78 28 78 -6 q 272 422 78 122 q 364 586 364 563 q 354 604 364 594 q 333 614 344 614 q 186 553 278 614 q 170 544 174 544 q 167 550 167 544 q 174 561 167 556 q 210 587 181 567 q 291 631 240 607 q 378 656 342 656 q 438 634 415 656 q 461 576 461 613 q 419 475 461 540 q 305 301 378 410 q 183 94 232 192 q 378 272 257 172 q 556 372 500 372 q 628 147 628 372 q 656 14 628 39 q 692 3 669 3 q 808 85 765 3 q 850 282 850 167 q 794 533 850 397 q 762 572 785 543 q 739 611 739 600 q 774 646 739 628 q 819 664 808 664 q 851 627 829 664 q 889 550 874 590 q 1036 481 958 481 q 1081 486 1064 481 q 1108 494 1099 492 q 1131 504 1118 497 q 1153 515 1144 511 q 1174 526 1161 518 q 1193 539 1188 535 q 1211 550 1197 542 q 1243 569 1239 569 z "},"x":{"ha":622,"x_min":-486,"x_max":872,"o":"m 239 622 q 243 626 239 622 q 251 635 247 631 q 263 639 256 639 q 269 629 269 639 q 271 615 269 626 q 273 595 272 604 q 275 578 274 586 q 367 200 300 389 q 489 389 400 249 q 586 547 578 531 q 611 583 603 581 q 656 592 640 592 q 672 588 672 592 q 671 582 672 583 q 666 578 669 581 q 651 563 663 576 q 561 424 639 549 q 383 167 483 300 q 494 50 435 50 q 689 169 543 50 q 856 344 804 268 q 867 353 861 353 q 872 349 872 353 q 869 339 872 344 q 697 147 797 238 q 453 -8 522 -8 q 408 6 422 -8 l 389 25 q 372 50 383 31 q 339 108 347 94 q 64 -197 156 -110 q -344 -564 -167 -428 q -369 -578 -361 -575 q -395 -583 -378 -582 q -445 -589 -412 -583 q -482 -594 -478 -594 q -486 -589 -486 -594 q -461 -569 -486 -587 q 36 -172 -150 -358 q 322 136 207 -7 q 214 379 264 246 q 164 561 164 513 q 189 585 164 568 q 222 607 214 601 q 239 622 231 613 z "},"y":{"ha":839,"x_min":-783,"x_max":1089,"o":"m 339 -231 q 6 -424 150 -342 q -239 -568 -139 -506 q -394 -673 -339 -631 q -514 -775 -450 -715 q -611 -885 -578 -833 q -689 -1117 -689 -1006 q -618 -1287 -689 -1228 q -453 -1347 -547 -1347 q -339 -1308 -393 -1347 q -228 -1203 -274 -1262 q -150 -1098 -182 -1143 q -73 -978 -118 -1053 q 11 -836 -28 -903 q 108 -661 50 -767 q 339 -231 225 -444 m 333 622 q 395 601 374 622 q 417 558 417 581 q 411 515 417 535 q 392 469 406 496 q 369 419 381 442 q 318 317 333 344 q 285 255 303 289 q 259 203 268 221 q 239 161 250 186 q 219 85 219 113 q 244 45 219 57 q 294 33 268 33 q 547 158 399 33 l 700 447 q 723 505 711 472 q 740 550 735 538 q 803 588 756 583 q 857 592 850 592 q 864 586 864 592 q 844 550 864 581 q 744 394 764 429 l 461 -131 l 683 11 q 817 99 767 64 q 944 204 867 135 q 1072 344 1022 274 q 1083 353 1078 353 q 1089 349 1089 353 q 1086 339 1089 344 q 1013 247 1042 279 q 903 147 985 214 q 694 -3 821 79 l 439 -169 q 315 -403 400 -242 q 179 -656 229 -565 q 44 -890 129 -746 q -99 -1106 -40 -1033 q -233 -1258 -157 -1178 q -536 -1403 -372 -1403 q -719 -1332 -656 -1403 q -783 -1180 -783 -1261 q -758 -1025 -783 -1099 q -693 -892 -733 -951 q -583 -769 -653 -832 q -444 -657 -512 -706 q -270 -546 -375 -608 q -79 -436 -165 -483 q 361 -189 176 -296 l 525 117 q 352 12 438 46 q 222 -22 267 -22 q 146 -1 178 -22 q 114 72 114 19 q 140 165 114 114 q 193 268 165 217 q 229 335 221 319 q 251 378 238 351 q 272 417 265 404 q 290 454 278 431 q 307 493 301 478 q 322 553 322 535 q 289 592 322 592 q 186 553 244 592 q 170 544 174 544 q 167 550 167 544 q 175 561 167 556 q 333 622 264 622 z "},"z":{"ha":664,"x_min":-717,"x_max":914,"o":"m 381 -47 q 290 -72 358 -53 q 35 -163 150 -111 q -196 -295 -81 -215 q -406 -469 -311 -375 q -557 -672 -500 -562 q -614 -881 -614 -781 q -583 -969 -614 -932 q -508 -1006 -553 -1006 q -330 -966 -419 -1006 q -165 -864 -240 -926 q -15 -713 -90 -801 q 117 -539 60 -625 q 228 -356 172 -456 q 381 -47 315 -200 m 517 33 q 747 184 640 89 q 897 344 854 279 q 908 353 903 353 q 914 349 914 353 q 911 339 914 344 q 764 175 826 231 q 506 3 651 74 q 218 -519 417 -250 q -3 -776 114 -661 q -259 -965 -119 -892 q -531 -1039 -399 -1039 q -660 -1001 -604 -1039 q -717 -879 -717 -962 q -666 -697 -717 -796 q -537 -517 -615 -599 q -361 -360 -458 -435 q -8 -147 -181 -221 q 397 -11 101 -101 q 422 99 422 44 q 395 174 422 153 q 300 194 368 194 q 158 111 210 111 q 144 119 144 111 q 190 172 144 147 q 275 206 236 196 q 356 276 292 221 q 461 368 421 332 q 544 455 501 404 q 600 542 588 506 q 308 472 419 472 q 202 498 243 472 q 161 547 161 524 q 199 577 161 554 q 248 608 236 600 q 265 619 260 615 q 272 622 269 622 l 275 619 q 267 608 275 617 q 258 590 258 600 q 271 568 258 579 q 325 544 283 557 q 442 533 367 533 q 671 599 531 533 q 710 614 704 614 q 717 608 717 614 q 642 501 717 586 q 317 211 567 417 q 506 161 465 211 q 525 101 525 136 q 517 33 525 67 z "},"{":{"ha":750,"x_min":169,"x_max":1297,"o":"m 506 -175 q 533 -186 533 -175 q 506 -197 533 -197 q 169 -28 169 -197 q 257 190 169 82 q 329 278 293 235 q 417 483 417 382 q 394 544 417 510 q 353 578 372 578 q 324 574 347 578 q 267 569 300 569 q 250 594 250 569 q 261 611 250 600 q 336 647 297 647 q 386 642 356 647 q 432 636 417 636 q 491 667 447 636 q 572 744 535 699 q 642 856 610 789 q 694 983 674 924 q 744 1106 717 1044 q 939 1331 804 1240 q 1283 1408 1065 1408 q 1297 1400 1297 1408 q 1269 1386 1297 1386 q 1103 1374 1165 1386 q 983 1322 1042 1363 q 886 1218 925 1281 q 823 1088 847 1156 q 774 951 799 1019 q 606 706 714 788 q 458 622 564 675 q 506 526 506 592 q 468 397 506 460 q 386 285 431 335 q 304 160 342 236 q 267 8 267 85 q 341 -122 267 -68 q 506 -175 415 -175 z "},"|":{"ha":728,"x_min":450,"x_max":503,"o":"m 450 -139 l 450 1336 q 468 1350 450 1343 q 490 1360 486 1357 q 496 1365 494 1364 q 500 1367 497 1367 q 503 1361 503 1367 l 503 -114 q 490 -124 503 -121 q 459 -138 463 -132 q 453 -144 456 -144 q 450 -139 450 -144 z "},"}":{"ha":750,"x_min":-150,"x_max":978,"o":"m 642 1386 q 614 1397 614 1386 q 642 1408 614 1408 q 978 1239 978 1408 q 890 1021 978 1129 q 818 933 854 976 q 731 728 731 829 q 753 667 731 701 q 794 633 775 633 q 824 638 800 633 q 881 642 847 642 q 897 617 897 642 q 886 600 897 611 q 811 564 850 564 q 761 569 792 564 q 715 575 731 575 q 656 544 700 575 q 575 467 613 513 q 506 355 538 422 q 453 228 474 288 q 403 106 431 167 q 208 -119 343 -29 q -136 -197 82 -197 q -150 -189 -150 -197 q -122 -175 -150 -175 q 44 -163 -18 -175 q 164 -110 106 -151 q 261 -7 222 -69 q 324 124 300 56 q 374 260 349 192 q 542 506 433 424 q 689 589 583 536 q 642 685 642 619 q 679 814 642 751 q 761 926 717 876 q 843 1051 806 975 q 881 1203 881 1126 q 806 1333 881 1279 q 642 1386 732 1386 z "},"~":{"ha":889,"x_min":217,"x_max":939,"o":"m 286 417 q 247 397 286 417 q 232 386 242 394 q 219 378 222 378 q 217 383 217 378 q 242 422 217 389 q 353 536 288 486 q 478 586 418 586 q 600 519 542 586 q 647 467 625 492 q 767 400 704 400 q 839 447 811 400 q 867 544 867 493 q 892 569 867 554 q 933 583 917 583 q 939 575 939 583 q 858 428 932 496 q 697 361 785 361 q 618 390 656 361 q 557 451 581 418 q 496 513 533 485 q 419 542 458 542 q 344 503 379 542 q 286 417 310 465 z "},"":{"ha":606,"x_min":-169,"x_max":578,"o":"m 578 619 q 540 533 578 574 q 456 492 503 492 q 408 542 408 492 q 449 626 408 583 q 522 669 490 669 q 578 619 578 669 m -164 -428 q -147 -431 -154 -431 q -47 -376 -108 -431 q 78 -233 14 -322 q 258 39 185 -83 q 400 364 363 219 q 431 383 408 383 q 453 364 453 383 q 400 219 453 350 q 306 14 347 89 q 161 -235 250 -97 q 3 -447 72 -372 q -86 -472 -22 -472 q -139 -464 -108 -472 q -169 -439 -169 -456 q -164 -428 -169 -428 z "},"":{"ha":858,"x_min":100,"x_max":1175,"o":"m 408 183 l 844 950 q 786 956 825 956 q 571 847 682 956 q 392 595 460 738 q 325 347 325 453 q 349 249 325 296 q 408 183 372 201 m 408 117 l 136 -378 q 120 -400 132 -389 q 103 -411 108 -411 q 100 -403 100 -411 q 108 -369 100 -386 q 372 117 211 -165 q 243 176 300 121 q 186 314 186 232 q 246 545 186 424 q 400 765 306 667 q 622 930 494 864 q 872 997 749 996 l 989 1200 q 1169 1372 1088 1372 q 1175 1369 1175 1372 q 1153 1339 1175 1363 q 1044 1206 1071 1249 l 911 994 q 1012 948 968 983 q 1056 872 1056 913 q 1050 847 1056 854 q 1030 833 1044 839 q 1006 824 1015 828 q 983 811 997 819 q 944 794 956 794 q 936 806 936 794 l 943 821 q 950 861 950 836 q 878 939 950 911 q 436 172 653 571 q 528 161 465 161 q 674 196 592 161 q 807 274 756 231 q 893 362 858 317 q 946 437 928 407 q 967 467 964 467 q 975 461 975 467 q 925 369 975 436 q 408 117 744 122 z "},"":{"ha":1256,"x_min":131,"x_max":1747,"o":"m 1456 1042 q 1450 1037 1456 1042 q 1436 1027 1443 1032 q 1424 1022 1429 1022 q 1421 1033 1419 1022 q 1422 1050 1422 1044 q 1380 1124 1422 1086 q 1289 1161 1338 1161 q 1208 1147 1240 1161 q 1153 1110 1176 1132 q 1103 1040 1131 1089 q 1053 949 1072 992 q 917 667 975 783 q 1311 700 1103 674 q 1317 693 1317 700 q 1291 667 1317 686 q 1239 647 1265 649 q 900 636 986 640 q 636 247 788 425 q 960 -171 725 11 q 1425 -353 1194 -353 q 1692 -253 1588 -353 q 1713 -227 1703 -242 q 1730 -205 1724 -212 q 1742 -197 1736 -197 q 1747 -206 1747 -197 q 1708 -275 1747 -229 q 1347 -422 1583 -422 q 1014 -344 1181 -422 q 840 -235 921 -300 q 688 -63 760 -169 q 572 175 615 43 q 385 24 479 82 q 210 -33 290 -33 q 131 22 131 -33 q 199 185 131 86 q 360 357 268 283 q 512 431 451 431 q 619 297 572 431 q 803 631 708 422 q 581 617 588 617 q 575 625 575 617 q 605 645 575 629 q 642 661 635 661 q 817 664 756 661 q 831 697 817 665 q 856 751 846 728 q 889 817 867 774 q 932 894 911 861 q 984 972 953 928 q 1045 1050 1015 1017 q 1115 1119 1075 1083 q 1194 1176 1156 1154 q 1381 1228 1286 1228 q 1489 1183 1447 1228 q 1531 1092 1531 1139 q 1510 1073 1531 1082 q 1480 1058 1490 1064 q 1456 1042 1469 1051 m 464 356 q 300 259 386 356 q 214 78 214 163 q 228 40 214 56 q 275 25 242 25 q 398 84 308 25 q 558 219 488 143 q 522 313 546 269 q 464 356 499 356 z "},"":{"ha":1222,"x_min":386,"x_max":1267,"o":"m 783 1031 q 567 926 646 1031 q 489 672 489 822 q 599 399 489 522 q 867 275 708 275 q 1081 378 999 275 q 1164 637 1164 482 q 1055 911 1164 792 q 789 1031 946 1031 l 783 1031 m 1221 1053 q 1225 1057 1221 1053 q 1233 1064 1229 1061 q 1242 1067 1238 1067 q 1257 1063 1247 1067 q 1267 1055 1267 1060 q 1254 1040 1267 1050 q 1210 1004 1242 1029 q 1150 953 1179 979 q 1258 679 1258 836 q 1150 400 1258 522 q 1188 361 1156 394 q 1264 271 1264 283 q 1240 243 1264 258 q 1204 228 1215 228 q 1183 235 1193 228 q 1157 258 1172 242 q 1133 283 1142 274 q 1106 315 1125 292 q 1086 339 1088 338 q 793 228 949 228 q 533 319 638 228 q 482 275 508 300 q 419 222 422 221 q 411 233 411 222 q 452 282 411 243 q 514 336 493 321 q 394 633 394 456 q 500 911 394 786 q 432 988 478 940 q 386 1038 386 1035 q 415 1065 386 1042 q 457 1089 444 1089 q 481 1074 469 1089 q 516 1029 493 1060 q 564 972 539 999 q 705 1053 622 1019 q 858 1086 788 1086 q 1133 972 1010 1086 q 1188 1021 1163 996 q 1221 1053 1213 1046 z "},"":{"ha":1078,"x_min":314,"x_max":1664,"o":"m 861 653 l 817 653 q 781 556 799 600 l 861 653 m 439 703 l 733 694 q 775 908 775 819 q 753 1050 775 997 q 692 1129 728 1103 q 550 1178 624 1178 q 353 1086 444 1178 q 322 1058 325 1058 q 314 1067 314 1058 q 344 1106 314 1075 q 479 1200 406 1169 q 603 1231 553 1231 q 796 1156 717 1231 q 875 931 875 1082 q 831 694 875 850 l 897 694 q 1126 933 1007 818 q 1387 1144 1244 1047 q 1617 1242 1529 1242 q 1664 1233 1664 1242 q 1633 1219 1664 1229 q 1539 1178 1603 1208 q 1394 1096 1475 1147 q 1193 939 1313 1044 q 950 694 1074 833 l 1233 697 q 1242 683 1242 697 q 1219 658 1242 668 q 1149 647 1197 647 q 911 653 1100 647 q 803 522 865 601 l 1153 525 q 1164 517 1164 525 q 1155 505 1164 511 q 1142 494 1146 499 q 1086 475 1122 475 q 985 479 1085 475 q 772 483 886 483 q 694 375 715 411 q 500 14 561 108 q 479 -3 492 0 q 441 -11 467 -7 q 395 -23 415 -15 q 365 -37 375 -31 q 346 -44 356 -44 q 336 -36 336 -44 q 347 -19 336 -33 q 403 56 392 36 q 644 483 558 307 q 358 478 372 478 q 344 486 344 478 l 340 515 q 349 528 340 528 q 398 525 358 528 q 536 522 438 522 l 664 522 q 719 656 704 613 l 619 656 l 386 650 q 375 654 375 650 q 377 660 375 658 q 384 664 379 661 q 393 671 389 667 q 403 683 397 675 q 410 694 407 692 q 439 703 417 703 z "},"":{"ha":728,"x_min":450,"x_max":503,"o":"m 450 697 l 450 1336 q 468 1350 450 1343 q 490 1360 486 1357 q 496 1365 494 1364 q 500 1367 497 1367 q 503 1361 503 1367 l 503 722 q 490 713 503 715 q 459 698 463 704 q 453 692 456 692 q 450 697 450 692 m 450 519 q 468 533 450 526 q 490 544 486 540 q 496 549 494 547 q 500 550 497 550 q 503 544 503 550 l 503 -114 q 490 -124 503 -121 q 459 -138 463 -132 q 453 -144 456 -144 q 450 -139 450 -144 l 450 519 z "},"":{"ha":800,"x_min":61,"x_max":1097,"o":"m 703 333 q 756 410 738 361 q 775 505 775 460 q 744 597 775 550 q 674 680 713 644 q 593 767 635 715 q 536 867 551 818 q 461 744 461 822 q 542 585 461 658 q 610 522 575 554 q 672 440 644 489 q 703 333 699 392 m 178 261 q 156 214 156 233 q 232 90 156 157 q 419 22 308 22 q 514 47 472 22 q 578 111 556 75 q 619 238 619 183 q 595 346 619 293 q 536 438 571 399 q 467 514 501 478 q 383 667 383 603 q 428 790 383 732 q 533 883 472 847 q 528 928 528 911 q 629 1132 528 1036 q 886 1228 731 1228 q 1029 1181 961 1228 q 1097 1069 1097 1133 q 1067 1025 1097 1058 q 1028 992 1038 992 q 1022 1000 1022 992 q 956 1122 1022 1061 q 803 1183 890 1183 q 654 1122 717 1183 q 592 964 592 1060 q 675 808 592 894 q 747 733 711 772 q 831 539 831 642 q 794 421 831 483 q 703 311 757 358 q 676 214 703 271 q 604 101 649 157 q 489 6 560 44 q 342 -33 418 -33 q 140 28 219 -33 q 61 150 61 90 q 72 178 61 167 q 135 235 103 200 q 169 269 168 269 q 178 261 178 269 z "},"":{"ha":489,"x_min":389,"x_max":728,"o":"m 389 836 q 417 900 389 867 q 467 933 442 933 q 504 919 492 933 q 517 878 517 904 q 492 819 517 851 q 433 786 467 786 q 389 836 389 786 m 600 836 q 628 900 600 867 q 678 933 653 933 q 715 919 703 933 q 728 878 728 904 q 703 819 728 851 q 644 786 678 786 q 600 836 600 786 z "},"":{"ha":1489,"x_min":286,"x_max":1606,"o":"m 492 807 q 403 451 403 636 q 515 142 403 269 q 816 11 628 11 q 1158 109 1004 11 q 1402 372 1313 207 q 1492 740 1492 536 q 1381 1069 1492 943 q 1064 1194 1271 1194 q 733 1085 886 1194 q 492 807 579 976 m 400 818 q 457 910 400 818 q 705 1116 514 1001 q 1113 1231 896 1231 q 1467 1099 1329 1231 q 1606 761 1606 967 q 1535 463 1606 610 q 1351 208 1465 317 q 1085 33 1238 100 q 772 -33 932 -33 q 418 99 550 -33 q 286 433 286 231 q 400 818 286 635 m 1019 939 q 757 791 872 939 q 642 461 642 643 q 706 299 642 368 q 853 231 769 231 q 971 256 911 231 q 1068 313 1031 282 q 1134 369 1106 343 q 1167 394 1163 394 q 1172 378 1172 394 l 1172 342 q 1118 292 1172 325 q 975 229 1064 258 q 808 200 886 200 q 621 271 692 200 q 550 469 550 342 q 637 723 550 596 q 844 919 724 850 q 1075 989 965 989 q 1194 965 1139 989 q 1275 916 1250 940 q 1300 882 1300 892 q 1297 865 1300 872 q 1289 853 1294 858 l 1274 839 q 1253 815 1257 822 q 1237 803 1243 803 q 1231 817 1231 803 q 1156 902 1221 865 q 1019 939 1092 939 z "},"":{"ha":617,"x_min":225,"x_max":881,"o":"m 544 619 q 719 928 593 779 q 622 994 697 994 q 425 870 522 994 q 328 636 328 746 q 342 578 328 606 q 386 550 357 550 q 544 619 438 550 m 831 958 q 701 785 767 894 q 636 594 636 675 q 689 542 636 542 q 783 571 736 542 q 858 650 831 600 q 864 656 858 653 q 875 658 869 658 q 881 656 881 658 q 794 551 881 613 q 628 489 707 489 q 559 510 585 489 q 533 567 533 531 q 535 576 533 569 q 536 586 536 583 q 336 508 424 508 q 257 542 289 508 q 225 625 225 575 q 288 807 225 714 q 444 960 351 900 q 626 1019 538 1019 q 742 947 715 1019 q 786 975 761 967 q 842 989 814 989 q 850 983 850 989 q 831 958 850 978 z "},"":{"ha":869,"x_min":289,"x_max":961,"o":"m 901 590 q 923 606 901 590 q 953 622 944 622 q 961 613 961 622 q 944 592 961 604 q 640 355 699 406 q 581 281 581 304 q 614 183 581 257 q 681 44 647 108 q 714 -24 714 -19 q 676 -37 714 -29 q 629 -44 639 -44 q 613 -35 619 -44 q 556 100 607 -25 q 506 255 506 225 q 528 303 506 285 q 749 471 640 385 q 901 590 858 557 m 569 503 q 670 583 569 503 q 778 664 771 664 q 786 656 786 664 q 767 631 786 643 q 538 449 667 550 q 388 328 408 347 q 367 289 367 308 q 424 115 367 269 q 481 -47 481 -39 q 476 -58 481 -56 q 456 -62 471 -60 q 424 -70 442 -65 q 397 -75 407 -75 q 383 -69 386 -75 q 328 109 367 -36 q 289 270 289 254 q 297 294 289 286 q 569 503 368 342 z "},"":{"ha":994,"x_min":233,"x_max":939,"o":"m 278 486 l 714 481 l 922 483 q 939 472 939 483 q 817 242 939 458 q 739 225 814 236 l 714 222 q 706 244 694 222 q 803 431 793 408 l 239 422 q 233 428 233 422 q 250 460 233 433 q 278 486 267 486 z "},"":{"ha":689,"x_min":233,"x_max":744,"o":"m 278 489 l 611 481 l 739 483 q 744 481 744 483 q 743 475 744 478 q 738 465 742 472 q 731 451 733 458 q 725 435 728 444 q 715 419 721 419 q 601 425 708 419 q 414 431 493 431 l 239 425 q 233 428 233 425 q 236 433 233 431 q 263 468 256 453 q 278 489 271 489 z "},"":{"ha":1489,"x_min":286,"x_max":1606,"o":"m 811 681 q 1188 819 1108 747 q 1222 888 1222 850 q 1199 956 1222 925 q 1122 986 1176 986 q 811 681 979 986 m 400 818 q 457 910 400 818 q 705 1116 514 1001 q 1113 1231 896 1231 q 1467 1099 1329 1231 q 1606 768 1606 967 q 1501 396 1606 569 q 1222 108 1396 222 q 1332 81 1274 81 q 1433 100 1390 81 q 1502 139 1475 119 q 1540 158 1529 158 q 1550 150 1550 158 q 1471 76 1550 115 q 1314 36 1392 36 q 1161 69 1236 36 q 760 -33 969 -33 q 418 99 550 -33 q 286 433 286 231 q 400 818 286 635 m 1197 1019 q 1294 990 1253 1019 q 1336 919 1336 961 q 800 642 1336 753 q 1028 300 938 425 q 1186 128 1119 175 q 1409 386 1326 228 q 1492 725 1492 544 q 1381 1069 1492 943 q 1064 1194 1271 1194 q 733 1085 886 1194 q 492 807 579 976 q 403 451 403 636 q 515 142 403 269 q 828 11 628 11 q 1122 89 983 11 q 1060 142 1090 106 q 1010 201 1029 178 q 966 259 992 224 q 923 319 940 294 q 878 384 906 343 q 837 447 851 425 q 795 510 822 468 q 758 567 768 553 q 692 425 728 506 q 614 269 622 271 q 549 264 583 269 q 503 258 515 258 q 492 269 492 258 l 808 825 q 983 963 865 906 q 1197 1019 1100 1019 z "},"":{"ha":458,"x_min":314,"x_max":797,"o":"m 603 894 l 333 892 q 314 913 314 892 q 325 933 314 933 l 467 931 l 775 933 q 797 917 797 933 q 744 892 797 892 q 603 894 744 892 z "},"":{"ha":464,"x_min":358,"x_max":736,"o":"m 533 1183 q 505 1183 533 1183 q 451 1147 476 1183 q 425 1049 425 1111 q 463 944 425 988 q 567 900 501 900 q 640 943 613 900 q 667 1038 667 986 q 628 1137 667 1090 q 533 1183 589 1183 m 508 861 q 404 908 450 861 q 358 1030 358 954 q 433 1167 358 1106 q 589 1228 508 1228 q 690 1185 643 1228 q 736 1063 736 1142 q 667 922 736 983 q 508 861 597 861 z "},"":{"ha":1169,"x_min":161,"x_max":1142,"o":"m 697 414 q 431 342 547 403 q 314 197 314 282 q 335 144 314 167 q 392 122 357 122 q 556 216 471 122 q 697 414 642 310 m 1142 492 q 1101 452 1142 479 q 1050 425 1060 425 q 789 419 906 425 q 681 256 740 324 q 567 158 622 189 q 394 106 426 104 q 392 106 393 106 q 321 131 347 106 q 294 189 294 157 q 401 367 294 282 q 725 472 508 451 q 797 689 797 629 q 776 738 797 717 q 710 758 756 758 q 616 740 664 758 q 541 702 568 721 q 510 683 514 683 q 506 689 506 683 q 544 725 506 699 q 656 778 582 751 q 803 806 729 806 q 864 784 833 806 q 894 725 894 763 q 819 478 894 628 q 1139 494 1007 490 q 1142 492 1142 494 m 206 61 l 708 50 l 958 56 q 964 53 964 56 q 963 47 964 50 q 957 38 961 44 q 950 22 953 31 q 944 6 947 17 q 933 -14 939 -14 l 411 -3 l 167 -8 q 161 -6 161 -8 q 165 1 161 -3 q 174 13 168 6 q 183 25 181 19 q 192 42 188 31 q 206 61 199 61 z "},"":{"ha":683,"x_min":153,"x_max":872,"o":"m 867 694 q 872 688 872 694 q 835 661 872 682 q 740 622 797 640 q 640 603 683 603 q 487 667 597 603 q 333 731 376 731 q 231 693 289 731 q 163 656 172 656 q 153 663 153 656 q 215 709 153 671 q 374 799 276 747 q 528 878 471 850 q 637 935 586 906 q 709 992 688 964 q 731 1056 731 1021 q 586 1172 731 1172 q 464 1114 513 1172 q 453 1106 458 1106 q 447 1110 447 1106 q 450 1119 447 1114 q 458 1131 453 1124 q 481 1158 463 1139 q 522 1190 500 1176 q 647 1228 582 1228 q 747 1215 713 1228 q 796 1183 781 1203 q 822 1108 822 1149 q 751 985 819 1047 q 617 890 682 924 q 474 820 551 856 q 389 781 397 785 q 517 749 453 781 q 635 685 581 717 q 733 653 689 653 q 822 674 778 653 l 867 694 z "},"":{"ha":683,"x_min":225,"x_max":825,"o":"m 536 1193 q 547 1200 536 1193 q 597 1219 558 1207 q 695 1231 635 1231 q 790 1200 756 1231 q 825 1134 825 1169 q 808 1072 825 1099 q 760 1028 792 1047 q 642 975 710 999 q 706 937 686 960 q 725 872 725 914 q 613 715 725 785 q 381 644 501 644 q 276 675 326 644 q 225 761 225 706 q 258 792 225 772 q 299 811 290 811 q 308 808 308 811 q 353 728 308 763 q 447 694 397 694 q 600 736 553 694 q 647 833 647 778 q 497 936 647 936 q 506 958 479 936 q 572 990 533 981 q 647 1015 611 999 q 697 1049 682 1031 q 722 1110 722 1078 q 698 1165 722 1142 q 629 1189 674 1189 q 553 1172 585 1189 q 490 1129 508 1150 q 467 1108 472 1108 q 461 1113 461 1108 q 464 1122 461 1117 q 472 1134 467 1126 q 495 1160 476 1142 q 536 1193 514 1179 z "},"":{"ha":439,"x_min":328,"x_max":717,"o":"m 358 781 l 689 972 q 711 981 701 981 q 717 969 717 981 q 708 941 717 958 q 689 919 699 924 q 556 858 644 900 q 336 758 344 758 q 328 760 328 758 q 358 781 328 763 z "},"":{"ha":858,"x_min":-1128,"x_max":1108,"o":"m 372 600 l 411 619 q 425 616 422 619 q 428 601 428 613 q 397 531 428 589 q 161 131 319 378 q 165 95 161 113 q 192 56 168 78 q 261 33 217 33 q 413 88 332 33 q 544 197 493 142 q 653 403 575 264 q 750 567 731 543 q 839 619 799 619 q 850 603 850 619 q 785 472 850 586 q 642 256 721 357 q 594 81 594 153 q 607 43 594 58 q 639 28 619 28 q 771 61 701 28 q 895 142 840 94 q 996 238 950 190 q 1070 319 1042 286 q 1103 353 1099 353 q 1108 344 1108 353 q 967 183 1108 336 q 754 25 865 78 q 572 -28 643 -28 q 500 36 500 -28 q 522 136 500 78 q 178 -22 311 -22 q 86 19 113 -22 q -283 -472 -96 -247 q -610 -830 -471 -697 q -868 -1056 -750 -962 q -1048 -1186 -986 -1150 q -1119 -1222 -1110 -1222 q -1128 -1219 -1128 -1222 q -1076 -1183 -1128 -1215 q -915 -1067 -1024 -1151 q -669 -852 -806 -982 q -333 -480 -532 -722 q 72 67 -133 -237 q 176 325 72 131 q 328 567 281 519 q 372 600 350 589 z "},"":{"ha":931,"x_min":278,"x_max":1317,"o":"m 617 461 q 392 528 492 469 q 308 615 339 558 q 278 737 278 672 q 303 862 278 801 q 389 988 329 922 q 534 1108 449 1054 q 752 1196 619 1161 q 1013 1231 885 1231 q 1222 1208 1140 1231 q 1310 1186 1304 1186 q 1317 1182 1317 1186 q 1312 1174 1317 1178 q 1297 1161 1307 1169 q 1267 1133 1286 1153 q 1242 1114 1247 1114 q 1224 1124 1236 1114 q 1092 1167 1185 1154 q 756 514 994 992 q 1072 561 922 514 q 1083 564 1078 564 q 1089 560 1089 564 q 1060 543 1089 557 q 928 500 1032 529 q 728 461 825 471 q 506 6 546 104 q 484 -10 500 -8 q 438 -14 468 -12 q 387 -23 407 -15 q 357 -37 367 -31 q 338 -44 347 -44 q 328 -38 328 -44 q 336 -17 328 -32 q 358 19 344 -3 q 617 461 483 225 m 378 800 q 457 617 378 682 q 656 528 536 553 l 750 693 q 1008 1175 863 889 q 737 1150 854 1175 q 553 1087 619 1125 q 445 996 486 1049 q 391 897 404 943 q 378 800 378 851 z "},"":{"ha":608,"x_min":403,"x_max":531,"o":"m 403 497 q 431 561 403 528 q 481 594 456 594 q 518 580 506 594 q 531 539 531 565 q 506 480 531 513 q 447 447 481 447 q 403 497 403 447 z "},"":{"ha":556,"x_min":31,"x_max":325,"o":"m 239 0 q 164 -131 239 -6 q 288 -168 250 -131 q 325 -258 325 -206 q 278 -356 325 -310 q 169 -403 231 -403 q 69 -372 107 -403 q 31 -317 31 -342 q 44 -306 31 -312 q 67 -300 58 -300 q 80 -322 69 -300 q 113 -367 90 -344 q 175 -389 136 -389 q 243 -358 214 -389 q 272 -293 272 -328 q 258 -240 272 -258 q 219 -214 244 -221 q 147 -203 179 -203 q 108 -208 114 -203 q 93 -214 103 -214 q 83 -211 83 -214 q 103 -175 83 -206 q 211 0 169 -71 q 226 3 214 3 q 239 0 239 3 z "},"":{"ha":508,"x_min":269,"x_max":717,"o":"m 275 1031 l 300 1025 q 586 1144 446 1025 q 659 1210 625 1190 q 705 1231 693 1231 q 717 1217 717 1231 q 650 1114 717 1176 q 461 750 589 1025 q 422 665 424 668 q 414 657 419 661 q 406 653 408 653 q 365 648 400 654 q 317 642 331 642 q 303 651 303 642 q 328 689 303 660 q 389 773 357 719 q 476 933 421 826 q 556 1083 531 1039 q 328 1008 410 1008 q 292 1014 314 1008 q 269 1025 269 1019 q 275 1031 269 1031 z "},"":{"ha":550,"x_min":244,"x_max":781,"o":"m 325 731 q 373 611 325 658 q 503 564 421 564 q 639 638 586 564 q 692 785 692 711 q 644 906 692 860 q 528 953 596 953 q 413 913 461 953 q 345 824 365 874 q 325 731 325 775 m 419 514 q 297 563 349 514 q 244 690 244 611 q 301 845 244 769 q 438 963 357 921 q 597 1006 519 1006 q 728 956 675 1006 q 781 833 781 906 q 662 611 781 708 q 419 514 543 514 z "},"":{"ha":664,"x_min":19,"x_max":692,"o":"m 79 -3 q 58 -20 79 -3 q 28 -36 36 -36 q 19 -27 19 -36 q 36 -6 19 -18 q 341 231 282 181 q 400 306 400 282 q 367 403 400 329 q 300 542 333 478 q 267 610 267 606 q 304 623 267 615 q 351 631 342 631 q 367 621 361 631 q 424 486 374 611 q 475 331 475 361 q 453 283 475 301 q 231 115 340 201 q 79 -3 122 29 m 411 83 q 310 3 411 83 q 202 -78 210 -78 q 194 -69 194 -78 q 214 -44 194 -57 q 443 138 314 36 q 593 258 572 239 q 614 297 614 278 q 557 471 614 317 q 500 633 500 625 q 505 644 500 642 q 524 649 510 646 q 556 656 539 651 q 584 661 574 661 q 597 656 594 661 q 653 477 614 622 q 692 316 692 332 q 683 292 692 300 q 411 83 613 244 z "},"":{"ha":1231,"x_min":318,"x_max":1340,"o":"m 461 1067 l 486 1061 q 772 1181 632 1061 q 845 1247 811 1226 q 891 1267 879 1267 q 903 1253 903 1267 q 836 1150 903 1213 q 647 786 775 1061 q 608 701 610 704 q 600 693 606 697 q 592 689 594 689 q 551 684 586 690 q 503 678 517 678 q 489 687 489 678 q 514 725 489 696 q 575 809 543 756 q 662 969 607 863 q 742 1119 717 1075 q 514 1044 596 1044 q 478 1050 500 1044 q 456 1061 456 1056 q 461 1067 456 1067 m 1193 407 q 1197 413 1193 407 q 1209 424 1201 418 q 1231 439 1217 431 q 1261 461 1242 447 q 1309 489 1296 489 q 1322 483 1322 489 q 1301 449 1322 469 q 1272 419 1279 429 l 1025 -64 q 1003 -92 1014 -94 q 963 -97 997 -90 q 914 -103 928 -103 q 900 -94 900 -103 q 925 -56 900 -85 q 1067 175 971 -7 q 853 153 944 153 q 791 168 818 153 q 764 216 764 183 q 795 285 764 249 q 906 386 826 322 q 978 464 944 419 q 1058 489 997 489 q 1067 481 1067 489 q 1010 431 1067 475 q 898 331 954 388 q 842 239 842 274 q 978 200 842 200 q 1083 208 1033 200 q 1115 269 1097 235 q 1140 319 1132 303 q 1160 356 1149 335 q 1178 386 1172 376 q 1193 407 1185 396 m 375 314 q 328 293 336 293 q 318 297 319 293 q 353 336 318 315 l 1283 908 q 1328 928 1314 928 q 1340 922 1342 928 q 1306 886 1340 907 l 375 314 z "},"":{"ha":1231,"x_min":318,"x_max":1340,"o":"m 461 1067 l 486 1061 q 772 1181 632 1061 q 845 1247 811 1226 q 891 1267 879 1267 q 903 1253 903 1267 q 836 1150 903 1213 q 647 786 775 1061 q 608 701 610 704 q 600 693 606 697 q 592 689 594 689 q 551 684 586 690 q 503 678 517 678 q 489 687 489 678 q 514 725 489 696 q 575 809 543 756 q 662 969 607 863 q 742 1119 717 1075 q 514 1044 596 1044 q 478 1050 500 1044 q 456 1061 456 1056 q 461 1067 456 1067 m 1256 -28 q 1261 -34 1261 -28 q 1224 -61 1261 -40 q 1129 -101 1186 -82 q 1029 -119 1072 -119 q 876 -56 986 -119 q 722 8 765 8 q 619 -29 678 8 q 551 -67 561 -67 q 542 -59 542 -67 q 603 -13 542 -51 q 763 76 665 25 q 917 156 860 128 q 1026 213 975 183 q 1098 270 1076 242 q 1119 333 1119 299 q 975 450 1119 450 q 853 392 901 450 q 842 383 847 383 q 836 388 836 383 q 839 397 836 392 q 847 409 842 401 q 870 435 851 417 q 911 468 889 454 q 1036 506 971 506 q 1135 493 1101 506 q 1185 461 1169 481 q 1211 386 1211 426 q 1140 263 1208 325 q 1006 167 1071 201 q 863 98 940 133 q 778 58 786 63 q 906 26 842 58 q 1024 -37 969 -6 q 1122 -69 1078 -69 q 1211 -49 1167 -69 l 1256 -28 m 375 314 q 328 293 336 293 q 318 297 319 293 q 353 336 318 315 l 1283 908 q 1328 928 1314 928 q 1340 922 1342 928 q 1306 886 1340 907 l 375 314 z "},"":{"ha":1231,"x_min":318,"x_max":1340,"o":"m 1193 407 q 1197 413 1193 407 q 1209 424 1201 418 q 1231 439 1217 431 q 1261 461 1242 447 q 1309 489 1296 489 q 1322 483 1322 489 q 1301 449 1322 469 q 1272 419 1279 429 l 1025 -64 q 1003 -92 1014 -94 q 963 -97 997 -90 q 914 -103 928 -103 q 900 -94 900 -103 q 925 -56 900 -85 q 1067 175 971 -7 q 853 153 944 153 q 791 168 818 153 q 764 216 764 183 q 795 285 764 249 q 906 386 826 322 q 978 464 944 419 q 1058 489 997 489 q 1067 481 1067 489 q 1010 431 1067 475 q 898 331 954 388 q 842 239 842 274 q 978 200 842 200 q 1083 208 1033 200 q 1115 269 1097 235 q 1140 319 1132 303 q 1160 356 1149 335 q 1178 386 1172 376 q 1193 407 1185 396 m 639 1229 q 650 1236 639 1229 q 699 1255 661 1243 q 798 1267 738 1267 q 893 1236 858 1267 q 928 1170 928 1206 q 911 1108 928 1135 q 863 1064 894 1083 q 744 1011 813 1035 q 808 973 789 996 q 828 908 828 950 q 716 751 828 821 q 483 681 604 681 q 378 711 429 681 q 328 797 328 742 q 360 828 328 808 q 402 847 393 847 q 411 844 411 847 q 456 765 411 799 q 550 731 500 731 q 703 772 656 731 q 750 869 750 814 q 600 972 750 972 q 608 994 582 972 q 675 1026 636 1017 q 749 1051 714 1035 q 800 1085 785 1067 q 825 1146 825 1114 q 801 1201 825 1178 q 732 1225 776 1225 q 656 1208 688 1225 q 593 1165 611 1186 q 569 1144 575 1144 q 564 1149 564 1144 q 567 1158 564 1153 q 574 1170 569 1163 q 598 1197 579 1178 q 639 1229 617 1215 m 375 314 q 328 293 336 293 q 318 297 319 293 q 353 336 318 315 l 1283 908 q 1328 928 1314 928 q 1340 922 1342 928 q 1306 886 1340 907 l 375 314 z "},"":{"ha":669,"x_min":-114,"x_max":733,"o":"m 733 661 q 696 574 733 615 q 611 533 658 533 q 564 583 564 533 q 605 668 564 625 q 678 711 646 711 q 733 661 733 711 m -6 -319 q 42 -422 -6 -381 q 150 -464 89 -464 q 269 -435 211 -464 q 365 -376 328 -406 q 414 -347 406 -347 q 422 -353 422 -347 q 414 -367 422 -358 q 242 -486 325 -442 q 69 -531 158 -531 q -67 -486 -19 -531 q -114 -364 -114 -442 q 6 -182 -114 -264 q 125 -112 56 -147 q 400 57 338 -6 q 464 181 464 118 q 386 319 464 225 q 361 356 361 350 q 371 367 361 361 q 400 378 381 372 l 425 383 q 472 394 458 394 q 525 329 486 394 q 561 222 561 265 q 531 132 561 178 q 447 44 503 86 q 178 -117 333 -42 q 8 -250 39 -186 q -6 -319 -6 -281 z "},"":{"ha":1361,"x_min":-69,"x_max":1611,"o":"m 561 475 l 608 475 q 771 458 664 475 q 918 442 878 442 q 981 444 958 442 q 1032 744 1000 603 q 1081 957 1064 886 q 1108 1070 1097 1028 q 1119 1117 1119 1113 q 1117 1122 1119 1122 q 1078 1083 1106 1122 l 561 475 m 517 425 q 142 31 250 121 q 22 -8 101 0 q -9 -14 18 -8 q -53 -19 -36 -19 q -69 -8 -69 -19 q -47 11 -69 6 q 42 61 6 29 q 479 474 251 244 q 1036 1089 707 704 q 1073 1131 1058 1114 q 1103 1163 1088 1149 q 1125 1183 1118 1176 q 1147 1197 1132 1189 q 1165 1208 1161 1206 q 1202 1223 1183 1217 q 1245 1241 1221 1229 q 1279 1253 1269 1253 q 1289 1242 1289 1253 l 1289 1239 q 1274 1190 1289 1224 q 1258 1153 1258 1156 q 1172 844 1219 1047 q 1100 461 1124 642 q 1272 547 1194 485 q 1303 567 1297 567 q 1308 559 1308 567 q 1278 527 1308 551 q 1195 475 1247 503 q 1097 436 1143 447 q 1083 247 1083 315 q 1172 36 1083 36 q 1305 85 1224 36 q 1469 207 1386 135 q 1594 344 1551 279 q 1606 353 1600 353 q 1611 349 1611 353 q 1608 339 1611 344 q 1459 174 1533 239 q 1283 49 1385 108 q 1096 -11 1181 -11 q 986 41 1011 -11 q 961 203 961 93 q 975 411 961 314 q 801 397 850 397 q 660 413 751 397 q 547 428 568 428 q 517 425 525 428 m 1319 1412 q 1320 1408 1319 1412 q 1325 1399 1322 1404 q 1328 1391 1328 1393 q 1319 1389 1328 1389 q 1306 1400 1311 1389 l 1150 1656 q 1147 1674 1147 1658 q 1156 1708 1147 1690 q 1176 1725 1164 1725 q 1194 1711 1188 1725 l 1314 1422 q 1319 1412 1315 1419 z "},"":{"ha":1361,"x_min":-69,"x_max":1611,"o":"m 561 475 l 608 475 q 771 458 664 475 q 918 442 878 442 q 981 444 958 442 q 1032 744 1000 603 q 1081 957 1064 886 q 1108 1070 1097 1028 q 1119 1117 1119 1113 q 1117 1122 1119 1122 q 1078 1083 1106 1122 l 561 475 m 517 425 q 142 31 250 121 q 22 -8 101 0 q -9 -14 18 -8 q -53 -19 -36 -19 q -69 -8 -69 -19 q -47 11 -69 6 q 42 61 6 29 q 479 474 251 244 q 1036 1089 707 704 q 1073 1131 1058 1114 q 1103 1163 1088 1149 q 1125 1183 1118 1176 q 1147 1197 1132 1189 q 1165 1208 1161 1206 q 1202 1223 1183 1217 q 1245 1241 1221 1229 q 1279 1253 1269 1253 q 1289 1242 1289 1253 l 1289 1239 q 1274 1190 1289 1224 q 1258 1153 1258 1156 q 1172 844 1219 1047 q 1100 461 1124 642 q 1272 547 1194 485 q 1303 567 1297 567 q 1308 559 1308 567 q 1278 527 1308 551 q 1195 475 1247 503 q 1097 436 1143 447 q 1083 247 1083 315 q 1172 36 1083 36 q 1305 85 1224 36 q 1469 207 1386 135 q 1594 344 1551 279 q 1606 353 1600 353 q 1611 349 1611 353 q 1608 339 1611 344 q 1459 174 1533 239 q 1283 49 1385 108 q 1096 -11 1181 -11 q 986 41 1011 -11 q 961 203 961 93 q 975 411 961 314 q 801 397 850 397 q 660 413 751 397 q 547 428 568 428 q 517 425 525 428 m 1203 1411 l 1533 1603 q 1556 1611 1546 1611 q 1561 1600 1561 1611 q 1552 1572 1561 1589 q 1533 1550 1543 1554 q 1400 1489 1489 1531 q 1181 1389 1189 1389 q 1172 1391 1172 1389 q 1203 1411 1172 1393 z "},"":{"ha":1361,"x_min":-69,"x_max":1611,"o":"m 561 475 l 608 475 q 771 458 664 475 q 918 442 878 442 q 981 444 958 442 q 1032 744 1000 603 q 1081 957 1064 886 q 1108 1070 1097 1028 q 1119 1117 1119 1113 q 1117 1122 1119 1122 q 1078 1083 1106 1122 l 561 475 m 517 425 q 142 31 250 121 q 22 -8 101 0 q -9 -14 18 -8 q -53 -19 -36 -19 q -69 -8 -69 -19 q -47 11 -69 6 q 42 61 6 29 q 479 474 251 244 q 1036 1089 707 704 q 1073 1131 1058 1114 q 1103 1163 1088 1149 q 1125 1183 1118 1176 q 1147 1197 1132 1189 q 1165 1208 1161 1206 q 1202 1223 1183 1217 q 1245 1241 1221 1229 q 1279 1253 1269 1253 q 1289 1242 1289 1253 l 1289 1239 q 1274 1190 1289 1224 q 1258 1153 1258 1156 q 1172 844 1219 1047 q 1100 461 1124 642 q 1272 547 1194 485 q 1303 567 1297 567 q 1308 559 1308 567 q 1278 527 1308 551 q 1195 475 1247 503 q 1097 436 1143 447 q 1083 247 1083 315 q 1172 36 1083 36 q 1305 85 1224 36 q 1469 207 1386 135 q 1594 344 1551 279 q 1606 353 1600 353 q 1611 349 1611 353 q 1608 339 1611 344 q 1459 174 1533 239 q 1283 49 1385 108 q 1096 -11 1181 -11 q 986 41 1011 -11 q 961 203 961 93 q 975 411 961 314 q 801 397 850 397 q 660 413 751 397 q 547 428 568 428 q 517 425 525 428 m 1397 1597 q 1439 1619 1426 1619 q 1454 1611 1451 1619 q 1492 1533 1457 1603 q 1528 1426 1528 1463 q 1511 1416 1528 1424 q 1483 1399 1494 1408 q 1469 1389 1472 1389 l 1467 1388 l 1467 1389 q 1394 1553 1435 1468 l 1128 1406 q 1086 1392 1103 1392 l 1083 1394 q 1111 1414 1083 1397 q 1397 1597 1250 1500 z "},"":{"ha":1361,"x_min":-69,"x_max":1647,"o":"m 561 475 l 608 475 q 771 458 664 475 q 918 442 878 442 q 981 444 958 442 q 1032 744 1000 603 q 1081 957 1064 886 q 1108 1070 1097 1028 q 1119 1117 1119 1113 q 1117 1122 1119 1122 q 1078 1083 1106 1122 l 561 475 m 517 425 q 142 31 250 121 q 22 -8 101 0 q -9 -14 18 -8 q -53 -19 -36 -19 q -69 -8 -69 -19 q -47 11 -69 6 q 42 61 6 29 q 479 474 251 244 q 1036 1089 707 704 q 1073 1131 1058 1114 q 1103 1163 1088 1149 q 1125 1183 1118 1176 q 1147 1197 1132 1189 q 1165 1208 1161 1206 q 1202 1223 1183 1217 q 1245 1241 1221 1229 q 1279 1253 1269 1253 q 1289 1242 1289 1253 l 1289 1239 q 1274 1190 1289 1224 q 1258 1153 1258 1156 q 1172 844 1219 1047 q 1100 461 1124 642 q 1272 547 1194 485 q 1303 567 1297 567 q 1308 559 1308 567 q 1278 527 1308 551 q 1195 475 1247 503 q 1097 436 1143 447 q 1083 247 1083 315 q 1172 36 1083 36 q 1305 85 1224 36 q 1469 207 1386 135 q 1594 344 1551 279 q 1606 353 1600 353 q 1611 349 1611 353 q 1608 339 1611 344 q 1459 174 1533 239 q 1283 49 1385 108 q 1096 -11 1181 -11 q 986 41 1011 -11 q 961 203 961 93 q 975 411 961 314 q 801 397 850 397 q 660 413 751 397 q 547 428 568 428 q 517 425 525 428 m 1300 1567 q 1354 1546 1329 1567 q 1394 1500 1379 1525 q 1432 1454 1408 1475 q 1483 1433 1456 1433 q 1611 1531 1532 1433 q 1642 1564 1638 1564 q 1647 1558 1647 1564 q 1567 1459 1647 1532 q 1422 1386 1488 1386 q 1365 1407 1390 1386 q 1325 1453 1339 1428 q 1238 1519 1286 1519 q 1111 1422 1190 1519 q 1080 1389 1085 1389 q 1075 1394 1075 1389 q 1155 1494 1075 1421 q 1300 1567 1235 1567 z "},"":{"ha":1361,"x_min":-69,"x_max":1611,"o":"m 561 475 l 608 475 q 771 458 664 475 q 918 442 878 442 q 981 444 958 442 q 1032 744 1000 603 q 1081 957 1064 886 q 1108 1070 1097 1028 q 1119 1117 1119 1113 q 1117 1122 1119 1122 q 1078 1083 1106 1122 l 561 475 m 517 425 q 142 31 250 121 q 22 -8 101 0 q -9 -14 18 -8 q -53 -19 -36 -19 q -69 -8 -69 -19 q -47 11 -69 6 q 42 61 6 29 q 479 474 251 244 q 1036 1089 707 704 q 1073 1131 1058 1114 q 1103 1163 1088 1149 q 1125 1183 1118 1176 q 1147 1197 1132 1189 q 1165 1208 1161 1206 q 1202 1223 1183 1217 q 1245 1241 1221 1229 q 1279 1253 1269 1253 q 1289 1242 1289 1253 l 1289 1239 q 1274 1190 1289 1224 q 1258 1153 1258 1156 q 1172 844 1219 1047 q 1100 461 1124 642 q 1272 547 1194 485 q 1303 567 1297 567 q 1308 559 1308 567 q 1278 527 1308 551 q 1195 475 1247 503 q 1097 436 1143 447 q 1083 247 1083 315 q 1172 36 1083 36 q 1305 85 1224 36 q 1469 207 1386 135 q 1594 344 1551 279 q 1606 353 1600 353 q 1611 349 1611 353 q 1608 339 1611 344 q 1459 174 1533 239 q 1283 49 1385 108 q 1096 -11 1181 -11 q 986 41 1011 -11 q 961 203 961 93 q 975 411 961 314 q 801 397 850 397 q 660 413 751 397 q 547 428 568 428 q 517 425 525 428 m 1189 1464 q 1217 1528 1189 1494 q 1267 1561 1242 1561 q 1304 1547 1292 1561 q 1317 1506 1317 1532 q 1292 1447 1317 1479 q 1233 1414 1267 1414 q 1189 1464 1189 1414 m 1400 1464 q 1428 1528 1400 1494 q 1478 1561 1453 1561 q 1515 1547 1503 1561 q 1528 1506 1528 1532 q 1503 1447 1528 1479 q 1444 1414 1478 1414 q 1400 1464 1400 1414 z "},"":{"ha":1361,"x_min":-69,"x_max":1611,"o":"m 561 475 l 608 475 q 771 458 664 475 q 918 442 878 442 q 981 444 958 442 q 1032 744 1000 603 q 1081 957 1064 886 q 1108 1070 1097 1028 q 1119 1117 1119 1113 q 1117 1122 1119 1122 q 1078 1083 1106 1122 l 561 475 m 1158 1228 q 1122 1309 1122 1254 q 1172 1411 1122 1364 q 1278 1458 1222 1458 q 1363 1432 1333 1458 q 1392 1359 1392 1406 q 1353 1267 1392 1313 q 1261 1208 1315 1221 q 1193 930 1261 1206 q 1100 461 1125 654 q 1272 547 1194 485 q 1303 567 1297 567 q 1308 559 1308 567 q 1278 527 1308 551 q 1195 475 1247 503 q 1097 436 1143 447 q 1083 247 1083 315 q 1172 36 1083 36 q 1305 85 1224 36 q 1469 207 1386 135 q 1594 344 1551 279 q 1606 353 1600 353 q 1611 349 1611 353 q 1608 339 1611 344 q 1459 174 1533 239 q 1283 49 1385 108 q 1096 -11 1181 -11 q 986 41 1011 -11 q 961 203 961 93 q 975 411 961 314 q 801 397 850 397 q 660 413 751 397 q 547 428 568 428 q 517 425 525 428 q 142 31 250 121 q 22 -8 101 0 q -9 -14 18 -8 q -53 -19 -36 -19 q -69 -8 -69 -19 q -47 11 -69 6 q 42 61 6 29 q 479 474 251 244 q 1036 1089 707 704 l 1158 1228 m 1342 1332 q 1342 1351 1342 1332 q 1319 1397 1342 1369 q 1258 1425 1296 1425 q 1195 1392 1221 1425 q 1169 1323 1169 1360 q 1194 1261 1169 1286 q 1252 1236 1218 1236 q 1314 1265 1286 1236 q 1342 1332 1342 1294 z "},"":{"ha":1889,"x_min":-69,"x_max":2111,"o":"m 1811 347 l 1806 383 q 1811 392 1806 392 l 1844 369 q 1851 365 1847 368 q 1856 360 1854 361 q 1861 356 1858 358 q 1864 353 1863 356 q 1867 339 1867 349 q 1830 237 1867 297 q 1728 115 1793 176 q 1557 10 1664 53 q 1328 -33 1450 -33 q 1051 49 1136 -33 q 967 289 967 132 q 975 411 967 344 q 801 397 850 397 q 660 413 751 397 q 547 428 568 428 q 517 425 525 428 q 142 31 250 121 q 22 -8 101 0 q -9 -14 18 -8 q -53 -19 -36 -19 q -69 -8 -69 -19 q -47 11 -69 6 q 42 61 6 29 q 479 474 251 244 q 1036 1089 707 704 q 1073 1131 1058 1114 q 1103 1163 1088 1149 q 1125 1183 1118 1176 q 1147 1197 1132 1189 q 1165 1208 1161 1206 q 1202 1223 1183 1217 q 1245 1241 1221 1229 q 1279 1253 1269 1253 q 1289 1242 1289 1253 l 1289 1239 q 1274 1190 1289 1224 q 1258 1153 1258 1156 q 1119 592 1183 953 q 1287 688 1190 647 q 1443 747 1383 729 q 1503 769 1503 764 q 1486 792 1503 781 q 1403 948 1403 849 q 1515 1139 1403 1047 q 1817 1231 1626 1231 q 1961 1214 1885 1231 q 2111 1119 2111 1179 q 2096 1078 2111 1103 q 2071 1034 2081 1054 q 2056 1014 2061 1014 q 2044 1031 2050 1014 q 1959 1142 2028 1088 q 1794 1197 1890 1197 q 1636 1178 1697 1197 q 1546 1131 1574 1161 q 1497 1024 1497 1078 q 1527 915 1497 971 q 1603 833 1557 860 q 1658 800 1658 807 q 1647 763 1658 776 q 1600 744 1636 749 q 1385 694 1478 731 q 1237 613 1292 658 q 1147 510 1182 568 q 1089 283 1089 411 q 1118 161 1089 214 q 1194 81 1147 108 q 1389 25 1288 25 q 1697 124 1582 25 q 1811 347 1811 222 m 561 475 l 608 475 q 771 458 664 475 q 918 442 878 442 q 981 444 958 442 q 1032 744 1000 603 q 1081 957 1064 886 q 1108 1070 1097 1028 q 1119 1117 1119 1113 q 1117 1122 1119 1122 q 1078 1083 1106 1122 l 561 475 z "},"":{"ha":1194,"x_min":222,"x_max":1378,"o":"m 1378 1122 q 1378 1115 1378 1122 q 1349 1079 1378 1108 q 1313 1036 1321 1050 q 1297 1022 1304 1022 q 1289 1033 1289 1022 q 1225 1125 1289 1081 q 1089 1169 1161 1169 q 822 1094 950 1169 q 491 758 626 967 q 356 317 356 549 q 435 100 356 189 q 633 11 514 11 q 945 92 833 11 q 1097 300 1057 174 q 1114 333 1107 333 q 1143 309 1128 333 q 1158 268 1158 285 q 1136 217 1158 251 q 1065 139 1114 182 q 952 58 1017 96 q 790 -7 888 19 q 586 -33 693 -33 q 326 69 429 -33 q 222 325 222 171 q 391 765 222 542 q 803 1125 560 988 q 1178 1231 986 1231 q 1349 1167 1288 1231 q 1378 1122 1378 1136 m 592 0 q 517 -131 592 -6 q 640 -168 603 -131 q 678 -258 678 -206 q 631 -356 678 -310 q 522 -403 583 -403 q 422 -372 460 -403 q 383 -317 383 -342 q 397 -306 383 -312 q 419 -300 411 -300 q 433 -322 422 -300 q 466 -367 443 -344 q 528 -389 489 -389 q 596 -358 567 -389 q 625 -293 625 -328 q 611 -240 625 -258 q 572 -214 597 -221 q 499 -203 532 -203 q 461 -208 467 -203 q 446 -214 456 -214 q 436 -211 436 -214 q 456 -175 436 -206 q 564 0 522 -71 q 579 3 567 3 q 592 0 592 3 z "},"":{"ha":1158,"x_min":219,"x_max":1381,"o":"m 1081 347 l 1075 383 q 1081 392 1075 392 l 1114 369 q 1120 365 1117 368 q 1126 360 1124 361 q 1131 356 1128 358 q 1133 353 1132 356 q 1136 339 1136 349 q 1099 237 1136 297 q 998 115 1063 176 q 826 10 933 53 q 589 -33 719 -33 q 339 50 458 -33 q 219 264 219 133 q 260 439 219 358 q 363 569 301 519 q 496 658 424 618 q 629 717 568 697 q 772 769 772 764 q 756 792 772 781 q 672 948 672 849 q 784 1139 672 1047 q 1086 1231 896 1231 q 1231 1214 1154 1231 q 1381 1119 1381 1179 q 1365 1078 1381 1103 q 1340 1034 1350 1054 q 1325 1014 1331 1014 q 1314 1031 1319 1014 q 1228 1142 1297 1088 q 1063 1197 1160 1197 q 906 1178 967 1197 q 815 1131 843 1161 q 767 1024 767 1078 q 797 915 767 971 q 872 833 826 860 q 928 800 928 807 q 917 763 928 776 q 869 744 906 749 q 654 694 747 731 q 506 613 561 658 q 417 510 451 568 q 358 283 358 411 q 388 161 358 214 q 464 81 417 108 q 658 25 594 29 q 966 124 851 25 q 1081 347 1081 222 m 1185 1412 q 1187 1408 1185 1412 q 1192 1399 1189 1404 q 1194 1391 1194 1393 q 1186 1389 1194 1389 q 1172 1400 1178 1389 l 1017 1656 q 1014 1674 1014 1658 q 1022 1708 1014 1690 q 1042 1725 1031 1725 q 1061 1711 1054 1725 l 1181 1422 q 1185 1412 1182 1419 z "},"":{"ha":1158,"x_min":219,"x_max":1381,"o":"m 1081 347 l 1075 383 q 1081 392 1075 392 l 1114 369 q 1120 365 1117 368 q 1126 360 1124 361 q 1131 356 1128 358 q 1133 353 1132 356 q 1136 339 1136 349 q 1099 237 1136 297 q 998 115 1063 176 q 826 10 933 53 q 589 -33 719 -33 q 339 50 458 -33 q 219 264 219 133 q 260 439 219 358 q 363 569 301 519 q 496 658 424 618 q 629 717 568 697 q 772 769 772 764 q 756 792 772 781 q 672 948 672 849 q 784 1139 672 1047 q 1086 1231 896 1231 q 1231 1214 1154 1231 q 1381 1119 1381 1179 q 1365 1078 1381 1103 q 1340 1034 1350 1054 q 1325 1014 1331 1014 q 1314 1031 1319 1014 q 1228 1142 1297 1088 q 1063 1197 1160 1197 q 906 1178 967 1197 q 815 1131 843 1161 q 767 1024 767 1078 q 797 915 767 971 q 872 833 826 860 q 928 800 928 807 q 917 763 928 776 q 869 744 906 749 q 654 694 747 731 q 506 613 561 658 q 417 510 451 568 q 358 283 358 411 q 388 161 358 214 q 464 81 417 108 q 658 25 594 29 q 966 124 851 25 q 1081 347 1081 222 m 1006 1411 l 1336 1603 q 1358 1611 1349 1611 q 1364 1600 1364 1611 q 1355 1572 1364 1589 q 1336 1550 1346 1554 q 1203 1489 1292 1531 q 983 1389 992 1389 q 975 1391 975 1389 q 1006 1411 975 1393 z "},"":{"ha":1158,"x_min":219,"x_max":1394,"o":"m 1081 347 l 1075 383 q 1081 392 1075 392 l 1114 369 q 1120 365 1117 368 q 1126 360 1124 361 q 1131 356 1128 358 q 1133 353 1132 356 q 1136 339 1136 349 q 1099 237 1136 297 q 998 115 1063 176 q 826 10 933 53 q 589 -33 719 -33 q 339 50 458 -33 q 219 264 219 133 q 260 439 219 358 q 363 569 301 519 q 496 658 424 618 q 629 717 568 697 q 772 769 772 764 q 756 792 772 781 q 672 948 672 849 q 784 1139 672 1047 q 1086 1231 896 1231 q 1231 1214 1154 1231 q 1381 1119 1381 1179 q 1365 1078 1381 1103 q 1340 1034 1350 1054 q 1325 1014 1331 1014 q 1314 1031 1319 1014 q 1228 1142 1297 1088 q 1063 1197 1160 1197 q 906 1178 967 1197 q 815 1131 843 1161 q 767 1024 767 1078 q 797 915 767 971 q 872 833 826 860 q 928 800 928 807 q 917 763 928 776 q 869 744 906 749 q 654 694 747 731 q 506 613 561 658 q 417 510 451 568 q 358 283 358 411 q 388 161 358 214 q 464 81 417 108 q 658 25 594 29 q 966 124 851 25 q 1081 347 1081 222 m 1264 1597 q 1306 1619 1293 1619 q 1321 1611 1318 1619 q 1359 1533 1324 1603 q 1394 1426 1394 1463 q 1378 1416 1394 1424 q 1350 1399 1361 1408 q 1336 1389 1339 1389 l 1333 1388 l 1333 1389 q 1261 1553 1301 1468 l 994 1406 q 953 1392 969 1392 l 950 1394 q 978 1414 950 1397 q 1264 1597 1117 1500 z "},"":{"ha":1158,"x_min":219,"x_max":1394,"o":"m 1081 347 l 1075 383 q 1081 392 1075 392 l 1114 369 q 1120 365 1117 368 q 1126 360 1124 361 q 1131 356 1128 358 q 1133 353 1132 356 q 1136 339 1136 349 q 1099 237 1136 297 q 998 115 1063 176 q 826 10 933 53 q 589 -33 719 -33 q 339 50 458 -33 q 219 264 219 133 q 260 439 219 358 q 363 569 301 519 q 496 658 424 618 q 629 717 568 697 q 772 769 772 764 q 756 792 772 781 q 672 948 672 849 q 784 1139 672 1047 q 1086 1231 896 1231 q 1231 1214 1154 1231 q 1381 1119 1381 1179 q 1365 1078 1381 1103 q 1340 1034 1350 1054 q 1325 1014 1331 1014 q 1314 1031 1319 1014 q 1228 1142 1297 1088 q 1063 1197 1160 1197 q 906 1178 967 1197 q 815 1131 843 1161 q 767 1024 767 1078 q 797 915 767 971 q 872 833 826 860 q 928 800 928 807 q 917 763 928 776 q 869 744 906 749 q 654 694 747 731 q 506 613 561 658 q 417 510 451 568 q 358 283 358 411 q 388 161 358 214 q 464 81 417 108 q 658 25 594 29 q 966 124 851 25 q 1081 347 1081 222 m 1056 1464 q 1083 1528 1056 1494 q 1133 1561 1108 1561 q 1171 1547 1158 1561 q 1183 1506 1183 1532 q 1158 1447 1183 1479 q 1100 1414 1133 1414 q 1056 1464 1056 1414 m 1267 1464 q 1294 1528 1267 1494 q 1344 1561 1319 1561 q 1382 1547 1369 1561 q 1394 1506 1394 1532 q 1369 1447 1394 1479 q 1311 1414 1344 1414 q 1267 1464 1267 1414 z "},"":{"ha":958,"x_min":106,"x_max":1314,"o":"m 783 1106 q 836 1226 836 1182 q 806 1294 836 1269 q 718 1319 775 1319 q 606 1287 661 1319 q 550 1186 550 1254 q 567 1143 550 1154 q 594 1126 583 1132 q 626 1116 606 1119 q 660 1110 646 1113 q 700 1107 675 1108 q 742 1106 728 1106 l 783 1106 m 231 319 q 203 217 203 286 q 262 78 203 149 q 394 8 321 8 q 527 78 467 8 q 653 289 588 149 q 1139 1125 876 758 q 977 1096 1093 1111 q 800 1078 861 1081 q 675 945 764 1032 q 514 797 586 858 q 483 775 492 775 q 475 781 475 775 q 507 816 475 790 q 629 934 539 842 q 761 1078 719 1026 q 472 1172 472 1078 q 533 1269 472 1225 q 663 1333 593 1313 q 783 1353 733 1353 q 900 1275 900 1353 q 822 1108 900 1229 q 1128 1161 1011 1118 q 1213 1180 1153 1171 q 1294 1189 1274 1189 q 1314 1181 1314 1189 q 1297 1166 1314 1178 q 1275 1147 1279 1154 q 1023 755 1125 932 q 789 311 921 578 q 336 -17 628 -17 q 176 40 247 -17 q 106 189 106 96 q 132 224 106 197 q 178 274 158 250 q 209 312 199 299 q 222 325 219 325 q 231 319 231 325 m 1133 1412 q 1134 1408 1133 1412 q 1139 1399 1136 1404 q 1142 1391 1142 1393 q 1133 1389 1142 1389 q 1119 1400 1125 1389 l 964 1656 q 961 1674 961 1658 q 969 1708 961 1690 q 990 1725 978 1725 q 1008 1711 1001 1725 l 1128 1422 q 1133 1412 1129 1419 z "},"":{"ha":958,"x_min":106,"x_max":1358,"o":"m 783 1106 q 836 1226 836 1182 q 806 1294 836 1269 q 718 1319 775 1319 q 606 1287 661 1319 q 550 1186 550 1254 q 567 1143 550 1154 q 594 1126 583 1132 q 626 1116 606 1119 q 660 1110 646 1113 q 700 1107 675 1108 q 742 1106 728 1106 l 783 1106 m 231 319 q 203 217 203 286 q 262 78 203 149 q 394 8 321 8 q 527 78 467 8 q 653 289 588 149 q 1139 1125 876 758 q 977 1096 1093 1111 q 800 1078 861 1081 q 675 945 764 1032 q 514 797 586 858 q 483 775 492 775 q 475 781 475 775 q 507 816 475 790 q 629 934 539 842 q 761 1078 719 1026 q 472 1172 472 1078 q 533 1269 472 1225 q 663 1333 593 1313 q 783 1353 733 1353 q 900 1275 900 1353 q 822 1108 900 1229 q 1128 1161 1011 1118 q 1213 1180 1153 1171 q 1294 1189 1274 1189 q 1314 1181 1314 1189 q 1297 1166 1314 1178 q 1275 1147 1279 1154 q 1023 755 1125 932 q 789 311 921 578 q 336 -17 628 -17 q 176 40 247 -17 q 106 189 106 96 q 132 224 106 197 q 178 274 158 250 q 209 312 199 299 q 222 325 219 325 q 231 319 231 325 m 1000 1411 l 1331 1603 q 1353 1611 1343 1611 q 1358 1600 1358 1611 q 1349 1572 1358 1589 q 1331 1550 1340 1554 q 1197 1489 1286 1531 q 978 1389 986 1389 q 969 1391 969 1389 q 1000 1411 969 1393 z "},"":{"ha":958,"x_min":106,"x_max":1389,"o":"m 783 1106 q 836 1226 836 1182 q 806 1294 836 1269 q 718 1319 775 1319 q 606 1287 661 1319 q 550 1186 550 1254 q 567 1143 550 1154 q 594 1126 583 1132 q 626 1116 606 1119 q 660 1110 646 1113 q 700 1107 675 1108 q 742 1106 728 1106 l 783 1106 m 231 319 q 203 217 203 286 q 262 78 203 149 q 394 8 321 8 q 527 78 467 8 q 653 289 588 149 q 1139 1125 876 758 q 977 1096 1093 1111 q 800 1078 861 1081 q 675 945 764 1032 q 514 797 586 858 q 483 775 492 775 q 475 781 475 775 q 507 816 475 790 q 629 934 539 842 q 761 1078 719 1026 q 472 1172 472 1078 q 533 1269 472 1225 q 663 1333 593 1313 q 783 1353 733 1353 q 900 1275 900 1353 q 822 1108 900 1229 q 1128 1161 1011 1118 q 1213 1180 1153 1171 q 1294 1189 1274 1189 q 1314 1181 1314 1189 q 1297 1166 1314 1178 q 1275 1147 1279 1154 q 1023 755 1125 932 q 789 311 921 578 q 336 -17 628 -17 q 176 40 247 -17 q 106 189 106 96 q 132 224 106 197 q 178 274 158 250 q 209 312 199 299 q 222 325 219 325 q 231 319 231 325 m 1258 1597 q 1300 1619 1288 1619 q 1315 1611 1313 1619 q 1353 1533 1318 1603 q 1389 1426 1389 1463 q 1372 1416 1389 1424 q 1344 1399 1356 1408 q 1331 1389 1333 1389 l 1328 1388 l 1328 1389 q 1256 1553 1296 1468 l 989 1406 q 947 1392 964 1392 l 944 1394 q 972 1414 944 1397 q 1258 1597 1111 1500 z "},"":{"ha":958,"x_min":106,"x_max":1389,"o":"m 783 1106 q 836 1226 836 1182 q 806 1294 836 1269 q 718 1319 775 1319 q 606 1287 661 1319 q 550 1186 550 1254 q 567 1143 550 1154 q 594 1126 583 1132 q 626 1116 606 1119 q 660 1110 646 1113 q 700 1107 675 1108 q 742 1106 728 1106 l 783 1106 m 231 319 q 203 217 203 286 q 262 78 203 149 q 394 8 321 8 q 527 78 467 8 q 653 289 588 149 q 1139 1125 876 758 q 977 1096 1093 1111 q 800 1078 861 1081 q 675 945 764 1032 q 514 797 586 858 q 483 775 492 775 q 475 781 475 775 q 507 816 475 790 q 629 934 539 842 q 761 1078 719 1026 q 472 1172 472 1078 q 533 1269 472 1225 q 663 1333 593 1313 q 783 1353 733 1353 q 900 1275 900 1353 q 822 1108 900 1229 q 1128 1161 1011 1118 q 1213 1180 1153 1171 q 1294 1189 1274 1189 q 1314 1181 1314 1189 q 1297 1166 1314 1178 q 1275 1147 1279 1154 q 1023 755 1125 932 q 789 311 921 578 q 336 -17 628 -17 q 176 40 247 -17 q 106 189 106 96 q 132 224 106 197 q 178 274 158 250 q 209 312 199 299 q 222 325 219 325 q 231 319 231 325 m 1050 1464 q 1078 1528 1050 1494 q 1128 1561 1103 1561 q 1165 1547 1153 1561 q 1178 1506 1178 1532 q 1153 1447 1178 1479 q 1094 1414 1128 1414 q 1050 1464 1050 1414 m 1261 1464 q 1289 1528 1261 1494 q 1339 1561 1314 1561 q 1376 1547 1364 1561 q 1389 1506 1389 1532 q 1364 1447 1389 1479 q 1306 1414 1339 1414 q 1261 1464 1261 1414 z "},"":{"ha":1903,"x_min":181,"x_max":1744,"o":"m 667 258 q 561 386 593 361 q 500 411 529 411 q 338 309 418 411 q 258 125 258 207 q 369 36 258 36 q 509 91 428 36 q 667 258 590 146 m 775 333 q 814 254 789 308 q 858 165 839 200 q 908 89 878 129 q 1085 8 971 8 q 1304 74 1200 8 q 1477 242 1408 139 q 1585 471 1546 346 q 1625 717 1625 596 q 1256 1186 1625 1111 q 999 703 1140 957 q 775 333 858 450 m 544 853 q 553 814 544 836 q 543 808 553 808 q 517 825 533 808 q 489 850 500 842 q 467 883 467 867 q 562 1061 467 979 q 793 1187 657 1143 q 1064 1231 929 1231 q 1153 1228 1125 1231 q 1167 1289 1167 1260 q 1134 1372 1167 1347 q 1044 1397 1101 1397 q 942 1379 986 1397 q 872 1343 899 1361 q 842 1325 844 1325 q 833 1333 833 1325 q 864 1361 833 1339 q 954 1407 894 1383 q 1067 1431 1014 1431 q 1163 1420 1121 1431 q 1241 1376 1204 1410 q 1278 1286 1278 1342 q 1264 1214 1278 1256 q 1744 650 1744 1135 q 1692 394 1744 519 q 1550 177 1639 269 q 1338 28 1461 85 q 1083 -28 1215 -28 q 900 11 986 -28 q 831 62 869 25 q 773 122 793 99 q 726 181 753 146 q 692 225 699 217 q 560 92 618 142 q 431 10 501 43 q 310 -22 361 -22 q 219 3 258 -22 q 181 81 181 28 q 224 206 181 133 q 328 341 267 279 q 463 446 389 403 q 594 489 538 489 q 742 383 667 489 q 976 833 867 604 q 1142 1203 1086 1061 q 1056 1206 1114 1206 q 822 1155 942 1206 q 624 1021 703 1104 q 544 853 544 938 m 1272 694 q 1278 688 1278 694 q 1228 653 1278 681 q 1178 628 1188 628 q 933 625 1111 626 q 622 617 756 624 q 617 619 617 617 q 661 656 617 628 q 722 683 706 683 q 1272 694 967 694 z "},"":{"ha":1264,"x_min":119,"x_max":1708,"o":"m 986 50 q 938 -13 969 7 q 881 -33 907 -33 q 825 100 825 -33 l 831 1056 q 829 1113 831 1103 q 822 1122 828 1122 q 781 1072 806 1122 l 242 50 q 189 0 225 17 q 147 -30 158 -15 q 128 -44 136 -44 q 119 -39 119 -44 q 128 -14 119 -33 q 236 317 236 226 q 214 408 236 408 q 195 401 207 408 q 178 394 183 394 q 172 403 172 394 l 217 431 q 233 442 224 435 q 264 456 253 456 q 294 442 275 456 q 333 344 333 414 l 761 1131 q 813 1188 778 1165 q 900 1211 849 1211 q 947 1128 947 1211 l 939 103 q 1200 635 985 217 q 1478 1114 1415 1054 q 1600 1206 1553 1189 q 1644 1214 1621 1214 q 1688 1203 1667 1214 q 1708 1182 1708 1193 q 1688 1153 1708 1171 q 1646 1114 1667 1133 q 1599 1075 1600 1074 q 1592 1083 1592 1075 q 1582 1100 1592 1092 q 1558 1108 1572 1108 q 1486 1061 1518 1108 q 1210 551 1376 901 q 986 50 1044 200 m 1261 1567 q 1315 1546 1290 1567 q 1355 1500 1340 1525 q 1393 1454 1369 1475 q 1444 1433 1417 1433 q 1572 1531 1493 1433 q 1603 1564 1599 1564 q 1608 1558 1608 1564 q 1528 1459 1608 1532 q 1383 1386 1449 1386 q 1326 1407 1351 1386 q 1286 1453 1300 1428 q 1199 1519 1247 1519 q 1072 1422 1151 1519 q 1041 1389 1046 1389 q 1036 1394 1036 1389 q 1116 1494 1036 1421 q 1261 1567 1196 1567 z "},"":{"ha":1333,"x_min":214,"x_max":1486,"o":"m 1381 1233 q 1453 1110 1421 1233 q 1486 859 1486 986 q 1429 591 1486 732 q 1279 340 1372 450 q 1073 144 1186 229 q 840 13 960 58 q 617 -33 721 -33 q 423 9 514 -33 q 273 140 332 51 q 214 353 214 228 q 281 636 214 478 q 731 1144 431 988 q 1067 1231 894 1231 q 1221 1183 1142 1231 q 1300 1081 1300 1135 q 1288 1053 1300 1072 q 1269 1024 1275 1033 q 1258 997 1267 1014 q 1236 967 1243 967 q 1222 981 1222 967 q 1200 1080 1222 1038 q 1143 1143 1178 1122 q 1008 1183 1076 1183 q 494 881 697 1183 q 328 425 328 633 q 418 154 328 258 q 656 50 508 50 q 1006 160 833 50 q 1290 451 1179 269 q 1400 825 1400 632 q 1387 945 1400 896 q 1364 1025 1374 994 q 1344 1079 1354 1056 q 1326 1120 1335 1103 q 1308 1158 1318 1138 q 1337 1200 1308 1167 q 1381 1233 1365 1233 m 1180 1412 q 1182 1408 1180 1412 q 1186 1399 1183 1404 q 1189 1391 1189 1393 q 1181 1389 1189 1389 q 1167 1400 1172 1389 l 1011 1656 q 1008 1674 1008 1658 q 1017 1708 1008 1690 q 1037 1725 1025 1725 q 1056 1711 1049 1725 l 1175 1422 q 1180 1412 1176 1419 z "},"":{"ha":1333,"x_min":214,"x_max":1486,"o":"m 1381 1233 q 1453 1110 1421 1233 q 1486 859 1486 986 q 1429 591 1486 732 q 1279 340 1372 450 q 1073 144 1186 229 q 840 13 960 58 q 617 -33 721 -33 q 423 9 514 -33 q 273 140 332 51 q 214 353 214 228 q 281 636 214 478 q 731 1144 431 988 q 1067 1231 894 1231 q 1221 1183 1142 1231 q 1300 1081 1300 1135 q 1288 1053 1300 1072 q 1269 1024 1275 1033 q 1258 997 1267 1014 q 1236 967 1243 967 q 1222 981 1222 967 q 1200 1080 1222 1038 q 1143 1143 1178 1122 q 1008 1183 1076 1183 q 494 881 697 1183 q 328 425 328 633 q 418 154 328 258 q 656 50 508 50 q 1006 160 833 50 q 1290 451 1179 269 q 1400 825 1400 632 q 1387 945 1400 896 q 1364 1025 1374 994 q 1344 1079 1354 1056 q 1326 1120 1335 1103 q 1308 1158 1318 1138 q 1337 1200 1308 1167 q 1381 1233 1365 1233 m 1064 1411 l 1394 1603 q 1417 1611 1407 1611 q 1422 1600 1422 1611 q 1413 1572 1422 1589 q 1394 1550 1404 1554 q 1261 1489 1350 1531 q 1042 1389 1050 1389 q 1033 1391 1033 1389 q 1064 1411 1033 1393 z "},"":{"ha":1333,"x_min":214,"x_max":1486,"o":"m 1381 1233 q 1453 1110 1421 1233 q 1486 859 1486 986 q 1429 591 1486 732 q 1279 340 1372 450 q 1073 144 1186 229 q 840 13 960 58 q 617 -33 721 -33 q 423 9 514 -33 q 273 140 332 51 q 214 353 214 228 q 281 636 214 478 q 731 1144 431 988 q 1067 1231 894 1231 q 1221 1183 1142 1231 q 1300 1081 1300 1135 q 1288 1053 1300 1072 q 1269 1024 1275 1033 q 1258 997 1267 1014 q 1236 967 1243 967 q 1222 981 1222 967 q 1200 1080 1222 1038 q 1143 1143 1178 1122 q 1008 1183 1076 1183 q 494 881 697 1183 q 328 425 328 633 q 418 154 328 258 q 656 50 508 50 q 1006 160 833 50 q 1290 451 1179 269 q 1400 825 1400 632 q 1387 945 1400 896 q 1364 1025 1374 994 q 1344 1079 1354 1056 q 1326 1120 1335 1103 q 1308 1158 1318 1138 q 1337 1200 1308 1167 q 1381 1233 1365 1233 m 1258 1597 q 1300 1619 1288 1619 q 1315 1611 1313 1619 q 1353 1533 1318 1603 q 1389 1426 1389 1463 q 1372 1416 1389 1424 q 1344 1399 1356 1408 q 1331 1389 1333 1389 l 1328 1388 l 1328 1389 q 1256 1553 1296 1468 l 989 1406 q 947 1392 964 1392 l 944 1394 q 972 1414 944 1397 q 1258 1597 1111 1500 z "},"":{"ha":1333,"x_min":214,"x_max":1508,"o":"m 1381 1233 q 1453 1110 1421 1233 q 1486 859 1486 986 q 1429 591 1486 732 q 1279 340 1372 450 q 1073 144 1186 229 q 840 13 960 58 q 617 -33 721 -33 q 423 9 514 -33 q 273 140 332 51 q 214 353 214 228 q 281 636 214 478 q 731 1144 431 988 q 1067 1231 894 1231 q 1221 1183 1142 1231 q 1300 1081 1300 1135 q 1288 1053 1300 1072 q 1269 1024 1275 1033 q 1258 997 1267 1014 q 1236 967 1243 967 q 1222 981 1222 967 q 1200 1080 1222 1038 q 1143 1143 1178 1122 q 1008 1183 1076 1183 q 494 881 697 1183 q 328 425 328 633 q 418 154 328 258 q 656 50 508 50 q 1006 160 833 50 q 1290 451 1179 269 q 1400 825 1400 632 q 1387 945 1400 896 q 1364 1025 1374 994 q 1344 1079 1354 1056 q 1326 1120 1335 1103 q 1308 1158 1318 1138 q 1337 1200 1308 1167 q 1381 1233 1365 1233 m 1161 1567 q 1215 1546 1190 1567 q 1255 1500 1240 1525 q 1293 1454 1269 1475 q 1344 1433 1317 1433 q 1472 1531 1393 1433 q 1503 1564 1499 1564 q 1508 1558 1508 1564 q 1428 1459 1508 1532 q 1283 1386 1349 1386 q 1226 1407 1251 1386 q 1186 1453 1200 1428 q 1099 1519 1147 1519 q 972 1422 1051 1519 q 941 1389 946 1389 q 936 1394 936 1389 q 1016 1494 936 1421 q 1161 1567 1096 1567 z "},"":{"ha":1333,"x_min":214,"x_max":1486,"o":"m 1381 1233 q 1453 1110 1421 1233 q 1486 859 1486 986 q 1429 591 1486 732 q 1279 340 1372 450 q 1073 144 1186 229 q 840 13 960 58 q 617 -33 721 -33 q 423 9 514 -33 q 273 140 332 51 q 214 353 214 228 q 281 636 214 478 q 731 1144 431 988 q 1067 1231 894 1231 q 1221 1183 1142 1231 q 1300 1081 1300 1135 q 1288 1053 1300 1072 q 1269 1024 1275 1033 q 1258 997 1267 1014 q 1236 967 1243 967 q 1222 981 1222 967 q 1200 1080 1222 1038 q 1143 1143 1178 1122 q 1008 1183 1076 1183 q 494 881 697 1183 q 328 425 328 633 q 418 154 328 258 q 656 50 508 50 q 1006 160 833 50 q 1290 451 1179 269 q 1400 825 1400 632 q 1387 945 1400 896 q 1364 1025 1374 994 q 1344 1079 1354 1056 q 1326 1120 1335 1103 q 1308 1158 1318 1138 q 1337 1200 1308 1167 q 1381 1233 1365 1233 m 1050 1464 q 1078 1528 1050 1494 q 1128 1561 1103 1561 q 1165 1547 1153 1561 q 1178 1506 1178 1532 q 1153 1447 1178 1479 q 1094 1414 1128 1414 q 1050 1464 1050 1414 m 1261 1464 q 1289 1528 1261 1494 q 1339 1561 1314 1561 q 1376 1547 1364 1561 q 1389 1506 1389 1532 q 1364 1447 1389 1479 q 1306 1414 1339 1414 q 1261 1464 1261 1414 z "},"":{"ha":1147,"x_min":308,"x_max":1081,"o":"m 672 339 q 568 241 624 294 q 478 155 513 188 q 411 92 444 122 q 321 33 332 33 q 319 33 321 33 q 314 36 317 33 q 311 42 311 39 q 529 272 311 69 q 639 375 618 356 q 542 468 629 385 q 308 714 308 690 q 320 733 308 724 q 342 753 332 743 q 367 764 353 764 q 617 511 378 764 l 697 428 q 827 560 751 481 q 945 682 903 639 q 1006 732 988 725 q 1040 739 1024 739 q 1069 732 1057 739 q 1081 717 1081 725 l 728 389 q 897 216 750 361 q 1056 56 1044 71 q 1067 33 1067 40 q 1047 19 1067 19 q 1014 25 1028 19 q 751 263 989 33 l 672 339 z "},"":{"ha":1333,"x_min":78,"x_max":1675,"o":"m 1381 1233 q 1453 1110 1421 1233 q 1486 859 1486 986 q 1429 591 1486 732 q 1279 340 1372 450 q 1073 144 1186 229 q 840 13 960 58 q 617 -33 721 -33 q 423 9 514 -33 q 273 140 332 51 q 214 353 214 228 q 281 636 214 478 q 731 1144 431 988 q 1067 1231 894 1231 q 1221 1183 1142 1231 q 1300 1081 1300 1135 q 1288 1053 1300 1072 q 1269 1024 1275 1033 q 1258 997 1267 1014 q 1236 967 1243 967 q 1222 981 1222 967 q 1200 1080 1222 1038 q 1143 1143 1178 1122 q 1008 1183 1076 1183 q 494 881 697 1183 q 328 425 328 633 q 418 154 328 258 q 656 50 508 50 q 1006 160 833 50 q 1290 451 1179 269 q 1400 825 1400 632 q 1387 945 1400 896 q 1364 1025 1374 994 q 1344 1079 1354 1056 q 1326 1120 1335 1103 q 1308 1158 1318 1138 q 1337 1200 1308 1167 q 1381 1233 1365 1233 m 1619 1072 q 1664 1083 1653 1083 q 1675 1075 1675 1083 q 1669 1064 1675 1067 q 1606 1028 1664 1061 q 1439 928 1544 994 l 292 217 q 97 106 117 106 q 78 119 78 106 q 82 128 78 125 q 139 160 86 131 q 289 247 192 189 l 1433 961 q 1619 1072 1588 1061 z "},"":{"ha":1411,"x_min":281,"x_max":1661,"o":"m 631 1231 q 762 1192 715 1231 q 808 1099 808 1153 q 767 958 808 1046 q 668 769 726 869 q 551 569 610 669 q 411 219 411 328 q 456 88 411 132 q 571 44 501 44 q 718 81 640 44 q 869 178 797 117 q 1108 419 999 286 q 1325 856 1250 724 q 1497 1111 1400 989 q 1611 1192 1563 1192 q 1628 1181 1628 1192 q 1353 697 1628 1114 q 1317 644 1319 647 q 1180 371 1254 550 q 1106 100 1106 192 q 1124 56 1106 71 q 1194 42 1142 42 q 1334 89 1246 42 q 1485 188 1422 136 q 1591 283 1549 239 q 1644 344 1633 326 q 1656 353 1650 353 q 1661 349 1661 353 q 1658 339 1661 344 q 1497 173 1576 239 q 1308 48 1418 107 q 1100 -11 1197 -11 q 1024 17 1049 -11 q 1000 89 1000 44 q 1064 306 1000 161 q 936 188 983 229 q 808 89 886 146 q 508 -22 656 -22 q 344 36 407 -22 q 281 194 281 94 q 344 408 281 268 q 486 678 408 550 q 692 1083 692 1017 q 581 1192 692 1192 q 465 1169 517 1192 q 369 1102 413 1146 q 319 1058 325 1058 q 314 1067 314 1058 q 344 1106 314 1075 q 631 1231 465 1231 m 1222 1412 q 1223 1408 1222 1412 q 1228 1399 1225 1404 q 1231 1391 1231 1393 q 1222 1389 1231 1389 q 1208 1400 1214 1389 l 1053 1656 q 1050 1674 1050 1658 q 1058 1708 1050 1690 q 1078 1725 1067 1725 q 1097 1711 1090 1725 l 1217 1422 q 1222 1412 1218 1419 z "},"":{"ha":1411,"x_min":281,"x_max":1661,"o":"m 631 1231 q 762 1192 715 1231 q 808 1099 808 1153 q 767 958 808 1046 q 668 769 726 869 q 551 569 610 669 q 411 219 411 328 q 456 88 411 132 q 571 44 501 44 q 718 81 640 44 q 869 178 797 117 q 1108 419 999 286 q 1325 856 1250 724 q 1497 1111 1400 989 q 1611 1192 1563 1192 q 1628 1181 1628 1192 q 1353 697 1628 1114 q 1317 644 1319 647 q 1180 371 1254 550 q 1106 100 1106 192 q 1124 56 1106 71 q 1194 42 1142 42 q 1334 89 1246 42 q 1485 188 1422 136 q 1591 283 1549 239 q 1644 344 1633 326 q 1656 353 1650 353 q 1661 349 1661 353 q 1658 339 1661 344 q 1497 173 1576 239 q 1308 48 1418 107 q 1100 -11 1197 -11 q 1024 17 1049 -11 q 1000 89 1000 44 q 1064 306 1000 161 q 936 188 983 229 q 808 89 886 146 q 508 -22 656 -22 q 344 36 407 -22 q 281 194 281 94 q 344 408 281 268 q 486 678 408 550 q 692 1083 692 1017 q 581 1192 692 1192 q 465 1169 517 1192 q 369 1102 413 1146 q 319 1058 325 1058 q 314 1067 314 1058 q 344 1106 314 1075 q 631 1231 465 1231 m 1106 1411 l 1436 1603 q 1458 1611 1449 1611 q 1464 1600 1464 1611 q 1455 1572 1464 1589 q 1436 1550 1446 1554 q 1303 1489 1392 1531 q 1083 1389 1092 1389 q 1075 1391 1075 1389 q 1106 1411 1075 1393 z "},"":{"ha":1411,"x_min":281,"x_max":1661,"o":"m 631 1231 q 762 1192 715 1231 q 808 1099 808 1153 q 767 958 808 1046 q 668 769 726 869 q 551 569 610 669 q 411 219 411 328 q 456 88 411 132 q 571 44 501 44 q 718 81 640 44 q 869 178 797 117 q 1108 419 999 286 q 1325 856 1250 724 q 1497 1111 1400 989 q 1611 1192 1563 1192 q 1628 1181 1628 1192 q 1353 697 1628 1114 q 1317 644 1319 647 q 1180 371 1254 550 q 1106 100 1106 192 q 1124 56 1106 71 q 1194 42 1142 42 q 1334 89 1246 42 q 1485 188 1422 136 q 1591 283 1549 239 q 1644 344 1633 326 q 1656 353 1650 353 q 1661 349 1661 353 q 1658 339 1661 344 q 1497 173 1576 239 q 1308 48 1418 107 q 1100 -11 1197 -11 q 1024 17 1049 -11 q 1000 89 1000 44 q 1064 306 1000 161 q 936 188 983 229 q 808 89 886 146 q 508 -22 656 -22 q 344 36 407 -22 q 281 194 281 94 q 344 408 281 268 q 486 678 408 550 q 692 1083 692 1017 q 581 1192 692 1192 q 465 1169 517 1192 q 369 1102 413 1146 q 319 1058 325 1058 q 314 1067 314 1058 q 344 1106 314 1075 q 631 1231 465 1231 m 1300 1597 q 1342 1619 1329 1619 q 1357 1611 1354 1619 q 1395 1533 1360 1603 q 1431 1426 1431 1463 q 1414 1416 1431 1424 q 1386 1399 1397 1408 q 1372 1389 1375 1389 l 1369 1388 l 1369 1389 q 1297 1553 1338 1468 l 1031 1406 q 989 1392 1006 1392 l 986 1394 q 1014 1414 986 1397 q 1300 1597 1153 1500 z "},"":{"ha":1411,"x_min":281,"x_max":1661,"o":"m 631 1231 q 762 1192 715 1231 q 808 1099 808 1153 q 767 958 808 1046 q 668 769 726 869 q 551 569 610 669 q 411 219 411 328 q 456 88 411 132 q 571 44 501 44 q 718 81 640 44 q 869 178 797 117 q 1108 419 999 286 q 1325 856 1250 724 q 1497 1111 1400 989 q 1611 1192 1563 1192 q 1628 1181 1628 1192 q 1353 697 1628 1114 q 1317 644 1319 647 q 1180 371 1254 550 q 1106 100 1106 192 q 1124 56 1106 71 q 1194 42 1142 42 q 1334 89 1246 42 q 1485 188 1422 136 q 1591 283 1549 239 q 1644 344 1633 326 q 1656 353 1650 353 q 1661 349 1661 353 q 1658 339 1661 344 q 1497 173 1576 239 q 1308 48 1418 107 q 1100 -11 1197 -11 q 1024 17 1049 -11 q 1000 89 1000 44 q 1064 306 1000 161 q 936 188 983 229 q 808 89 886 146 q 508 -22 656 -22 q 344 36 407 -22 q 281 194 281 94 q 344 408 281 268 q 486 678 408 550 q 692 1083 692 1017 q 581 1192 692 1192 q 465 1169 517 1192 q 369 1102 413 1146 q 319 1058 325 1058 q 314 1067 314 1058 q 344 1106 314 1075 q 631 1231 465 1231 m 1092 1464 q 1119 1528 1092 1494 q 1169 1561 1144 1561 q 1207 1547 1194 1561 q 1219 1506 1219 1532 q 1194 1447 1219 1479 q 1136 1414 1169 1414 q 1092 1464 1092 1414 m 1303 1464 q 1331 1528 1303 1494 q 1381 1561 1356 1561 q 1418 1547 1406 1561 q 1431 1506 1431 1532 q 1406 1447 1431 1479 q 1347 1414 1381 1414 q 1303 1464 1303 1414 z "},"":{"ha":1411,"x_min":-311,"x_max":1661,"o":"m 808 -233 q 278 -537 461 -407 q -40 -825 67 -689 q -137 -988 -99 -900 q -175 -1151 -175 -1076 q -47 -1300 -175 -1300 q 483 -842 235 -1300 q 808 -233 714 -429 m 1311 644 q 1117 249 1235 519 q 939 -133 999 -22 q 1497 197 1264 19 q 1591 283 1549 239 q 1644 344 1633 326 q 1656 353 1650 353 q 1661 349 1661 353 q 1658 339 1661 344 q 1492 167 1575 235 q 1249 2 1410 99 q 914 -181 1088 -94 q 550 -831 799 -411 q 294 -1156 444 -1006 q 111 -1290 211 -1239 q -94 -1342 11 -1342 q -255 -1291 -199 -1342 q -311 -1153 -311 -1240 q -265 -976 -311 -1067 q -149 -807 -219 -885 q 26 -647 -79 -729 q 228 -503 132 -564 q 449 -374 325 -442 q 833 -181 615 -282 l 1064 306 q 843 107 904 156 q 525 -22 674 -22 q 360 33 422 -22 q 297 189 297 89 q 359 406 297 264 q 496 676 421 547 q 694 1083 694 1018 q 666 1162 694 1132 q 577 1192 638 1192 q 465 1169 517 1192 q 353 1086 413 1146 q 339 1071 346 1079 q 322 1056 326 1056 q 314 1065 314 1056 q 344 1106 314 1075 q 631 1231 465 1231 q 760 1191 714 1231 q 806 1092 806 1151 q 617 694 806 1024 q 487 432 546 571 q 428 210 428 293 q 472 86 428 128 q 589 44 517 44 q 1108 419 797 44 q 1183 580 1136 479 q 1247 719 1229 681 q 1298 825 1265 757 q 1347 923 1331 893 q 1389 997 1364 953 q 1467 1115 1431 1071 q 1511 1167 1503 1158 q 1560 1192 1536 1192 q 1583 1181 1583 1192 q 1474 929 1583 1131 q 1311 644 1365 728 m 1106 1411 l 1436 1603 q 1458 1611 1449 1611 q 1464 1600 1464 1611 q 1455 1572 1464 1589 q 1436 1550 1446 1554 q 1303 1489 1392 1531 q 1083 1389 1092 1389 q 1075 1391 1075 1389 q 1106 1411 1075 1393 z "},"":{"ha":994,"x_min":119,"x_max":1289,"o":"m 389 269 q 1172 761 1172 474 q 1132 868 1172 822 q 1020 914 1092 914 q 871 868 949 914 q 727 755 793 822 q 593 594 661 688 q 389 269 492 456 m 586 661 q 1097 992 847 992 q 1235 947 1182 992 q 1289 817 1289 901 q 1111 533 1289 664 q 902 410 1004 456 q 743 342 800 364 q 617 297 686 321 q 508 264 547 275 q 369 225 378 228 q 275 8 311 113 q 259 -12 268 -8 q 214 -18 250 -15 q 165 -24 178 -21 q 147 -30 151 -28 q 138 -34 142 -32 q 133 -36 135 -36 q 119 -28 119 -36 q 124 -17 119 -22 q 269 252 144 14 q 510 722 394 490 q 642 1001 625 953 q 658 1090 658 1049 q 629 1156 658 1131 q 556 1181 600 1181 q 353 1086 447 1181 q 322 1058 325 1058 q 314 1067 314 1058 q 344 1106 314 1075 q 479 1200 406 1169 q 603 1231 553 1231 q 729 1191 686 1231 q 772 1092 772 1151 q 586 661 772 974 z "},"":{"ha":925,"x_min":-844,"x_max":1286,"o":"m -744 -950 l -750 -961 q -722 -1032 -750 -1006 q -656 -1058 -693 -1058 q -375 -811 -533 -1058 q -75 -267 -243 -604 l 372 603 q 319 614 339 614 q 282 608 300 614 q 247 592 264 600 q 198 561 222 578 q 170 544 174 544 q 167 550 167 544 q 175 561 167 556 q 193 574 176 561 q 226 597 210 586 q 264 619 242 607 q 340 647 314 647 q 392 639 367 647 q 423 697 396 647 q 465 773 450 746 q 509 853 479 800 q 563 947 539 906 q 619 1039 588 988 q 750 1236 696 1161 q 1017 1518 882 1419 q 1236 1617 1151 1617 q 1273 1590 1260 1617 q 1286 1529 1286 1564 q 1270 1448 1286 1494 q 1235 1370 1254 1401 q 1186 1294 1217 1339 q 894 999 1103 1186 q 781 871 831 940 q 731 747 731 801 q 748 701 731 721 q 792 672 765 682 q 849 647 818 663 q 906 613 879 632 q 949 556 932 594 q 967 451 967 517 q 913 294 967 386 q 779 131 858 203 q 606 10 700 58 q 448 -39 513 -39 q 317 -17 383 -39 q 250 42 251 6 q 287 109 250 60 q 336 158 324 158 q 339 153 339 158 l 336 117 q 366 23 336 63 q 458 -17 396 -17 q 615 53 521 -17 q 779 234 708 124 q 850 444 850 344 q 827 536 850 501 q 772 585 804 571 q 708 608 740 599 q 631 685 631 632 q 656 783 631 738 q 731 881 681 829 q 838 985 781 932 q 981 1128 896 1038 q 1142 1319 1065 1219 q 1194 1489 1194 1390 q 1182 1538 1194 1515 q 1153 1561 1169 1561 q 1038 1495 1103 1561 q 851 1259 972 1429 q 601 854 731 1089 q 298 282 471 619 q 58 -176 125 -56 q -52 -378 -8 -296 q -122 -506 -96 -460 q -192 -628 -147 -551 q -269 -753 -236 -706 q -347 -862 -301 -800 q -435 -961 -393 -924 q -524 -1034 -476 -999 q -621 -1086 -571 -1069 q -722 -1103 -671 -1103 q -809 -1071 -774 -1103 q -844 -1003 -844 -1039 q -817 -983 -844 -997 q -780 -964 -789 -969 q -766 -955 -771 -958 q -758 -949 -761 -951 q -749 -944 -754 -944 q -744 -950 -744 -944 z "},"":{"ha":850,"x_min":86,"x_max":1100,"o":"m 603 233 q 744 422 744 375 q 733 433 744 433 q 603 233 706 433 m 575 608 q 397 531 488 608 q 250 344 306 453 q 194 142 194 236 q 272 47 194 47 q 464 125 358 47 q 583 350 493 228 q 722 489 667 468 q 575 608 675 608 m 569 642 q 744 494 703 642 q 781 464 781 494 q 768 402 781 426 q 749 366 756 378 q 728 336 743 354 q 706 311 711 318 q 586 192 649 247 q 564 94 564 119 q 657 36 564 36 q 888 147 750 36 q 1083 344 1026 258 q 1094 353 1089 353 q 1100 349 1100 353 q 1097 339 1100 344 q 948 174 1022 239 q 766 46 874 108 q 569 -17 658 -17 q 458 72 458 -17 q 460 85 458 76 q 461 97 461 93 q 203 0 304 0 q 86 142 86 0 q 159 362 86 244 q 347 560 232 479 q 569 642 461 642 m 680 784 q 682 780 680 784 q 686 771 683 776 q 689 763 689 765 q 681 761 689 761 q 667 772 672 761 l 511 1028 q 508 1047 508 1031 q 517 1080 508 1063 q 537 1097 525 1097 q 556 1083 549 1097 l 675 794 q 680 784 676 792 z "},"":{"ha":850,"x_min":86,"x_max":1100,"o":"m 603 233 q 744 422 744 375 q 733 433 744 433 q 603 233 706 433 m 575 608 q 397 531 488 608 q 250 344 306 453 q 194 142 194 236 q 272 47 194 47 q 464 125 358 47 q 583 350 493 228 q 722 489 667 468 q 575 608 675 608 m 569 642 q 744 494 703 642 q 781 464 781 494 q 768 402 781 426 q 749 366 756 378 q 728 336 743 354 q 706 311 711 318 q 586 192 649 247 q 564 94 564 119 q 657 36 564 36 q 888 147 750 36 q 1083 344 1026 258 q 1094 353 1089 353 q 1100 349 1100 353 q 1097 339 1100 344 q 948 174 1022 239 q 766 46 874 108 q 569 -17 658 -17 q 458 72 458 -17 q 460 85 458 76 q 461 97 461 93 q 203 0 304 0 q 86 142 86 0 q 159 362 86 244 q 347 560 232 479 q 569 642 461 642 m 564 783 l 894 975 q 917 983 907 983 q 922 972 922 983 q 913 944 922 961 q 894 922 904 926 q 761 861 850 903 q 542 761 550 761 q 533 763 533 761 q 564 783 533 765 z "},"":{"ha":850,"x_min":86,"x_max":1100,"o":"m 603 233 q 744 422 744 375 q 733 433 744 433 q 603 233 706 433 m 575 608 q 397 531 488 608 q 250 344 306 453 q 194 142 194 236 q 272 47 194 47 q 464 125 358 47 q 583 350 493 228 q 722 489 667 468 q 575 608 675 608 m 569 642 q 744 494 703 642 q 781 464 781 494 q 768 402 781 426 q 749 366 756 378 q 728 336 743 354 q 706 311 711 318 q 586 192 649 247 q 564 94 564 119 q 657 36 564 36 q 888 147 750 36 q 1083 344 1026 258 q 1094 353 1089 353 q 1100 349 1100 353 q 1097 339 1100 344 q 948 174 1022 239 q 766 46 874 108 q 569 -17 658 -17 q 458 72 458 -17 q 460 85 458 76 q 461 97 461 93 q 203 0 304 0 q 86 142 86 0 q 159 362 86 244 q 347 560 232 479 q 569 642 461 642 m 758 969 q 800 992 788 992 q 815 983 813 992 q 853 905 818 975 q 889 799 889 835 q 872 788 889 796 q 844 771 856 781 q 831 761 833 761 l 828 760 l 828 761 q 756 925 796 840 l 489 778 q 447 764 464 764 l 444 767 q 472 786 444 769 q 758 969 611 872 z "},"":{"ha":850,"x_min":86,"x_max":1100,"o":"m 603 233 q 744 422 744 375 q 733 433 744 433 q 603 233 706 433 m 575 608 q 397 531 488 608 q 250 344 306 453 q 194 142 194 236 q 272 47 194 47 q 464 125 358 47 q 583 350 493 228 q 722 489 667 468 q 575 608 675 608 m 569 642 q 744 494 703 642 q 781 464 781 494 q 768 402 781 426 q 749 366 756 378 q 728 336 743 354 q 706 311 711 318 q 586 192 649 247 q 564 94 564 119 q 657 36 564 36 q 888 147 750 36 q 1083 344 1026 258 q 1094 353 1089 353 q 1100 349 1100 353 q 1097 339 1100 344 q 948 174 1022 239 q 766 46 874 108 q 569 -17 658 -17 q 458 72 458 -17 q 460 85 458 76 q 461 97 461 93 q 203 0 304 0 q 86 142 86 0 q 159 362 86 244 q 347 560 232 479 q 569 642 461 642 m 661 939 q 715 918 690 939 q 755 872 740 897 q 793 826 769 847 q 844 806 817 806 q 972 903 893 806 q 1003 936 999 936 q 1008 931 1008 936 q 928 831 1008 904 q 783 758 849 758 q 726 779 751 758 q 686 825 700 800 q 599 892 647 892 q 472 794 551 892 q 441 761 446 761 q 436 767 436 761 q 516 866 436 793 q 661 939 596 939 z "},"":{"ha":850,"x_min":86,"x_max":1100,"o":"m 603 233 q 744 422 744 375 q 733 433 744 433 q 603 233 706 433 m 575 608 q 397 531 488 608 q 250 344 306 453 q 194 142 194 236 q 272 47 194 47 q 464 125 358 47 q 583 350 493 228 q 722 489 667 468 q 575 608 675 608 m 569 642 q 744 494 703 642 q 781 464 781 494 q 768 402 781 426 q 749 366 756 378 q 728 336 743 354 q 706 311 711 318 q 586 192 649 247 q 564 94 564 119 q 657 36 564 36 q 888 147 750 36 q 1083 344 1026 258 q 1094 353 1089 353 q 1100 349 1100 353 q 1097 339 1100 344 q 948 174 1022 239 q 766 46 874 108 q 569 -17 658 -17 q 458 72 458 -17 q 460 85 458 76 q 461 97 461 93 q 203 0 304 0 q 86 142 86 0 q 159 362 86 244 q 347 560 232 479 q 569 642 461 642 m 550 836 q 578 900 550 867 q 628 933 603 933 q 665 919 653 933 q 678 878 678 904 q 653 819 678 851 q 594 786 628 786 q 550 836 550 786 m 761 836 q 789 900 761 867 q 839 933 814 933 q 876 919 864 933 q 889 878 889 904 q 864 819 889 851 q 806 786 839 786 q 761 836 761 786 z "},"":{"ha":850,"x_min":86,"x_max":1100,"o":"m 603 233 q 744 422 744 375 q 733 433 744 433 q 603 233 706 433 m 575 608 q 397 531 488 608 q 250 344 306 453 q 194 142 194 236 q 272 47 194 47 q 464 125 358 47 q 583 350 493 228 q 722 489 667 468 q 575 608 675 608 m 569 642 q 744 494 703 642 q 781 464 781 494 q 768 402 781 426 q 749 366 756 378 q 728 336 743 354 q 706 311 711 318 q 586 192 649 247 q 564 94 564 119 q 657 36 564 36 q 888 147 750 36 q 1083 344 1026 258 q 1094 353 1089 353 q 1100 349 1100 353 q 1097 339 1100 344 q 948 174 1022 239 q 766 46 874 108 q 569 -17 658 -17 q 458 72 458 -17 q 460 85 458 76 q 461 97 461 93 q 203 0 304 0 q 86 142 86 0 q 159 362 86 244 q 347 560 232 479 q 569 642 461 642 m 797 888 q 797 906 797 888 q 774 953 797 925 q 714 981 751 981 q 651 948 676 981 q 625 878 625 915 q 649 817 625 842 q 708 792 674 792 q 769 821 742 792 q 797 888 797 850 m 578 856 q 628 967 578 919 q 733 1014 678 1014 q 818 988 789 1014 q 847 910 847 961 q 799 810 847 858 q 695 761 750 761 q 609 788 640 761 q 578 856 578 814 z "},"":{"ha":1025,"x_min":86,"x_max":1275,"o":"m 739 519 q 869 613 804 579 q 969 647 933 647 q 1042 592 1042 647 q 1026 549 1042 571 q 970 496 1011 528 q 892 438 929 464 q 776 358 856 413 q 639 264 696 304 q 614 138 614 193 q 648 49 614 82 q 758 17 682 17 q 935 69 835 17 q 1126 201 1036 122 q 1258 344 1215 279 q 1269 353 1264 353 q 1275 349 1275 353 q 1272 339 1275 344 q 1128 186 1218 267 q 886 24 985 60 q 664 -11 788 -11 q 542 38 593 -11 q 511 107 511 67 q 517 172 511 147 q 200 0 318 0 q 86 142 86 0 q 160 362 86 244 q 349 560 233 479 q 578 642 464 642 q 739 519 693 642 m 719 500 q 582 608 674 608 q 399 531 490 608 q 249 344 307 453 q 192 142 192 236 q 269 47 192 47 q 522 197 343 47 q 719 500 578 368 m 650 289 q 883 472 814 407 q 953 572 953 536 q 922 608 953 608 q 776 510 854 608 q 650 289 699 413 z "},"":{"ha":650,"x_min":92,"x_max":900,"o":"m 360 518 q 326 480 360 518 q 246 340 292 442 q 200 163 200 238 q 233 46 200 89 q 353 3 265 3 q 549 61 440 3 q 749 199 658 119 q 883 344 840 279 q 894 353 889 353 q 900 349 900 353 q 897 339 900 344 q 758 189 838 260 q 300 -31 514 -31 q 153 8 211 -31 q 94 131 94 47 q 149 317 94 217 q 276 487 201 415 q 430 604 350 558 q 555 650 510 650 q 619 628 600 650 q 639 574 639 606 q 631 531 639 543 q 590 503 622 519 q 550 486 558 486 q 542 489 542 486 q 543 494 542 492 q 547 531 547 506 q 526 575 547 556 q 483 594 506 594 q 360 518 428 594 m 300 0 q 225 -131 300 -6 q 349 -168 311 -131 q 386 -258 386 -206 q 339 -356 386 -310 q 230 -403 292 -403 q 130 -372 168 -403 q 92 -317 92 -342 q 106 -306 92 -312 q 128 -300 119 -300 q 141 -322 131 -300 q 174 -367 151 -344 q 236 -389 197 -389 q 304 -358 275 -389 q 333 -293 333 -328 q 319 -240 333 -258 q 281 -214 306 -221 q 208 -203 240 -203 q 169 -208 175 -203 q 154 -214 164 -214 q 144 -211 144 -214 q 164 -175 144 -206 q 272 0 231 -71 q 288 3 275 3 q 300 0 300 3 z "},"":{"ha":603,"x_min":36,"x_max":853,"o":"m 94 178 l 39 133 q 36 139 36 133 q 46 154 36 144 q 100 197 56 164 q 196 386 132 297 q 326 530 260 475 q 453 616 393 585 q 547 647 513 647 q 619 592 619 647 q 604 549 619 571 q 548 496 589 528 q 470 438 507 464 q 353 358 433 413 q 217 264 274 304 q 192 133 192 193 q 224 43 192 72 q 334 14 257 14 q 512 68 411 14 q 703 201 613 122 q 836 344 793 279 q 847 353 842 353 q 853 349 853 353 q 850 339 853 344 q 478 28 696 139 q 272 -22 372 -22 q 83 108 83 -22 q 94 178 83 128 m 228 289 q 461 472 392 407 q 531 572 531 536 q 500 608 531 608 q 354 510 432 608 q 228 289 276 413 m 588 784 q 590 780 588 784 q 594 771 592 776 q 597 763 597 765 q 589 761 597 761 q 575 772 581 761 l 419 1028 q 417 1047 417 1031 q 425 1080 417 1063 q 445 1097 433 1097 q 464 1083 457 1097 l 583 794 q 588 784 585 792 z "},"":{"ha":603,"x_min":36,"x_max":853,"o":"m 94 178 l 39 133 q 36 139 36 133 q 46 154 36 144 q 100 197 56 164 q 196 386 132 297 q 326 530 260 475 q 453 616 393 585 q 547 647 513 647 q 619 592 619 647 q 604 549 619 571 q 548 496 589 528 q 470 438 507 464 q 353 358 433 413 q 217 264 274 304 q 192 133 192 193 q 224 43 192 72 q 334 14 257 14 q 512 68 411 14 q 703 201 613 122 q 836 344 793 279 q 847 353 842 353 q 853 349 853 353 q 850 339 853 344 q 478 28 696 139 q 272 -22 372 -22 q 83 108 83 -22 q 94 178 83 128 m 228 289 q 461 472 392 407 q 531 572 531 536 q 500 608 531 608 q 354 510 432 608 q 228 289 276 413 m 472 783 l 803 975 q 825 983 815 983 q 831 972 831 983 q 822 944 831 961 q 803 922 813 926 q 669 861 758 903 q 450 761 458 761 q 442 763 442 761 q 472 783 442 765 z "},"":{"ha":603,"x_min":36,"x_max":853,"o":"m 94 178 l 39 133 q 36 139 36 133 q 46 154 36 144 q 100 197 56 164 q 196 386 132 297 q 326 530 260 475 q 453 616 393 585 q 547 647 513 647 q 619 592 619 647 q 604 549 619 571 q 548 496 589 528 q 470 438 507 464 q 353 358 433 413 q 217 264 274 304 q 192 133 192 193 q 224 43 192 72 q 334 14 257 14 q 512 68 411 14 q 703 201 613 122 q 836 344 793 279 q 847 353 842 353 q 853 349 853 353 q 850 339 853 344 q 478 28 696 139 q 272 -22 372 -22 q 83 108 83 -22 q 94 178 83 128 m 228 289 q 461 472 392 407 q 531 572 531 536 q 500 608 531 608 q 354 510 432 608 q 228 289 276 413 m 667 969 q 708 992 696 992 q 724 983 721 992 q 762 905 726 975 q 797 799 797 835 q 781 788 797 796 q 753 771 764 781 q 739 761 742 761 l 736 760 l 736 761 q 664 925 704 840 l 397 778 q 356 764 372 764 l 353 767 q 381 786 353 769 q 667 969 519 872 z "},"":{"ha":603,"x_min":36,"x_max":853,"o":"m 94 178 l 39 133 q 36 139 36 133 q 46 154 36 144 q 100 197 56 164 q 196 386 132 297 q 326 530 260 475 q 453 616 393 585 q 547 647 513 647 q 619 592 619 647 q 604 549 619 571 q 548 496 589 528 q 470 438 507 464 q 353 358 433 413 q 217 264 274 304 q 192 133 192 193 q 224 43 192 72 q 334 14 257 14 q 512 68 411 14 q 703 201 613 122 q 836 344 793 279 q 847 353 842 353 q 853 349 853 353 q 850 339 853 344 q 478 28 696 139 q 272 -22 372 -22 q 83 108 83 -22 q 94 178 83 128 m 228 289 q 461 472 392 407 q 531 572 531 536 q 500 608 531 608 q 354 510 432 608 q 228 289 276 413 m 458 836 q 486 900 458 867 q 536 933 511 933 q 574 919 561 933 q 586 878 586 904 q 561 819 586 851 q 503 786 536 786 q 458 836 458 786 m 669 836 q 697 900 669 867 q 747 933 722 933 q 785 919 772 933 q 797 878 797 904 q 772 819 797 851 q 714 786 747 786 q 669 836 669 786 z "},"":{"ha":519,"x_min":122,"x_max":769,"o":"m 186 553 q 170 544 174 544 q 167 550 167 544 q 175 561 167 556 q 328 622 264 622 q 422 536 422 622 q 375 423 422 506 q 281 250 328 340 q 233 108 233 160 q 331 36 233 36 q 455 81 378 36 q 590 174 532 125 q 693 271 649 222 q 748 336 738 319 q 764 353 758 353 q 769 349 769 353 q 767 339 769 344 q 617 175 699 247 q 422 40 528 90 q 254 -11 317 -11 q 157 17 192 -11 q 122 100 122 44 q 174 250 122 156 q 276 426 225 344 q 328 534 328 507 q 316 576 328 561 q 286 592 304 592 q 186 553 244 592 m 527 873 q 529 869 527 873 q 533 860 531 865 q 536 852 536 854 q 528 850 536 850 q 514 861 519 850 l 358 1117 q 356 1135 356 1119 q 364 1169 356 1151 q 384 1186 372 1186 q 403 1172 396 1186 l 522 883 q 527 873 524 881 z "},"":{"ha":519,"x_min":122,"x_max":769,"o":"m 186 553 q 170 544 174 544 q 167 550 167 544 q 175 561 167 556 q 328 622 264 622 q 422 536 422 622 q 375 423 422 506 q 281 250 328 340 q 233 108 233 160 q 331 36 233 36 q 455 81 378 36 q 590 174 532 125 q 693 271 649 222 q 748 336 738 319 q 764 353 758 353 q 769 349 769 353 q 767 339 769 344 q 617 175 699 247 q 422 40 528 90 q 254 -11 317 -11 q 157 17 192 -11 q 122 100 122 44 q 174 250 122 156 q 276 426 225 344 q 328 534 328 507 q 316 576 328 561 q 286 592 304 592 q 186 553 244 592 m 411 872 l 742 1064 q 764 1072 754 1072 q 769 1061 769 1072 q 760 1033 769 1050 q 742 1011 751 1015 q 608 950 697 992 q 389 850 397 850 q 381 852 381 850 q 411 872 381 854 z "},"":{"ha":519,"x_min":122,"x_max":769,"o":"m 186 553 q 170 544 174 544 q 167 550 167 544 q 175 561 167 556 q 328 622 264 622 q 422 536 422 622 q 375 423 422 506 q 281 250 328 340 q 233 108 233 160 q 331 36 233 36 q 455 81 378 36 q 590 174 532 125 q 693 271 649 222 q 748 336 738 319 q 764 353 758 353 q 769 349 769 353 q 767 339 769 344 q 617 175 699 247 q 422 40 528 90 q 254 -11 317 -11 q 157 17 192 -11 q 122 100 122 44 q 174 250 122 156 q 276 426 225 344 q 328 534 328 507 q 316 576 328 561 q 286 592 304 592 q 186 553 244 592 m 606 1058 q 647 1081 635 1081 q 663 1072 660 1081 q 701 994 665 1064 q 736 888 736 924 q 719 877 736 885 q 692 860 703 869 q 678 850 681 850 l 675 849 l 675 850 q 603 1014 643 929 l 336 867 q 294 853 311 853 l 292 856 q 319 875 292 858 q 606 1058 458 961 z "},"":{"ha":519,"x_min":122,"x_max":769,"o":"m 186 553 q 170 544 174 544 q 167 550 167 544 q 175 561 167 556 q 328 622 264 622 q 422 536 422 622 q 375 423 422 506 q 281 250 328 340 q 233 108 233 160 q 331 36 233 36 q 455 81 378 36 q 590 174 532 125 q 693 271 649 222 q 748 336 738 319 q 764 353 758 353 q 769 349 769 353 q 767 339 769 344 q 617 175 699 247 q 422 40 528 90 q 254 -11 317 -11 q 157 17 192 -11 q 122 100 122 44 q 174 250 122 156 q 276 426 225 344 q 328 534 328 507 q 316 576 328 561 q 286 592 304 592 q 186 553 244 592 m 397 925 q 425 989 397 956 q 475 1022 450 1022 q 513 1008 500 1022 q 525 967 525 993 q 500 908 525 940 q 442 875 475 875 q 397 925 397 875 m 608 925 q 636 989 608 956 q 686 1022 661 1022 q 724 1008 711 1022 q 736 967 736 993 q 711 908 736 940 q 653 875 686 875 q 608 925 608 875 z "},"":{"ha":719,"x_min":81,"x_max":714,"o":"m 444 1256 q 264 1156 268 1156 l 256 1156 q 236 1165 244 1156 q 228 1183 228 1175 q 246 1196 228 1188 q 317 1228 264 1204 q 425 1281 369 1253 q 286 1456 353 1389 q 278 1461 283 1458 q 269 1473 269 1468 q 295 1493 269 1478 q 341 1508 321 1508 q 372 1497 361 1508 q 508 1319 450 1419 q 667 1383 660 1383 q 689 1375 689 1383 q 662 1360 689 1369 q 522 1294 635 1350 q 664 946 614 1135 q 714 616 714 757 q 678 369 714 475 q 588 194 643 264 q 467 74 533 124 q 228 -22 339 -22 q 124 13 167 -22 q 81 117 81 49 q 167 344 81 226 q 365 535 253 463 q 558 608 476 608 q 653 572 617 608 q 444 1256 653 919 m 642 439 q 595 528 632 494 q 511 561 558 561 q 299 416 410 561 q 189 141 189 271 q 278 11 189 11 q 373 42 318 11 q 481 127 428 74 q 580 264 535 181 q 642 439 625 347 z "},"":{"ha":872,"x_min":33,"x_max":1122,"o":"m 297 594 q 186 553 249 594 q 170 544 174 544 q 167 550 167 544 q 175 561 167 556 q 350 633 271 633 q 405 614 385 633 q 425 565 425 594 q 369 436 425 536 q 717 628 593 628 q 778 598 760 628 q 797 523 797 568 q 703 304 797 478 q 608 81 608 131 q 621 43 608 58 q 653 28 633 28 q 956 183 776 28 q 1047 272 1003 225 q 1101 336 1090 319 q 1117 353 1111 353 q 1122 349 1122 353 q 1119 339 1122 344 q 969 173 1069 272 q 760 23 868 74 q 581 -28 653 -28 q 508 36 508 -28 q 556 188 508 93 q 650 372 603 283 q 697 506 697 461 q 644 575 697 575 q 476 488 596 575 q 344 381 356 401 l 142 11 q 116 -3 135 0 q 77 -15 97 -7 q 50 -22 57 -22 q 33 -8 33 -22 q 114 133 33 -3 q 331 558 331 506 q 297 594 331 594 m 628 939 q 682 918 657 939 q 722 872 707 897 q 760 826 736 847 q 811 806 783 806 q 939 903 860 806 q 970 936 965 936 q 975 931 975 936 q 895 831 975 904 q 750 758 815 758 q 692 779 718 758 q 653 825 667 800 q 566 892 614 892 q 439 794 518 892 q 408 761 413 761 q 403 767 403 761 q 483 866 403 793 q 628 939 563 939 z "},"":{"ha":744,"x_min":86,"x_max":939,"o":"m 625 556 l 617 558 q 640 503 617 529 q 694 469 663 478 q 697 515 697 488 q 697 531 697 522 q 674 613 697 569 q 636 656 650 656 q 617 600 617 656 q 633 589 625 597 q 642 574 642 581 q 635 561 642 567 q 625 556 628 556 m 689 444 q 590 488 633 447 q 542 583 546 528 q 376 507 460 583 q 240 321 292 431 q 189 114 189 211 q 212 44 189 76 q 278 11 235 11 q 530 150 403 11 q 689 444 657 289 m 935 569 q 937 569 935 569 q 939 564 939 569 q 930 553 939 558 q 895 528 921 547 q 853 499 869 510 q 813 475 838 489 q 717 444 764 449 q 540 121 682 267 q 242 -25 397 -25 q 86 117 86 -25 q 153 347 86 231 q 328 539 221 464 q 542 614 435 614 q 563 683 544 649 q 614 717 581 717 q 695 665 665 717 q 725 533 725 614 q 719 467 725 511 q 919 561 782 467 q 935 569 932 569 m 677 784 q 679 780 677 784 q 683 771 681 776 q 686 763 686 765 q 678 761 686 761 q 664 772 669 761 l 508 1028 q 506 1047 506 1031 q 514 1080 506 1063 q 534 1097 522 1097 q 553 1083 546 1097 l 672 794 q 677 784 674 792 z "},"":{"ha":744,"x_min":86,"x_max":939,"o":"m 625 556 l 617 558 q 640 503 617 529 q 694 469 663 478 q 697 515 697 488 q 697 531 697 522 q 674 613 697 569 q 636 656 650 656 q 617 600 617 656 q 633 589 625 597 q 642 574 642 581 q 635 561 642 567 q 625 556 628 556 m 689 444 q 590 488 633 447 q 542 583 546 528 q 376 507 460 583 q 240 321 292 431 q 189 114 189 211 q 212 44 189 76 q 278 11 235 11 q 530 150 403 11 q 689 444 657 289 m 935 569 q 937 569 935 569 q 939 564 939 569 q 930 553 939 558 q 895 528 921 547 q 853 499 869 510 q 813 475 838 489 q 717 444 764 449 q 540 121 682 267 q 242 -25 397 -25 q 86 117 86 -25 q 153 347 86 231 q 328 539 221 464 q 542 614 435 614 q 563 683 544 649 q 614 717 581 717 q 695 665 665 717 q 725 533 725 614 q 719 467 725 511 q 919 561 782 467 q 935 569 932 569 m 561 783 l 892 975 q 914 983 904 983 q 919 972 919 983 q 910 944 919 961 q 892 922 901 926 q 758 861 847 903 q 539 761 547 761 q 531 763 531 761 q 561 783 531 765 z "},"":{"ha":744,"x_min":86,"x_max":939,"o":"m 625 556 l 617 558 q 640 503 617 529 q 694 469 663 478 q 697 515 697 488 q 697 531 697 522 q 674 613 697 569 q 636 656 650 656 q 617 600 617 656 q 633 589 625 597 q 642 574 642 581 q 635 561 642 567 q 625 556 628 556 m 689 444 q 590 488 633 447 q 542 583 546 528 q 376 507 460 583 q 240 321 292 431 q 189 114 189 211 q 212 44 189 76 q 278 11 235 11 q 530 150 403 11 q 689 444 657 289 m 935 569 q 937 569 935 569 q 939 564 939 569 q 930 553 939 558 q 895 528 921 547 q 853 499 869 510 q 813 475 838 489 q 717 444 764 449 q 540 121 682 267 q 242 -25 397 -25 q 86 117 86 -25 q 153 347 86 231 q 328 539 221 464 q 542 614 435 614 q 563 683 544 649 q 614 717 581 717 q 695 665 665 717 q 725 533 725 614 q 719 467 725 511 q 919 561 782 467 q 935 569 932 569 m 756 969 q 797 992 785 992 q 813 983 810 992 q 851 905 815 975 q 886 799 886 835 q 869 788 886 796 q 842 771 853 781 q 828 761 831 761 l 825 760 l 825 761 q 753 925 793 840 l 486 778 q 444 764 461 764 l 442 767 q 469 786 442 769 q 756 969 608 872 z "},"":{"ha":744,"x_min":86,"x_max":1006,"o":"m 625 556 l 617 558 q 640 503 617 529 q 694 469 663 478 q 697 515 697 488 q 697 531 697 522 q 674 613 697 569 q 636 656 650 656 q 617 600 617 656 q 633 589 625 597 q 642 574 642 581 q 635 561 642 567 q 625 556 628 556 m 689 444 q 590 488 633 447 q 542 583 546 528 q 376 507 460 583 q 240 321 292 431 q 189 114 189 211 q 212 44 189 76 q 278 11 235 11 q 530 150 403 11 q 689 444 657 289 m 935 569 q 937 569 935 569 q 939 564 939 569 q 930 553 939 558 q 895 528 921 547 q 853 499 869 510 q 813 475 838 489 q 717 444 764 449 q 540 121 682 267 q 242 -25 397 -25 q 86 117 86 -25 q 153 347 86 231 q 328 539 221 464 q 542 614 435 614 q 563 683 544 649 q 614 717 581 717 q 695 665 665 717 q 725 533 725 614 q 719 467 725 511 q 919 561 782 467 q 935 569 932 569 m 658 939 q 713 918 688 939 q 752 872 738 897 q 790 826 767 847 q 842 806 814 806 q 969 903 890 806 q 1001 936 996 936 q 1006 931 1006 936 q 926 831 1006 904 q 781 758 846 758 q 723 779 749 758 q 683 825 697 800 q 597 892 644 892 q 469 794 549 892 q 438 761 443 761 q 433 767 433 761 q 513 866 433 793 q 658 939 593 939 z "},"":{"ha":744,"x_min":86,"x_max":939,"o":"m 625 556 l 617 558 q 640 503 617 529 q 694 469 663 478 q 697 515 697 488 q 697 531 697 522 q 674 613 697 569 q 636 656 650 656 q 617 600 617 656 q 633 589 625 597 q 642 574 642 581 q 635 561 642 567 q 625 556 628 556 m 689 444 q 590 488 633 447 q 542 583 546 528 q 376 507 460 583 q 240 321 292 431 q 189 114 189 211 q 212 44 189 76 q 278 11 235 11 q 530 150 403 11 q 689 444 657 289 m 935 569 q 937 569 935 569 q 939 564 939 569 q 930 553 939 558 q 895 528 921 547 q 853 499 869 510 q 813 475 838 489 q 717 444 764 449 q 540 121 682 267 q 242 -25 397 -25 q 86 117 86 -25 q 153 347 86 231 q 328 539 221 464 q 542 614 435 614 q 563 683 544 649 q 614 717 581 717 q 695 665 665 717 q 725 533 725 614 q 719 467 725 511 q 919 561 782 467 q 935 569 932 569 m 547 836 q 575 900 547 867 q 625 933 600 933 q 663 919 650 933 q 675 878 675 904 q 650 819 675 851 q 592 786 625 786 q 547 836 547 786 m 758 836 q 786 900 758 867 q 836 933 811 933 q 874 919 861 933 q 886 878 886 904 q 861 819 886 851 q 803 786 836 786 q 758 836 758 786 z "},"":{"ha":906,"x_min":233,"x_max":919,"o":"m 400 247 q 400 259 400 247 q 425 295 400 271 q 474 319 450 319 q 512 308 499 319 q 525 272 525 296 q 501 224 525 247 q 452 200 478 200 q 413 212 426 200 q 400 247 400 224 m 611 636 q 611 648 611 636 q 636 684 611 660 q 685 708 661 708 q 723 697 710 708 q 736 660 736 685 q 713 613 736 636 q 663 589 689 589 q 624 601 638 589 q 611 636 611 613 m 278 492 l 747 483 l 914 486 q 919 483 919 486 q 918 478 919 481 q 913 468 917 475 q 906 453 908 461 q 900 436 903 447 q 889 417 894 417 l 433 428 l 239 422 q 233 425 233 422 q 237 432 233 428 q 247 443 240 436 q 256 456 253 450 q 264 472 260 461 q 278 492 271 492 z "},"":{"ha":744,"x_min":17,"x_max":944,"o":"m 625 556 l 617 558 q 640 503 617 529 q 694 469 663 478 q 697 515 697 488 q 697 531 697 522 q 674 613 697 569 q 636 656 650 656 q 617 600 617 656 q 633 589 625 597 q 642 574 642 581 q 635 561 642 567 q 625 556 628 556 m 689 444 q 590 488 633 447 q 542 583 546 528 q 376 507 460 583 q 240 321 292 431 q 189 114 189 211 q 212 44 189 76 q 278 11 235 11 q 530 150 403 11 q 689 444 657 289 m 935 569 q 937 569 935 569 q 939 564 939 569 q 930 553 939 558 q 895 528 921 547 q 853 499 869 510 q 813 475 838 489 q 717 444 764 449 q 540 121 682 267 q 242 -25 397 -25 q 86 117 86 -25 q 153 347 86 231 q 328 539 221 464 q 542 614 435 614 q 563 683 544 649 q 614 717 581 717 q 695 665 665 717 q 725 533 725 614 q 719 467 725 511 q 919 561 782 467 q 935 569 932 569 m 936 808 l 61 -147 q 31 -164 44 -164 q 17 -161 17 -164 q 25 -147 17 -156 l 903 814 q 931 833 922 833 q 944 822 944 833 q 936 808 944 817 z "},"":{"ha":892,"x_min":103,"x_max":1142,"o":"m 954 156 q 985 184 954 156 q 1057 258 1015 211 q 1115 329 1099 306 q 1136 353 1131 353 q 1142 349 1142 353 q 1139 339 1142 344 q 900 90 1057 207 q 606 -28 743 -28 q 533 36 533 -28 q 556 136 533 78 q 372 25 469 72 q 200 -22 274 -22 q 135 -1 167 -22 q 103 70 103 19 q 214 316 103 121 q 325 550 325 511 q 283 589 325 589 q 186 553 240 589 q 170 544 174 544 q 167 550 167 544 q 175 561 167 556 q 328 622 264 622 q 419 542 419 622 q 314 313 419 500 q 208 93 208 126 q 232 47 208 60 q 283 33 256 33 q 442 90 354 33 q 578 197 529 146 q 686 403 608 264 q 783 567 764 543 q 872 619 832 619 q 883 603 883 619 q 819 472 883 586 q 675 256 754 357 q 628 81 628 153 q 640 43 628 58 q 672 28 653 28 q 817 65 742 28 q 954 156 893 101 m 638 784 q 640 780 638 784 q 644 771 642 776 q 647 763 647 765 q 639 761 647 761 q 625 772 631 761 l 469 1028 q 467 1047 467 1031 q 475 1080 467 1063 q 495 1097 483 1097 q 514 1083 507 1097 l 633 794 q 638 784 635 792 z "},"":{"ha":892,"x_min":103,"x_max":1142,"o":"m 954 156 q 985 184 954 156 q 1057 258 1015 211 q 1115 329 1099 306 q 1136 353 1131 353 q 1142 349 1142 353 q 1139 339 1142 344 q 900 90 1057 207 q 606 -28 743 -28 q 533 36 533 -28 q 556 136 533 78 q 372 25 469 72 q 200 -22 274 -22 q 135 -1 167 -22 q 103 70 103 19 q 214 316 103 121 q 325 550 325 511 q 283 589 325 589 q 186 553 240 589 q 170 544 174 544 q 167 550 167 544 q 175 561 167 556 q 328 622 264 622 q 419 542 419 622 q 314 313 419 500 q 208 93 208 126 q 232 47 208 60 q 283 33 256 33 q 442 90 354 33 q 578 197 529 146 q 686 403 608 264 q 783 567 764 543 q 872 619 832 619 q 883 603 883 619 q 819 472 883 586 q 675 256 754 357 q 628 81 628 153 q 640 43 628 58 q 672 28 653 28 q 817 65 742 28 q 954 156 893 101 m 522 783 l 853 975 q 875 983 865 983 q 881 972 881 983 q 872 944 881 961 q 853 922 863 926 q 719 861 808 903 q 500 761 508 761 q 492 763 492 761 q 522 783 492 765 z "},"":{"ha":892,"x_min":103,"x_max":1142,"o":"m 954 156 q 985 184 954 156 q 1057 258 1015 211 q 1115 329 1099 306 q 1136 353 1131 353 q 1142 349 1142 353 q 1139 339 1142 344 q 900 90 1057 207 q 606 -28 743 -28 q 533 36 533 -28 q 556 136 533 78 q 372 25 469 72 q 200 -22 274 -22 q 135 -1 167 -22 q 103 70 103 19 q 214 316 103 121 q 325 550 325 511 q 283 589 325 589 q 186 553 240 589 q 170 544 174 544 q 167 550 167 544 q 175 561 167 556 q 328 622 264 622 q 419 542 419 622 q 314 313 419 500 q 208 93 208 126 q 232 47 208 60 q 283 33 256 33 q 442 90 354 33 q 578 197 529 146 q 686 403 608 264 q 783 567 764 543 q 872 619 832 619 q 883 603 883 619 q 819 472 883 586 q 675 256 754 357 q 628 81 628 153 q 640 43 628 58 q 672 28 653 28 q 817 65 742 28 q 954 156 893 101 m 717 969 q 758 992 746 992 q 774 983 771 992 q 812 905 776 975 q 847 799 847 835 q 831 788 847 796 q 803 771 814 781 q 789 761 792 761 l 786 760 l 786 761 q 714 925 754 840 l 447 778 q 406 764 422 764 l 403 767 q 431 786 403 769 q 717 969 569 872 z "},"":{"ha":892,"x_min":103,"x_max":1142,"o":"m 954 156 q 985 184 954 156 q 1057 258 1015 211 q 1115 329 1099 306 q 1136 353 1131 353 q 1142 349 1142 353 q 1139 339 1142 344 q 900 90 1057 207 q 606 -28 743 -28 q 533 36 533 -28 q 556 136 533 78 q 372 25 469 72 q 200 -22 274 -22 q 135 -1 167 -22 q 103 70 103 19 q 214 316 103 121 q 325 550 325 511 q 283 589 325 589 q 186 553 240 589 q 170 544 174 544 q 167 550 167 544 q 175 561 167 556 q 328 622 264 622 q 419 542 419 622 q 314 313 419 500 q 208 93 208 126 q 232 47 208 60 q 283 33 256 33 q 442 90 354 33 q 578 197 529 146 q 686 403 608 264 q 783 567 764 543 q 872 619 832 619 q 883 603 883 619 q 819 472 883 586 q 675 256 754 357 q 628 81 628 153 q 640 43 628 58 q 672 28 653 28 q 817 65 742 28 q 954 156 893 101 m 508 836 q 536 900 508 867 q 586 933 561 933 q 624 919 611 933 q 636 878 636 904 q 611 819 636 851 q 553 786 586 786 q 508 836 508 786 m 719 836 q 747 900 719 867 q 797 933 772 933 q 835 919 822 933 q 847 878 847 904 q 822 819 847 851 q 764 786 797 786 q 719 836 719 786 z "},"":{"ha":839,"x_min":-783,"x_max":1089,"o":"m 339 -231 q 6 -424 150 -342 q -239 -568 -139 -506 q -394 -673 -339 -631 q -514 -775 -450 -715 q -611 -885 -578 -833 q -689 -1117 -689 -1006 q -618 -1287 -689 -1228 q -453 -1347 -547 -1347 q -339 -1308 -393 -1347 q -228 -1203 -274 -1262 q -150 -1098 -182 -1143 q -73 -978 -118 -1053 q 11 -836 -28 -903 q 108 -661 50 -767 q 339 -231 225 -444 m 333 622 q 395 601 374 622 q 417 558 417 581 q 411 515 417 535 q 392 469 406 496 q 369 419 381 442 q 318 317 333 344 q 285 255 303 289 q 259 203 268 221 q 239 161 250 186 q 219 85 219 113 q 244 45 219 57 q 294 33 268 33 q 547 158 399 33 l 700 447 q 723 505 711 472 q 740 550 735 538 q 803 588 756 583 q 857 592 850 592 q 864 586 864 592 q 844 550 864 581 q 744 394 764 429 l 461 -131 l 683 11 q 817 99 767 64 q 944 204 867 135 q 1072 344 1022 274 q 1083 353 1078 353 q 1089 349 1089 353 q 1086 339 1089 344 q 1013 247 1042 279 q 903 147 985 214 q 694 -3 821 79 l 439 -169 q 315 -403 400 -242 q 179 -656 229 -565 q 44 -890 129 -746 q -99 -1106 -40 -1033 q -233 -1258 -157 -1178 q -536 -1403 -372 -1403 q -719 -1332 -656 -1403 q -783 -1180 -783 -1261 q -758 -1025 -783 -1099 q -693 -892 -733 -951 q -583 -769 -653 -832 q -444 -657 -512 -706 q -270 -546 -375 -608 q -79 -436 -165 -483 q 361 -189 176 -296 l 525 117 q 352 12 438 46 q 222 -22 267 -22 q 146 -1 178 -22 q 114 72 114 19 q 140 165 114 114 q 193 268 165 217 q 229 335 221 319 q 251 378 238 351 q 272 417 265 404 q 290 454 278 431 q 307 493 301 478 q 322 553 322 535 q 289 592 322 592 q 186 553 244 592 q 170 544 174 544 q 167 550 167 544 q 175 561 167 556 q 333 622 264 622 m 522 783 l 853 975 q 875 983 865 983 q 881 972 881 983 q 872 944 881 961 q 853 922 863 926 q 719 861 808 903 q 500 761 508 761 q 492 763 492 761 q 522 783 492 765 z "},"":{"ha":728,"x_min":-883,"x_max":978,"o":"m 525 1008 q 492 1044 525 1044 q 381 1003 443 1044 q 365 994 368 994 q 361 1000 361 994 q 368 1011 361 1006 q 398 1032 375 1017 q 465 1065 421 1047 q 544 1083 508 1083 q 599 1064 579 1083 q 619 1022 619 1044 q 609 978 619 1000 q 549 868 599 956 q 467 719 500 781 l 261 350 q 528 574 410 497 q 717 650 646 650 q 789 556 789 650 q 594 270 789 443 q 136 28 400 97 q 303 -14 214 -14 q 472 4 392 -14 q 619 58 553 22 q 904 276 785 147 q 958 339 949 325 q 972 353 967 353 q 978 349 978 353 q 975 339 978 344 q 825 172 904 243 q 217 -69 556 -69 q 53 -31 131 -69 q -278 -678 -90 -293 q -608 -1317 -465 -1062 q -665 -1389 -631 -1357 q -731 -1437 -700 -1421 q -794 -1464 -762 -1453 q -863 -1481 -843 -1481 q -883 -1473 -883 -1481 q -877 -1461 -883 -1465 q -851 -1446 -871 -1457 q -805 -1415 -831 -1435 q -735 -1334 -779 -1394 q -503 -945 -692 -1274 q 17 -6 -314 -617 q 8 8 8 3 q 21 23 8 13 q 39 33 33 33 q 266 469 158 250 q 394 728 374 688 q 433 804 415 768 q 460 859 451 840 q 482 903 469 878 q 500 942 494 928 q 514 971 508 956 q 525 1008 525 1000 m 206 244 l 103 53 q 323 134 213 75 q 509 262 433 193 q 633 396 585 331 q 681 500 681 461 q 619 581 681 581 q 433 469 568 581 q 206 244 299 357 z "},"":{"ha":839,"x_min":-783,"x_max":1089,"o":"m 339 -231 q 6 -424 150 -342 q -239 -568 -139 -506 q -394 -673 -339 -631 q -514 -775 -450 -715 q -611 -885 -578 -833 q -689 -1117 -689 -1006 q -618 -1287 -689 -1228 q -453 -1347 -547 -1347 q -339 -1308 -393 -1347 q -228 -1203 -274 -1262 q -150 -1098 -182 -1143 q -73 -978 -118 -1053 q 11 -836 -28 -903 q 108 -661 50 -767 q 339 -231 225 -444 m 333 622 q 395 601 374 622 q 417 558 417 581 q 411 515 417 535 q 392 469 406 496 q 369 419 381 442 q 318 317 333 344 q 285 255 303 289 q 259 203 268 221 q 239 161 250 186 q 219 85 219 113 q 244 45 219 57 q 294 33 268 33 q 547 158 399 33 l 700 447 q 723 505 711 472 q 740 550 735 538 q 803 588 756 583 q 857 592 850 592 q 864 586 864 592 q 844 550 864 581 q 744 394 764 429 l 461 -131 l 683 11 q 817 99 767 64 q 944 204 867 135 q 1072 344 1022 274 q 1083 353 1078 353 q 1089 349 1089 353 q 1086 339 1089 344 q 1013 247 1042 279 q 903 147 985 214 q 694 -3 821 79 l 439 -169 q 315 -403 400 -242 q 179 -656 229 -565 q 44 -890 129 -746 q -99 -1106 -40 -1033 q -233 -1258 -157 -1178 q -536 -1403 -372 -1403 q -719 -1332 -656 -1403 q -783 -1180 -783 -1261 q -758 -1025 -783 -1099 q -693 -892 -733 -951 q -583 -769 -653 -832 q -444 -657 -512 -706 q -270 -546 -375 -608 q -79 -436 -165 -483 q 361 -189 176 -296 l 525 117 q 352 12 438 46 q 222 -22 267 -22 q 146 -1 178 -22 q 114 72 114 19 q 140 165 114 114 q 193 268 165 217 q 229 335 221 319 q 251 378 238 351 q 272 417 265 404 q 290 454 278 431 q 307 493 301 478 q 322 553 322 535 q 289 592 322 592 q 186 553 244 592 q 170 544 174 544 q 167 550 167 544 q 175 561 167 556 q 333 622 264 622 m 508 836 q 536 900 508 867 q 586 933 561 933 q 624 919 611 933 q 636 878 636 904 q 611 819 636 851 q 553 786 586 786 q 508 836 508 786 m 719 836 q 747 900 719 867 q 797 933 772 933 q 835 919 822 933 q 847 878 847 904 q 822 819 847 851 q 764 786 797 786 q 719 836 719 786 z "},"":{"ha":1361,"x_min":-69,"x_max":1611,"o":"m 561 475 l 608 475 q 771 458 664 475 q 918 442 878 442 q 981 444 958 442 q 1032 744 1000 603 q 1081 957 1064 886 q 1108 1070 1097 1028 q 1119 1117 1119 1113 q 1117 1122 1119 1122 q 1078 1083 1106 1122 l 561 475 m 517 425 q 142 31 250 121 q 22 -8 101 0 q -9 -14 18 -8 q -53 -19 -36 -19 q -69 -8 -69 -19 q -47 11 -69 6 q 42 61 6 29 q 479 474 251 244 q 1036 1089 707 704 q 1073 1131 1058 1114 q 1103 1163 1088 1149 q 1125 1183 1118 1176 q 1147 1197 1132 1189 q 1165 1208 1161 1206 q 1202 1223 1183 1217 q 1245 1241 1221 1229 q 1279 1253 1269 1253 q 1289 1242 1289 1253 l 1289 1239 q 1274 1190 1289 1224 q 1258 1153 1258 1156 q 1172 844 1219 1047 q 1100 461 1124 642 q 1272 547 1194 485 q 1303 567 1297 567 q 1308 559 1308 567 q 1278 527 1308 551 q 1195 475 1247 503 q 1097 436 1143 447 q 1083 247 1083 315 q 1172 36 1083 36 q 1305 85 1224 36 q 1469 207 1386 135 q 1594 344 1551 279 q 1606 353 1600 353 q 1611 349 1611 353 q 1608 339 1611 344 q 1459 174 1533 239 q 1283 49 1385 108 q 1096 -11 1181 -11 q 986 41 1011 -11 q 961 203 961 93 q 975 411 961 314 q 801 397 850 397 q 660 413 751 397 q 547 428 568 428 q 517 425 525 428 m 1528 1461 l 1136 1464 q 1117 1483 1117 1464 q 1128 1503 1117 1503 l 1586 1500 q 1608 1486 1608 1500 q 1528 1461 1608 1461 z "},"":{"ha":850,"x_min":86,"x_max":1100,"o":"m 603 233 q 744 422 744 375 q 733 433 744 433 q 603 233 706 433 m 575 608 q 397 531 488 608 q 250 344 306 453 q 194 142 194 236 q 272 47 194 47 q 464 125 358 47 q 583 350 493 228 q 722 489 667 468 q 575 608 675 608 m 569 642 q 744 494 703 642 q 781 464 781 494 q 768 402 781 426 q 749 366 756 378 q 728 336 743 354 q 706 311 711 318 q 586 192 649 247 q 564 94 564 119 q 657 36 564 36 q 888 147 750 36 q 1083 344 1026 258 q 1094 353 1089 353 q 1100 349 1100 353 q 1097 339 1100 344 q 948 174 1022 239 q 766 46 874 108 q 569 -17 658 -17 q 458 72 458 -17 q 460 85 458 76 q 461 97 461 93 q 203 0 304 0 q 86 142 86 0 q 159 362 86 244 q 347 560 232 479 q 569 642 461 642 m 889 833 l 497 836 q 478 856 478 836 q 489 875 478 875 l 947 872 q 969 858 969 872 q 889 833 969 833 z "},"":{"ha":1361,"x_min":-69,"x_max":1661,"o":"m 561 475 l 608 475 q 771 458 664 475 q 918 442 878 442 q 981 444 958 442 q 1032 744 1000 603 q 1081 957 1064 886 q 1108 1070 1097 1028 q 1119 1117 1119 1113 q 1117 1122 1119 1122 q 1078 1083 1106 1122 l 561 475 m 517 425 q 142 31 250 121 q 22 -8 101 0 q -9 -14 18 -8 q -53 -19 -36 -19 q -69 -8 -69 -19 q -47 11 -69 6 q 42 61 6 29 q 479 474 251 244 q 1036 1089 707 704 q 1073 1131 1058 1114 q 1103 1163 1088 1149 q 1125 1183 1118 1176 q 1147 1197 1132 1189 q 1165 1208 1161 1206 q 1202 1223 1183 1217 q 1245 1241 1221 1229 q 1279 1253 1269 1253 q 1289 1242 1289 1253 l 1289 1239 q 1274 1190 1289 1224 q 1258 1153 1258 1156 q 1172 844 1219 1047 q 1100 461 1124 642 q 1272 547 1194 485 q 1303 567 1297 567 q 1308 559 1308 567 q 1278 527 1308 551 q 1195 475 1247 503 q 1097 436 1143 447 q 1083 247 1083 315 q 1172 36 1083 36 q 1305 85 1224 36 q 1469 207 1386 135 q 1594 344 1551 279 q 1606 353 1600 353 q 1611 349 1611 353 q 1608 339 1611 344 q 1459 174 1533 239 q 1283 49 1385 108 q 1096 -11 1181 -11 q 986 41 1011 -11 q 961 203 961 93 q 975 411 961 314 q 801 397 850 397 q 660 413 751 397 q 547 428 568 428 q 517 425 525 428 m 1297 1631 q 1283 1559 1283 1594 q 1315 1498 1283 1524 q 1392 1472 1346 1472 q 1592 1594 1508 1472 q 1622 1616 1599 1601 q 1658 1631 1646 1631 l 1661 1631 q 1614 1573 1661 1619 q 1484 1480 1567 1526 q 1334 1433 1401 1433 q 1242 1463 1267 1433 q 1217 1526 1217 1493 q 1231 1597 1217 1560 q 1258 1620 1235 1607 q 1294 1633 1282 1633 l 1297 1631 z "},"":{"ha":850,"x_min":86,"x_max":1100,"o":"m 603 233 q 744 422 744 375 q 733 433 744 433 q 603 233 706 433 m 575 608 q 397 531 488 608 q 250 344 306 453 q 194 142 194 236 q 272 47 194 47 q 464 125 358 47 q 583 350 493 228 q 722 489 667 468 q 575 608 675 608 m 569 642 q 744 494 703 642 q 781 464 781 494 q 768 402 781 426 q 749 366 756 378 q 728 336 743 354 q 706 311 711 318 q 586 192 649 247 q 564 94 564 119 q 657 36 564 36 q 888 147 750 36 q 1083 344 1026 258 q 1094 353 1089 353 q 1100 349 1100 353 q 1097 339 1100 344 q 948 174 1022 239 q 766 46 874 108 q 569 -17 658 -17 q 458 72 458 -17 q 460 85 458 76 q 461 97 461 93 q 203 0 304 0 q 86 142 86 0 q 159 362 86 244 q 347 560 232 479 q 569 642 461 642 m 658 1003 q 644 931 644 967 q 676 870 644 896 q 753 844 707 844 q 953 967 869 844 q 983 988 960 974 q 1019 1003 1007 1003 l 1022 1003 q 975 945 1022 992 q 845 852 928 899 q 695 806 763 806 q 603 835 628 806 q 578 899 578 865 q 592 969 578 932 q 619 992 596 979 q 656 1006 643 1006 l 658 1003 z "},"":{"ha":1361,"x_min":-69,"x_max":1611,"o":"m 561 475 l 608 475 q 771 458 664 475 q 918 442 878 442 q 981 444 958 442 q 1032 744 1000 603 q 1081 957 1064 886 q 1108 1070 1097 1028 q 1119 1117 1119 1113 q 1117 1122 1119 1122 q 1078 1083 1106 1122 l 561 475 m 517 425 q 142 31 250 121 q 22 -8 101 0 q -9 -14 18 -8 q -53 -19 -36 -19 q -69 -8 -69 -19 q -47 11 -69 6 q 42 61 6 29 q 479 474 251 244 q 1036 1089 707 704 q 1073 1131 1058 1114 q 1103 1163 1088 1149 q 1125 1183 1118 1176 q 1147 1197 1132 1189 q 1165 1208 1161 1206 q 1202 1223 1183 1217 q 1245 1241 1221 1229 q 1279 1253 1269 1253 q 1289 1242 1289 1253 l 1289 1239 q 1274 1190 1289 1224 q 1258 1153 1258 1156 q 1172 844 1219 1047 q 1100 461 1124 642 q 1272 547 1194 485 q 1303 567 1297 567 q 1308 559 1308 567 q 1278 527 1308 551 q 1195 475 1247 503 q 1097 436 1143 447 q 1083 247 1083 315 q 1172 36 1083 36 q 1305 85 1224 36 q 1469 207 1386 135 q 1594 344 1551 279 q 1606 353 1600 353 q 1611 349 1611 353 q 1608 339 1611 344 q 1459 174 1533 239 q 1283 49 1385 108 q 1096 -11 1181 -11 q 986 41 1011 -11 q 961 203 961 93 q 975 411 961 314 q 801 397 850 397 q 660 413 751 397 q 547 428 568 428 q 517 425 525 428 m 941 -78 q 955 -70 941 -78 q 1036 -27 968 -62 q 1108 8 1104 8 q 1111 3 1111 8 q 1064 -28 1111 -1 q 1008 -58 1017 -54 q 892 -211 892 -133 q 917 -268 892 -244 q 970 -292 943 -292 q 1017 -286 997 -292 l 1036 -281 q 1047 -283 1047 -281 q 1025 -294 1047 -286 q 925 -314 967 -314 q 806 -236 806 -314 q 833 -164 806 -199 q 887 -111 860 -129 q 941 -78 914 -93 z "},"":{"ha":850,"x_min":86,"x_max":1100,"o":"m 603 233 q 744 422 744 375 q 733 433 744 433 q 603 233 706 433 m 575 608 q 397 531 488 608 q 250 344 306 453 q 194 142 194 236 q 272 47 194 47 q 464 125 358 47 q 583 350 493 228 q 722 489 667 468 q 575 608 675 608 m 569 642 q 744 494 703 642 q 781 464 781 494 q 768 402 781 426 q 749 366 756 378 q 728 336 743 354 q 706 311 711 318 q 586 192 649 247 q 564 94 564 119 q 657 36 564 36 q 888 147 750 36 q 1083 344 1026 258 q 1094 353 1089 353 q 1100 349 1100 353 q 1097 339 1100 344 q 948 174 1022 239 q 766 46 874 108 q 569 -17 658 -17 q 458 72 458 -17 q 460 85 458 76 q 461 97 461 93 q 203 0 304 0 q 86 142 86 0 q 159 362 86 244 q 347 560 232 479 q 569 642 461 642 m 438 -78 q 452 -70 438 -78 q 533 -27 465 -62 q 605 8 601 8 q 608 3 608 8 q 561 -28 608 -1 q 506 -58 514 -54 q 389 -211 389 -133 q 415 -268 389 -244 q 467 -292 440 -292 q 514 -286 494 -292 l 533 -281 q 544 -283 544 -281 q 522 -294 544 -286 q 422 -314 464 -314 q 303 -236 303 -314 q 330 -164 303 -199 q 384 -111 357 -129 q 438 -78 411 -93 z "},"":{"ha":1194,"x_min":222,"x_max":1436,"o":"m 1378 1122 q 1378 1115 1378 1122 q 1349 1079 1378 1108 q 1313 1036 1321 1050 q 1297 1022 1304 1022 q 1289 1033 1289 1022 q 1225 1125 1289 1081 q 1089 1169 1161 1169 q 822 1094 950 1169 q 491 758 626 967 q 356 317 356 549 q 435 100 356 189 q 633 11 514 11 q 945 92 833 11 q 1097 300 1057 174 q 1114 333 1107 333 q 1143 309 1128 333 q 1158 268 1158 285 q 1136 217 1158 251 q 1065 139 1114 182 q 952 58 1017 96 q 790 -7 888 19 q 586 -33 693 -33 q 326 69 429 -33 q 222 325 222 171 q 391 765 222 542 q 803 1125 560 988 q 1178 1231 986 1231 q 1349 1167 1288 1231 q 1378 1122 1378 1136 m 1078 1411 l 1408 1603 q 1431 1611 1421 1611 q 1436 1600 1436 1611 q 1427 1572 1436 1589 q 1408 1550 1418 1554 q 1275 1489 1364 1531 q 1056 1389 1064 1389 q 1047 1391 1047 1389 q 1078 1411 1047 1393 z "},"":{"ha":650,"x_min":94,"x_max":900,"o":"m 360 518 q 326 480 360 518 q 246 340 292 442 q 200 163 200 238 q 233 46 200 89 q 353 3 265 3 q 549 61 440 3 q 749 199 658 119 q 883 344 840 279 q 894 353 889 353 q 900 349 900 353 q 897 339 900 344 q 758 189 838 260 q 300 -31 514 -31 q 153 8 211 -31 q 94 131 94 47 q 149 317 94 217 q 276 487 201 415 q 430 604 350 558 q 555 650 510 650 q 619 628 600 650 q 639 574 639 606 q 631 531 639 543 q 590 503 622 519 q 550 486 558 486 q 542 489 542 486 q 543 494 542 492 q 547 531 547 506 q 526 575 547 556 q 483 594 506 594 q 360 518 428 594 m 464 783 l 794 975 q 817 983 807 983 q 822 972 822 983 q 813 944 822 961 q 794 922 804 926 q 661 861 750 903 q 442 761 450 761 q 433 763 433 761 q 464 783 433 765 z "},"":{"ha":1194,"x_min":222,"x_max":1403,"o":"m 1378 1122 q 1378 1115 1378 1122 q 1349 1079 1378 1108 q 1313 1036 1321 1050 q 1297 1022 1304 1022 q 1289 1033 1289 1022 q 1225 1125 1289 1081 q 1089 1169 1161 1169 q 822 1094 950 1169 q 491 758 626 967 q 356 317 356 549 q 435 100 356 189 q 633 11 514 11 q 945 92 833 11 q 1097 300 1057 174 q 1114 333 1107 333 q 1143 309 1128 333 q 1158 268 1158 285 q 1136 217 1158 251 q 1065 139 1114 182 q 952 58 1017 96 q 790 -7 888 19 q 586 -33 693 -33 q 326 69 429 -33 q 222 325 222 171 q 391 765 222 542 q 803 1125 560 988 q 1178 1231 986 1231 q 1349 1167 1288 1231 q 1378 1122 1378 1136 m 1272 1597 q 1314 1619 1301 1619 q 1329 1611 1326 1619 q 1367 1533 1332 1603 q 1403 1426 1403 1463 q 1386 1416 1403 1424 q 1358 1399 1369 1408 q 1344 1389 1347 1389 l 1342 1388 l 1342 1389 q 1269 1553 1310 1468 l 1003 1406 q 961 1392 978 1392 l 958 1394 q 986 1414 958 1397 q 1272 1597 1125 1500 z "},"":{"ha":650,"x_min":94,"x_max":900,"o":"m 360 518 q 326 480 360 518 q 246 340 292 442 q 200 163 200 238 q 233 46 200 89 q 353 3 265 3 q 549 61 440 3 q 749 199 658 119 q 883 344 840 279 q 894 353 889 353 q 900 349 900 353 q 897 339 900 344 q 758 189 838 260 q 300 -31 514 -31 q 153 8 211 -31 q 94 131 94 47 q 149 317 94 217 q 276 487 201 415 q 430 604 350 558 q 555 650 510 650 q 619 628 600 650 q 639 574 639 606 q 631 531 639 543 q 590 503 622 519 q 550 486 558 486 q 542 489 542 486 q 543 494 542 492 q 547 531 547 506 q 526 575 547 556 q 483 594 506 594 q 360 518 428 594 m 658 969 q 700 992 688 992 q 715 983 713 992 q 753 905 718 975 q 789 799 789 835 q 772 788 789 796 q 744 771 756 781 q 731 761 733 761 l 728 760 l 728 761 q 656 925 696 840 l 389 778 q 347 764 364 764 l 344 767 q 372 786 344 769 q 658 969 511 872 z "},"":{"ha":1194,"x_min":222,"x_max":1378,"o":"m 1378 1122 q 1378 1115 1378 1122 q 1349 1079 1378 1108 q 1313 1036 1321 1050 q 1297 1022 1304 1022 q 1289 1033 1289 1022 q 1225 1125 1289 1081 q 1089 1169 1161 1169 q 822 1094 950 1169 q 491 758 626 967 q 356 317 356 549 q 435 100 356 189 q 633 11 514 11 q 945 92 833 11 q 1097 300 1057 174 q 1114 333 1107 333 q 1143 309 1128 333 q 1158 268 1158 285 q 1136 217 1158 251 q 1065 139 1114 182 q 952 58 1017 96 q 790 -7 888 19 q 586 -33 693 -33 q 326 69 429 -33 q 222 325 222 171 q 391 765 222 542 q 803 1125 560 988 q 1178 1231 986 1231 q 1349 1167 1288 1231 q 1378 1122 1378 1136 m 1164 1464 q 1192 1528 1164 1494 q 1242 1561 1217 1561 q 1279 1547 1267 1561 q 1292 1506 1292 1532 q 1267 1447 1292 1479 q 1208 1414 1242 1414 q 1164 1464 1164 1414 z "},"":{"ha":650,"x_min":94,"x_max":900,"o":"m 360 518 q 326 480 360 518 q 246 340 292 442 q 200 163 200 238 q 233 46 200 89 q 353 3 265 3 q 549 61 440 3 q 749 199 658 119 q 883 344 840 279 q 894 353 889 353 q 900 349 900 353 q 897 339 900 344 q 758 189 838 260 q 300 -31 514 -31 q 153 8 211 -31 q 94 131 94 47 q 149 317 94 217 q 276 487 201 415 q 430 604 350 558 q 555 650 510 650 q 619 628 600 650 q 639 574 639 606 q 631 531 639 543 q 590 503 622 519 q 550 486 558 486 q 542 489 542 486 q 543 494 542 492 q 547 531 547 506 q 526 575 547 556 q 483 594 506 594 q 360 518 428 594 m 550 836 q 578 900 550 867 q 628 933 603 933 q 665 919 653 933 q 678 878 678 904 q 653 819 678 851 q 594 786 628 786 q 550 836 550 786 z "},"":{"ha":1194,"x_min":222,"x_max":1531,"o":"m 1378 1122 q 1378 1115 1378 1122 q 1349 1079 1378 1108 q 1313 1036 1321 1050 q 1297 1022 1304 1022 q 1289 1033 1289 1022 q 1225 1125 1289 1081 q 1089 1169 1161 1169 q 822 1094 950 1169 q 491 758 626 967 q 356 317 356 549 q 435 100 356 189 q 633 11 514 11 q 945 92 833 11 q 1097 300 1057 174 q 1114 333 1107 333 q 1143 309 1128 333 q 1158 268 1158 285 q 1136 217 1158 251 q 1065 139 1114 182 q 952 58 1017 96 q 790 -7 888 19 q 586 -33 693 -33 q 326 69 429 -33 q 222 325 222 171 q 391 765 222 542 q 803 1125 560 988 q 1178 1231 986 1231 q 1349 1167 1288 1231 q 1378 1122 1378 1136 m 1217 1450 q 1175 1428 1188 1428 q 1160 1436 1163 1428 q 1122 1515 1157 1444 q 1086 1621 1086 1585 q 1103 1631 1086 1624 q 1131 1649 1119 1639 q 1144 1658 1142 1658 l 1147 1660 l 1147 1658 q 1219 1494 1179 1579 l 1486 1642 q 1528 1656 1511 1656 l 1531 1653 q 1503 1633 1531 1650 q 1217 1450 1364 1547 z "},"":{"ha":650,"x_min":94,"x_max":917,"o":"m 360 518 q 326 480 360 518 q 246 340 292 442 q 200 163 200 238 q 233 46 200 89 q 353 3 265 3 q 549 61 440 3 q 749 199 658 119 q 883 344 840 279 q 894 353 889 353 q 900 349 900 353 q 897 339 900 344 q 758 189 838 260 q 300 -31 514 -31 q 153 8 211 -31 q 94 131 94 47 q 149 317 94 217 q 276 487 201 415 q 430 604 350 558 q 555 650 510 650 q 619 628 600 650 q 639 574 639 606 q 631 531 639 543 q 590 503 622 519 q 550 486 558 486 q 542 489 542 486 q 543 494 542 492 q 547 531 547 506 q 526 575 547 556 q 483 594 506 594 q 360 518 428 594 m 603 822 q 561 800 574 800 q 546 808 549 800 q 508 887 543 817 q 472 993 472 957 q 489 1003 472 996 q 517 1021 506 1011 q 531 1031 528 1031 l 533 1032 l 533 1031 q 606 867 565 951 l 872 1014 q 914 1028 897 1028 l 917 1025 q 889 1006 917 1022 q 603 822 750 919 z "},"":{"ha":1658,"x_min":181,"x_max":1744,"o":"m 667 258 q 561 386 593 361 q 500 411 529 411 q 338 309 418 411 q 258 125 258 207 q 369 36 258 36 q 509 91 428 36 q 667 258 590 146 m 775 333 q 814 254 789 308 q 858 165 839 200 q 908 89 878 129 q 1085 8 971 8 q 1304 74 1200 8 q 1477 242 1408 139 q 1585 471 1546 346 q 1625 717 1625 596 q 1256 1186 1625 1111 q 999 703 1140 957 q 775 333 858 450 m 544 853 q 553 814 544 836 q 543 808 553 808 q 517 825 533 808 q 489 850 500 842 q 467 883 467 867 q 562 1061 467 979 q 793 1187 657 1143 q 1064 1231 929 1231 q 1153 1228 1125 1231 q 1167 1289 1167 1260 q 1134 1372 1167 1347 q 1044 1397 1101 1397 q 942 1379 986 1397 q 872 1343 899 1361 q 842 1325 844 1325 q 833 1333 833 1325 q 864 1361 833 1339 q 954 1407 894 1383 q 1067 1431 1014 1431 q 1163 1420 1121 1431 q 1241 1376 1204 1410 q 1278 1286 1278 1342 q 1264 1214 1278 1256 q 1744 650 1744 1135 q 1692 394 1744 519 q 1550 177 1639 269 q 1338 28 1461 85 q 1083 -28 1215 -28 q 900 11 986 -28 q 831 62 869 25 q 773 122 793 99 q 726 181 753 146 q 692 225 699 217 q 560 92 618 142 q 431 10 501 43 q 310 -22 361 -22 q 219 3 258 -22 q 181 81 181 28 q 224 206 181 133 q 328 341 267 279 q 463 446 389 403 q 594 489 538 489 q 742 383 667 489 q 976 833 867 604 q 1142 1203 1086 1061 q 1056 1206 1114 1206 q 822 1155 942 1206 q 624 1021 703 1104 q 544 853 544 938 m 1308 1533 q 1267 1511 1279 1511 q 1251 1519 1254 1511 q 1213 1598 1249 1528 q 1178 1704 1178 1668 q 1194 1715 1178 1707 q 1222 1732 1211 1722 q 1236 1742 1233 1742 l 1239 1743 l 1239 1742 q 1311 1578 1271 1663 l 1578 1725 q 1619 1739 1603 1739 l 1622 1736 q 1594 1717 1622 1733 q 1308 1533 1456 1631 z "},"":{"ha":947,"x_min":86,"x_max":1903,"o":"m 736 453 l 661 297 q 1003 710 803 453 q 1294 1118 1204 967 q 1480 1478 1385 1269 q 1575 1769 1575 1686 q 1550 1808 1575 1808 q 1431 1732 1501 1808 q 1288 1536 1360 1656 q 1072 1142 1161 1325 l 750 478 q 753 456 753 467 q 744 444 753 444 q 736 453 740 444 m 697 539 q 570 608 653 608 q 397 531 488 608 q 250 344 306 453 q 194 142 194 236 q 272 47 194 47 q 536 181 376 47 q 697 539 560 265 m 711 569 l 975 1100 q 1140 1415 1097 1350 q 1227 1547 1182 1481 q 1311 1654 1272 1613 q 1508 1819 1418 1767 q 1586 1847 1556 1847 q 1636 1778 1636 1847 q 1554 1445 1636 1619 q 1333 1072 1472 1271 q 1002 653 1239 935 q 644 250 765 371 q 617 125 617 179 q 715 36 617 36 q 955 147 814 36 q 1153 344 1096 257 q 1164 353 1158 353 q 1169 349 1169 353 q 1167 339 1169 344 q 1017 174 1092 239 q 841 49 943 108 q 667 -11 739 -11 q 560 22 596 -11 q 525 108 525 54 q 531 156 525 133 q 203 0 343 0 q 86 142 86 0 q 159 362 86 244 q 347 560 232 479 q 561 642 461 642 q 711 569 661 642 m 1858 1800 q 1903 1700 1903 1800 q 1865 1591 1901 1649 q 1781 1492 1828 1533 q 1697 1424 1735 1451 q 1650 1397 1658 1397 q 1642 1403 1642 1397 q 1644 1410 1642 1408 q 1651 1414 1646 1411 q 1661 1419 1657 1417 q 1783 1524 1729 1464 q 1836 1644 1836 1583 q 1813 1719 1836 1681 q 1789 1761 1789 1757 q 1818 1787 1789 1774 q 1858 1800 1847 1800 z "},"":{"ha":1903,"x_min":181,"x_max":1744,"o":"m 667 258 q 561 386 593 361 q 500 411 529 411 q 338 309 418 411 q 258 125 258 207 q 369 36 258 36 q 509 91 428 36 q 667 258 590 146 m 775 333 q 814 254 789 308 q 858 165 839 200 q 908 89 878 129 q 1085 8 971 8 q 1304 74 1200 8 q 1477 242 1408 139 q 1585 471 1546 346 q 1625 717 1625 596 q 1256 1186 1625 1111 q 999 703 1140 957 q 775 333 858 450 m 544 853 q 553 814 544 836 q 543 808 553 808 q 517 825 533 808 q 489 850 500 842 q 467 883 467 867 q 562 1061 467 979 q 793 1187 657 1143 q 1064 1231 929 1231 q 1153 1228 1125 1231 q 1167 1289 1167 1260 q 1134 1372 1167 1347 q 1044 1397 1101 1397 q 942 1379 986 1397 q 872 1343 899 1361 q 842 1325 844 1325 q 833 1333 833 1325 q 864 1361 833 1339 q 954 1407 894 1383 q 1067 1431 1014 1431 q 1163 1420 1121 1431 q 1241 1376 1204 1410 q 1278 1286 1278 1342 q 1264 1214 1278 1256 q 1744 650 1744 1135 q 1692 394 1744 519 q 1550 177 1639 269 q 1338 28 1461 85 q 1083 -28 1215 -28 q 900 11 986 -28 q 831 62 869 25 q 773 122 793 99 q 726 181 753 146 q 692 225 699 217 q 560 92 618 142 q 431 10 501 43 q 310 -22 361 -22 q 219 3 258 -22 q 181 81 181 28 q 224 206 181 133 q 328 341 267 279 q 463 446 389 403 q 594 489 538 489 q 742 383 667 489 q 976 833 867 604 q 1142 1203 1086 1061 q 1056 1206 1114 1206 q 822 1155 942 1206 q 624 1021 703 1104 q 544 853 544 938 m 1272 694 q 1278 688 1278 694 q 1228 653 1278 681 q 1178 628 1188 628 q 933 625 1111 626 q 622 617 756 624 q 617 619 617 617 q 661 656 617 628 q 722 683 706 683 q 1272 694 967 694 z "},"":{"ha":947,"x_min":86,"x_max":1636,"o":"m 736 453 l 661 297 q 1003 710 803 453 q 1294 1118 1204 967 q 1480 1478 1385 1269 q 1575 1769 1575 1686 q 1550 1808 1575 1808 q 1431 1732 1501 1808 q 1288 1536 1360 1656 q 1072 1142 1161 1325 l 750 478 q 753 456 753 467 q 744 444 753 444 q 736 453 740 444 m 697 539 q 570 608 653 608 q 397 531 488 608 q 250 344 306 453 q 194 142 194 236 q 272 47 194 47 q 536 181 376 47 q 697 539 560 265 m 711 569 l 975 1100 q 1140 1415 1097 1350 q 1227 1547 1182 1481 q 1311 1654 1272 1613 q 1508 1819 1418 1767 q 1586 1847 1556 1847 q 1636 1778 1636 1847 q 1554 1445 1636 1619 q 1333 1072 1472 1271 q 1002 653 1239 935 q 644 250 765 371 q 617 125 617 179 q 715 36 617 36 q 955 147 814 36 q 1153 344 1096 257 q 1164 353 1158 353 q 1169 349 1169 353 q 1167 339 1169 344 q 1017 174 1092 239 q 841 49 943 108 q 667 -11 739 -11 q 560 22 596 -11 q 525 108 525 54 q 531 156 525 133 q 203 0 343 0 q 86 142 86 0 q 159 362 86 244 q 347 560 232 479 q 561 642 461 642 q 711 569 661 642 m 1217 1072 q 1222 1068 1222 1072 q 1208 1053 1222 1064 q 1174 1028 1194 1042 q 1133 1017 1151 1017 q 744 1006 761 1006 q 739 1006 742 1006 q 728 1008 728 1006 q 754 1040 728 1019 q 797 1061 781 1061 q 1217 1072 1042 1072 z "},"":{"ha":1158,"x_min":219,"x_max":1475,"o":"m 1081 347 l 1075 383 q 1081 392 1075 392 l 1114 369 q 1120 365 1117 368 q 1126 360 1124 361 q 1131 356 1128 358 q 1133 353 1132 356 q 1136 339 1136 349 q 1099 237 1136 297 q 998 115 1063 176 q 826 10 933 53 q 589 -33 719 -33 q 339 50 458 -33 q 219 264 219 133 q 260 439 219 358 q 363 569 301 519 q 496 658 424 618 q 629 717 568 697 q 772 769 772 764 q 756 792 772 781 q 672 948 672 849 q 784 1139 672 1047 q 1086 1231 896 1231 q 1231 1214 1154 1231 q 1381 1119 1381 1179 q 1365 1078 1381 1103 q 1340 1034 1350 1054 q 1325 1014 1331 1014 q 1314 1031 1319 1014 q 1228 1142 1297 1088 q 1063 1197 1160 1197 q 906 1178 967 1197 q 815 1131 843 1161 q 767 1024 767 1078 q 797 915 767 971 q 872 833 826 860 q 928 800 928 807 q 917 763 928 776 q 869 744 906 749 q 654 694 747 731 q 506 613 561 658 q 417 510 451 568 q 358 283 358 411 q 388 161 358 214 q 464 81 417 108 q 658 25 594 29 q 966 124 851 25 q 1081 347 1081 222 m 1394 1461 l 1003 1464 q 983 1483 983 1464 q 994 1503 983 1503 l 1453 1500 q 1475 1486 1475 1500 q 1394 1461 1475 1461 z "},"":{"ha":603,"x_min":36,"x_max":878,"o":"m 94 178 l 39 133 q 36 139 36 133 q 46 154 36 144 q 100 197 56 164 q 196 386 132 297 q 326 530 260 475 q 453 616 393 585 q 547 647 513 647 q 619 592 619 647 q 604 549 619 571 q 548 496 589 528 q 470 438 507 464 q 353 358 433 413 q 217 264 274 304 q 192 133 192 193 q 224 43 192 72 q 334 14 257 14 q 512 68 411 14 q 703 201 613 122 q 836 344 793 279 q 847 353 842 353 q 853 349 853 353 q 850 339 853 344 q 478 28 696 139 q 272 -22 372 -22 q 83 108 83 -22 q 94 178 83 128 m 228 289 q 461 472 392 407 q 531 572 531 536 q 500 608 531 608 q 354 510 432 608 q 228 289 276 413 m 797 833 l 406 836 q 386 856 386 836 q 397 875 386 875 l 856 872 q 878 858 878 872 q 797 833 878 833 z "},"":{"ha":1158,"x_min":219,"x_max":1528,"o":"m 1081 347 l 1075 383 q 1081 392 1075 392 l 1114 369 q 1120 365 1117 368 q 1126 360 1124 361 q 1131 356 1128 358 q 1133 353 1132 356 q 1136 339 1136 349 q 1099 237 1136 297 q 998 115 1063 176 q 826 10 933 53 q 589 -33 719 -33 q 339 50 458 -33 q 219 264 219 133 q 260 439 219 358 q 363 569 301 519 q 496 658 424 618 q 629 717 568 697 q 772 769 772 764 q 756 792 772 781 q 672 948 672 849 q 784 1139 672 1047 q 1086 1231 896 1231 q 1231 1214 1154 1231 q 1381 1119 1381 1179 q 1365 1078 1381 1103 q 1340 1034 1350 1054 q 1325 1014 1331 1014 q 1314 1031 1319 1014 q 1228 1142 1297 1088 q 1063 1197 1160 1197 q 906 1178 967 1197 q 815 1131 843 1161 q 767 1024 767 1078 q 797 915 767 971 q 872 833 826 860 q 928 800 928 807 q 917 763 928 776 q 869 744 906 749 q 654 694 747 731 q 506 613 561 658 q 417 510 451 568 q 358 283 358 411 q 388 161 358 214 q 464 81 417 108 q 658 25 594 29 q 966 124 851 25 q 1081 347 1081 222 m 1164 1631 q 1150 1559 1150 1594 q 1181 1498 1150 1524 q 1258 1472 1213 1472 q 1458 1594 1375 1472 q 1489 1616 1465 1601 q 1525 1631 1513 1631 l 1528 1631 q 1481 1573 1528 1619 q 1351 1480 1433 1526 q 1201 1433 1268 1433 q 1108 1463 1133 1433 q 1083 1526 1083 1493 q 1097 1597 1083 1560 q 1125 1620 1101 1607 q 1161 1633 1149 1633 l 1164 1631 z "},"":{"ha":603,"x_min":36,"x_max":931,"o":"m 94 178 l 39 133 q 36 139 36 133 q 46 154 36 144 q 100 197 56 164 q 196 386 132 297 q 326 530 260 475 q 453 616 393 585 q 547 647 513 647 q 619 592 619 647 q 604 549 619 571 q 548 496 589 528 q 470 438 507 464 q 353 358 433 413 q 217 264 274 304 q 192 133 192 193 q 224 43 192 72 q 334 14 257 14 q 512 68 411 14 q 703 201 613 122 q 836 344 793 279 q 847 353 842 353 q 853 349 853 353 q 850 339 853 344 q 478 28 696 139 q 272 -22 372 -22 q 83 108 83 -22 q 94 178 83 128 m 228 289 q 461 472 392 407 q 531 572 531 536 q 500 608 531 608 q 354 510 432 608 q 228 289 276 413 m 567 1003 q 553 931 553 967 q 584 870 553 896 q 661 844 615 844 q 861 967 778 844 q 892 988 868 974 q 928 1003 915 1003 l 931 1003 q 883 945 931 992 q 753 852 836 899 q 603 806 671 806 q 511 835 536 806 q 486 899 486 865 q 500 969 486 932 q 528 992 504 979 q 564 1006 551 1006 l 567 1003 z "},"":{"ha":1158,"x_min":219,"x_max":1381,"o":"m 1081 347 l 1075 383 q 1081 392 1075 392 l 1114 369 q 1120 365 1117 368 q 1126 360 1124 361 q 1131 356 1128 358 q 1133 353 1132 356 q 1136 339 1136 349 q 1099 237 1136 297 q 998 115 1063 176 q 826 10 933 53 q 589 -33 719 -33 q 339 50 458 -33 q 219 264 219 133 q 260 439 219 358 q 363 569 301 519 q 496 658 424 618 q 629 717 568 697 q 772 769 772 764 q 756 792 772 781 q 672 948 672 849 q 784 1139 672 1047 q 1086 1231 896 1231 q 1231 1214 1154 1231 q 1381 1119 1381 1179 q 1365 1078 1381 1103 q 1340 1034 1350 1054 q 1325 1014 1331 1014 q 1314 1031 1319 1014 q 1228 1142 1297 1088 q 1063 1197 1160 1197 q 906 1178 967 1197 q 815 1131 843 1161 q 767 1024 767 1078 q 797 915 767 971 q 872 833 826 860 q 928 800 928 807 q 917 763 928 776 q 869 744 906 749 q 654 694 747 731 q 506 613 561 658 q 417 510 451 568 q 358 283 358 411 q 388 161 358 214 q 464 81 417 108 q 658 25 594 29 q 966 124 851 25 q 1081 347 1081 222 m 1156 1464 q 1183 1528 1156 1494 q 1233 1561 1208 1561 q 1271 1547 1258 1561 q 1283 1506 1283 1532 q 1258 1447 1283 1479 q 1200 1414 1233 1414 q 1156 1464 1156 1414 z "},"":{"ha":603,"x_min":36,"x_max":853,"o":"m 94 178 l 39 133 q 36 139 36 133 q 46 154 36 144 q 100 197 56 164 q 196 386 132 297 q 326 530 260 475 q 453 616 393 585 q 547 647 513 647 q 619 592 619 647 q 604 549 619 571 q 548 496 589 528 q 470 438 507 464 q 353 358 433 413 q 217 264 274 304 q 192 133 192 193 q 224 43 192 72 q 334 14 257 14 q 512 68 411 14 q 703 201 613 122 q 836 344 793 279 q 847 353 842 353 q 853 349 853 353 q 850 339 853 344 q 478 28 696 139 q 272 -22 372 -22 q 83 108 83 -22 q 94 178 83 128 m 228 289 q 461 472 392 407 q 531 572 531 536 q 500 608 531 608 q 354 510 432 608 q 228 289 276 413 m 558 836 q 586 900 558 867 q 636 933 611 933 q 674 919 661 933 q 686 878 686 904 q 661 819 686 851 q 603 786 636 786 q 558 836 558 786 z "},"":{"ha":1158,"x_min":219,"x_max":1381,"o":"m 1081 347 l 1075 383 q 1081 392 1075 392 l 1114 369 q 1120 365 1117 368 q 1126 360 1124 361 q 1131 356 1128 358 q 1133 353 1132 356 q 1136 339 1136 349 q 1099 237 1136 297 q 998 115 1063 176 q 826 10 933 53 q 589 -33 719 -33 q 339 50 458 -33 q 219 264 219 133 q 260 439 219 358 q 363 569 301 519 q 496 658 424 618 q 629 717 568 697 q 772 769 772 764 q 756 792 772 781 q 672 948 672 849 q 784 1139 672 1047 q 1086 1231 896 1231 q 1231 1214 1154 1231 q 1381 1119 1381 1179 q 1365 1078 1381 1103 q 1340 1034 1350 1054 q 1325 1014 1331 1014 q 1314 1031 1319 1014 q 1228 1142 1297 1088 q 1063 1197 1160 1197 q 906 1178 967 1197 q 815 1131 843 1161 q 767 1024 767 1078 q 797 915 767 971 q 872 833 826 860 q 928 800 928 807 q 917 763 928 776 q 869 744 906 749 q 654 694 747 731 q 506 613 561 658 q 417 510 451 568 q 358 283 358 411 q 388 161 358 214 q 464 81 417 108 q 658 25 594 29 q 966 124 851 25 q 1081 347 1081 222 m 444 -78 q 457 -70 444 -78 q 539 -27 471 -62 q 610 8 607 8 q 614 3 614 8 q 567 -28 614 -1 q 511 -58 519 -54 q 394 -211 394 -133 q 420 -268 394 -244 q 473 -292 446 -292 q 519 -286 500 -292 l 539 -281 q 550 -283 550 -281 q 528 -294 550 -286 q 428 -314 469 -314 q 308 -236 308 -314 q 335 -164 308 -199 q 390 -111 363 -129 q 444 -78 417 -93 z "}}}
